<svg width="222" height="40" viewBox="0 0 222 40" fill="none" xmlns="http://www.w3.org/2000/svg">
<path d="M0.18272 38.667H6.64556V15.074H7.12607L16.0155 38.667H20.5563L29.4457 15.074H29.9262V38.667H36.389V3.99831H28.0762L18.5141 29.3692H18.0817L8.49552 3.99831H0.18272V38.667ZM55.7535 39.2196C63.4897 39.2196 66.9013 34.7508 67.7182 31.4353L67.7662 31.1951H61.2313L61.1592 31.3392C60.6787 32.3483 58.9729 33.982 55.8977 33.982C52.1737 33.982 49.8433 31.4594 49.7712 27.1108H67.9825V24.9245C67.9825 16.924 63.1774 11.6384 55.4652 11.6384C47.7531 11.6384 42.8278 17.0441 42.8278 25.453V25.477C42.8278 33.958 47.705 39.2196 55.7535 39.2196ZM55.5853 16.9C58.6366 16.9 60.8229 18.87 61.2553 22.7141H49.8433C50.2757 18.9661 52.5341 16.9 55.5853 16.9ZM83.1665 39.0754C86.8905 39.0754 89.7014 37.4177 91.0709 34.5586H91.5034V38.667H98.5188V2.1003H91.5034V16.4435H91.0709C89.7495 13.5604 86.7944 11.7825 83.1665 11.7825C76.4634 11.7825 72.4272 16.9 72.4272 25.405V25.453C72.4272 33.91 76.5595 39.0754 83.1665 39.0754ZM85.545 33.2613C81.8451 33.2613 79.5627 30.3302 79.5627 25.453V25.405C79.5627 20.5758 81.8451 17.5967 85.545 17.5967C89.245 17.5967 91.5754 20.5758 91.5754 25.429V25.477C91.5754 30.3302 89.269 33.2613 85.545 33.2613ZM114.88 38.667H122.136V9.98064H132.539V3.99831H104.477V9.98064H114.88V38.667ZM141.356 8.15471C143.518 8.15471 145.296 6.42488 145.296 4.26259C145.296 2.07628 143.518 0.346445 141.356 0.346445C139.194 0.346445 137.392 2.07628 137.392 4.26259C137.392 6.42488 139.194 8.15471 141.356 8.15471ZM137.824 38.667H144.84V12.215H137.824V38.667ZM151.903 38.667H158.919V22.7141C158.919 19.6869 160.841 17.4525 163.58 17.4525C166.319 17.4525 167.928 19.1103 167.928 21.9453V38.667H174.944V22.4018C174.944 19.5428 176.77 17.4525 179.605 17.4525C182.536 17.4525 183.977 19.0622 183.977 22.2576V38.667H190.993V20.5038C190.993 15.05 187.701 11.6384 182.44 11.6384C178.74 11.6384 175.664 13.5845 174.463 16.5156H174.031C172.95 13.4643 170.283 11.6384 166.679 11.6384C163.219 11.6384 160.48 13.3682 159.351 16.3474H158.919V12.215H151.903V38.667ZM209.42 39.2196C217.156 39.2196 220.568 34.7508 221.385 31.4353L221.433 31.1951H214.898L214.826 31.3392C214.345 32.3483 212.64 33.982 209.564 33.982C205.84 33.982 203.51 31.4594 203.438 27.1108H221.649V24.9245C221.649 16.924 216.844 11.6384 209.132 11.6384C201.42 11.6384 196.494 17.0441 196.494 25.453V25.477C196.494 33.958 201.372 39.2196 209.42 39.2196ZM209.252 16.9C212.303 16.9 214.489 18.87 214.922 22.7141H203.51C203.942 18.9661 206.201 16.9 209.252 16.9Z" fill="white"/>
</svg>
