<svg width="898" height="156" viewBox="0 0 898 156" fill="none" xmlns="http://www.w3.org/2000/svg">
<path d="M31.9851 153L51.8413 59.1966H52.6238L66.709 152.804H88.4236L142.123 59.1966H143.199L123.05 153H155.035L185.064 11.8548H140.363L86.5651 107.517H85.8804L71.3062 11.8548H30.0288L0.0978137 153H31.9851ZM232.112 155.445C259.206 155.445 279.063 140.48 284.638 118.667H253.142C250.697 126.101 243.361 131.09 233.579 131.09C221.157 131.09 213.625 122.384 213.625 110.353C213.625 109.277 213.723 108.201 213.919 107.125H287.377C288.55 101.941 289.04 95.1921 289.04 89.7145C289.04 61.9354 269.966 43.9377 241.893 43.9377C206.778 43.9377 183.205 71.0321 183.205 107.125C183.205 137.056 201.888 155.445 232.112 155.445ZM217.146 87.7583C219.983 76.2162 229.08 67.9999 240.426 67.9999C251.577 67.9999 258.13 75.4337 258.13 84.726C258.13 85.802 258.13 87.1714 257.935 87.7583H217.146ZM335.599 154.565C349.88 154.565 361.226 148.598 368.758 137.545H369.442L366.215 153H399.08L429.207 11.8548H395.461L384.212 64.6742H383.528C380.006 52.5453 368.366 44.9158 352.521 44.9158C322.101 44.9158 299.212 73.9665 299.212 112.994C299.212 138.524 313.2 154.565 335.599 154.565ZM351.249 128.547C340.685 128.547 333.936 120.33 333.936 107.712C333.936 87.2692 345.282 71.7168 359.759 71.7168C370.421 71.7168 377.365 80.031 377.365 92.2577C377.365 112.114 365.628 128.547 351.249 128.547ZM489.264 153L513.131 40.7099H553.723L559.886 11.8548H442.705L436.543 40.7099H477.135L453.367 153H489.264ZM594.414 34.2541C604 34.2541 611.531 26.6247 611.531 17.528C611.531 8.33351 604 0.704041 594.414 0.704041C584.828 0.704041 577.297 8.33351 577.297 17.528C577.297 26.6247 584.828 34.2541 594.414 34.2541ZM548.637 153H582.383L605.076 46.4809H571.33L548.637 153ZM604.391 153H637.941L651.537 88.932C653.885 77.5856 661.319 70.543 670.122 70.543C678.142 70.543 683.131 76.1184 683.131 84.0413C683.131 86.3889 682.838 88.6386 682.348 91.3774L669.437 153H701.52L715.018 88.932C717.366 77.39 724.8 70.543 733.603 70.543C741.624 70.543 746.612 76.1184 746.612 84.0413C746.612 86.3889 746.319 88.6386 745.83 91.3774L732.82 153H766.37L780.358 86.5845C781.238 81.9872 781.727 77.6834 781.727 73.7709C781.727 56.36 769.305 43.9377 752.09 43.9377C736.342 43.9377 724.115 51.7628 716.485 62.9136H715.801C712.475 51.665 702.302 43.9377 688.804 43.9377C675.404 43.9377 663.079 51.665 656.623 63.4026H655.939L659.558 46.4809H627.084L604.391 153ZM840.318 155.445C867.412 155.445 887.268 140.48 892.844 118.667H861.348C858.902 126.101 851.566 131.09 841.785 131.09C829.363 131.09 821.831 122.384 821.831 110.353C821.831 109.277 821.929 108.201 822.124 107.125H895.582C896.756 101.941 897.245 95.1921 897.245 89.7145C897.245 61.9354 878.172 43.9377 850.099 43.9377C814.984 43.9377 791.411 71.0321 791.411 107.125C791.411 137.056 810.093 155.445 840.318 155.445ZM825.352 87.7583C828.189 76.2162 837.285 67.9999 848.632 67.9999C859.783 67.9999 866.336 75.4337 866.336 84.726C866.336 85.802 866.336 87.1714 866.141 87.7583H825.352Z" fill="white" fill-opacity="0.18"/>
</svg>
