<svg width="952" height="156" viewBox="0 0 952 156" fill="none" xmlns="http://www.w3.org/2000/svg">
<path d="M58.4696 155.445C91.4328 155.445 115.788 137.937 122.049 108.397L142.492 11.8548H106.496L87.7159 100.572C84.3902 116.32 74.6089 124.927 60.5237 124.927C46.8298 124.927 37.3418 117.298 37.244 104.68C37.1462 101.941 37.5375 99.0068 38.2222 95.779L55.9264 11.8548H20.0288L2.1289 96.3659C1.24858 100.572 0.857323 104.778 0.857323 108.593C0.857323 135.98 22.3763 155.445 58.4696 155.445ZM132.515 153H166.065L179.465 90.2036C181.911 78.3681 190.714 70.543 201.082 70.543C210.668 70.543 217.221 76.4119 217.221 85.0195C217.221 87.2692 216.928 89.6167 216.439 92.6489L203.625 153H237.077L250.869 87.367C251.847 82.6719 252.336 78.2703 252.336 74.3578C252.336 56.2622 239.132 43.9377 219.96 43.9377C205.484 43.9377 192.279 50.7847 184.943 62.7179H184.16L187.682 46.4809H155.207L132.515 153ZM305.84 34.2541C315.426 34.2541 322.958 26.6247 322.958 17.528C322.958 8.33351 315.426 0.704041 305.84 0.704041C296.255 0.704041 288.723 8.33351 288.723 17.528C288.723 26.6247 296.255 34.2541 305.84 34.2541ZM260.064 153H293.809L316.502 46.4809H282.756L260.064 153ZM391.819 155.445C434.857 155.445 469.092 120.428 469.092 69.8583C469.092 35.0367 445.812 9.40946 405.806 9.40946C362.67 9.40946 328.729 44.5246 328.729 94.9965C328.729 129.916 352.595 155.445 391.819 155.445ZM405.024 38.5579C421.848 38.5579 432.705 51.4694 432.705 71.9124C432.705 102.039 415.001 126.297 392.797 126.297C375.973 126.297 365.213 113.19 365.213 92.9424C365.213 62.9136 382.82 38.5579 405.024 38.5579ZM540.496 155.445C573.459 155.445 597.814 137.937 604.075 108.397L624.518 11.8548H588.522L569.742 100.572C566.416 116.32 556.635 124.927 542.55 124.927C528.856 124.927 519.368 117.298 519.27 104.68C519.172 101.941 519.563 99.0068 520.248 95.779L537.952 11.8548H502.055L484.155 96.3659C483.275 100.572 482.883 104.778 482.883 108.593C482.883 135.98 504.402 155.445 540.496 155.445ZM614.541 153H648.091L661.491 90.2036C663.937 78.3681 672.74 70.543 683.108 70.543C692.694 70.543 699.247 76.4119 699.247 85.0195C699.247 87.2692 698.954 89.6167 698.465 92.6489L685.651 153H719.103L732.895 87.367C733.873 82.6719 734.362 78.2703 734.362 74.3578C734.362 56.2622 721.158 43.9377 701.986 43.9377C687.51 43.9377 674.305 50.7847 666.969 62.7179H666.186L669.708 46.4809H637.233L614.541 153ZM787.866 34.2541C797.452 34.2541 804.984 26.6247 804.984 17.528C804.984 8.33351 797.452 0.704041 787.866 0.704041C778.281 0.704041 770.749 8.33351 770.749 17.528C770.749 26.6247 778.281 34.2541 787.866 34.2541ZM742.09 153H775.835L798.528 46.4809H764.782L742.09 153ZM873.845 155.445C916.883 155.445 951.118 120.428 951.118 69.8583C951.118 35.0367 927.838 9.40946 887.832 9.40946C844.696 9.40946 810.755 44.5246 810.755 94.9965C810.755 129.916 834.621 155.445 873.845 155.445ZM887.05 38.5579C903.874 38.5579 914.731 51.4694 914.731 71.9124C914.731 102.039 897.027 126.297 874.823 126.297C857.999 126.297 847.239 113.19 847.239 92.9424C847.239 62.9136 864.846 38.5579 887.05 38.5579Z" fill="white" fill-opacity="0.18"/>
</svg>
