<svg width="176" height="62" viewBox="0 0 176 62" fill="none" xmlns="http://www.w3.org/2000/svg">
<g filter="url(#filter0_d_32_2272)">
<path d="M44.3164 35.7112C44.3164 44.4338 42.3246 53.1565 32.8465 53.1565C28.2448 53.1565 24.1925 48.8295 24.1925 38.3898V18.3347C24.1925 13.1835 26.9398 10.6423 29.2063 10.6423V9.95545H4.68682V10.6423C6.95333 10.6423 9.63193 13.1835 9.63193 18.3347V35.5739C9.63193 47.1811 15.1952 55.423 30.4426 55.423C41.0196 55.423 46.3768 49.8597 46.3768 36.4667V22.2495C46.3768 15.0379 49.0554 10.6423 51.3219 10.6423V9.95545H36.5553V10.6423C41.0196 10.6423 44.3164 17.1671 44.3164 24.3787V35.7112ZM70.8427 17.6478H70.1558C68.2327 22.6616 60.8151 24.7908 53.054 24.516V25.2029C55.5952 25.2029 56.2821 28.9804 56.2821 31.5216V46.3569C56.2821 51.5081 53.6035 54.0493 51.337 54.0493V54.7361H75.8564V54.0493C73.5899 54.0493 70.8427 51.5081 70.8427 46.3569V35.9173C70.8427 29.5298 74.5515 23.9666 77.0927 23.9666C80.6642 23.9666 81.6944 30.6287 81.6944 35.2304V46.3569C81.6944 51.5081 79.0158 54.0493 76.7493 54.0493V54.7361H101.269V54.0493C99.0023 54.0493 96.255 51.5081 96.255 46.3569V34.4749C96.255 26.7139 91.1725 19.6396 82.3126 19.7083C79.4279 19.7083 71.6668 21.0819 70.8427 32.3458V17.6478ZM101.831 10.2302C101.831 15.5187 105.334 19.0215 110.622 19.0215C115.911 19.0215 119.414 15.5187 119.414 10.2302C119.414 4.94166 115.911 1.43888 110.622 1.43888C105.334 1.43888 101.831 4.94166 101.831 10.2302ZM105.883 46.3569C105.883 51.5081 103.205 54.0493 100.938 54.0493V54.7361H125.458V54.0493C123.191 54.0493 120.444 51.5081 120.444 46.3569V17.6478H119.757C117.834 22.6616 110.416 24.7908 102.655 24.516V25.2029C105.197 25.2029 105.883 28.9804 105.883 31.5216V46.3569ZM148.394 9.26863C134.864 9.26863 125.455 18.8154 125.455 32.2084C125.455 43.8157 133.147 55.423 148.394 55.423C163.573 55.423 171.265 43.8157 171.265 32.2084C171.265 18.8154 161.925 9.26863 148.394 9.26863ZM148.394 53.6372C142.419 53.6372 140.771 35.5052 140.771 31.5216C140.771 21.1506 143.861 11.0544 148.394 11.0544C152.859 11.0544 155.949 21.1506 155.949 31.5216C155.949 35.5052 154.37 53.6372 148.394 53.6372Z" fill="white"/>
</g>
<defs>
<filter id="filter0_d_32_2272" x="0.77979" y="0.136547" width="174.393" height="61.7981" filterUnits="userSpaceOnUse" color-interpolation-filters="sRGB">
<feFlood flood-opacity="0" result="BackgroundImageFix"/>
<feColorMatrix in="SourceAlpha" type="matrix" values="0 0 0 0 0 0 0 0 0 0 0 0 0 0 0 0 0 0 127 0" result="hardAlpha"/>
<feOffset dy="2.60465"/>
<feGaussianBlur stdDeviation="1.95349"/>
<feComposite in2="hardAlpha" operator="out"/>
<feColorMatrix type="matrix" values="0 0 0 0 0 0 0 0 0 0 0 0 0 0 0 0 0 0 0.25 0"/>
<feBlend mode="normal" in2="BackgroundImageFix" result="effect1_dropShadow_32_2272"/>
<feBlend mode="normal" in="SourceGraphic" in2="effect1_dropShadow_32_2272" result="shape"/>
</filter>
</defs>
</svg>
