<svg width="155" height="93" viewBox="0 0 155 93" fill="none" xmlns="http://www.w3.org/2000/svg">
<mask id="path-1-outside-1_348_2835" maskUnits="userSpaceOnUse" x="0" y="0" width="155" height="93" fill="black">
<rect fill="white" width="155" height="93"/>
<path d="M152 3H0V92.5679H152V3Z"/>
</mask>
<path d="M152 3V0H155V3H152ZM152 3V6H0V3V0H152V3ZM152 92.5679H149V3H152H155V92.5679H152Z" fill="#0E0E11" mask="url(#path-1-outside-1_348_2835)"/>
<path d="M152 3H48V38C48 51.2548 58.7452 62 72 62H152V3Z" fill="#0E0E11"/>
<rect x="60" y="15" width="80" height="35" rx="17.5" fill="#EFEFEF"/>
<path d="M82.2578 38V37.0312L86.0703 32.9062C86.5495 32.3854 86.9245 31.9557 87.1953 31.6172C87.4661 31.2734 87.6562 30.9635 87.7656 30.6875C87.875 30.4115 87.9297 30.1094 87.9297 29.7812V29.7656C87.9297 29.3698 87.8438 29.0156 87.6719 28.7031C87.5 28.3906 87.2552 28.1432 86.9375 27.9609C86.6198 27.7786 86.2396 27.6875 85.7969 27.6875C85.349 27.6875 84.9557 27.7812 84.6172 27.9688C84.2786 28.151 84.0156 28.4089 83.8281 28.7422C83.6406 29.0703 83.5469 29.4557 83.5469 29.8984L83.5391 29.9141L82.1953 29.9062L82.1797 29.8984C82.1849 29.2318 82.3464 28.6406 82.6641 28.125C82.9818 27.6042 83.4193 27.1979 83.9766 26.9062C84.5339 26.6094 85.1719 26.4609 85.8906 26.4609C86.5469 26.4609 87.138 26.599 87.6641 26.875C88.1901 27.1458 88.6042 27.5182 88.9062 27.9922C89.2135 28.4661 89.3672 29.0078 89.3672 29.6172V29.6328C89.3672 30.0599 89.2917 30.4714 89.1406 30.8672C88.9948 31.263 88.7344 31.7031 88.3594 32.1875C87.9844 32.6667 87.4557 33.2578 86.7734 33.9609L83.8594 36.9688L84.2109 36.3203V36.9688L83.8672 36.7344H89.5547V38H82.2578ZM95.2075 38.2656C94.3742 38.2656 93.6606 38.026 93.0669 37.5469C92.4783 37.0677 92.0252 36.388 91.7075 35.5078C91.3898 34.6224 91.2309 33.5755 91.2309 32.3672V32.3516C91.2309 31.1432 91.3898 30.099 91.7075 29.2188C92.0252 28.3385 92.4783 27.6589 93.0669 27.1797C93.6606 26.7005 94.3742 26.4609 95.2075 26.4609C96.0408 26.4609 96.7544 26.7005 97.3481 27.1797C97.9419 27.6589 98.3976 28.3385 98.7153 29.2188C99.0382 30.099 99.1997 31.1432 99.1997 32.3516V32.3672C99.1997 33.5755 99.0382 34.6224 98.7153 35.5078C98.3976 36.388 97.9419 37.0677 97.3481 37.5469C96.7544 38.026 96.0408 38.2656 95.2075 38.2656ZM95.2075 37.0391C95.7492 37.0391 96.2101 36.849 96.5903 36.4688C96.9757 36.0885 97.27 35.5495 97.4731 34.8516C97.6815 34.1536 97.7856 33.3255 97.7856 32.3672V32.3516C97.7856 31.3932 97.6815 30.5677 97.4731 29.875C97.27 29.1771 96.9757 28.6406 96.5903 28.2656C96.2101 27.8854 95.7492 27.6953 95.2075 27.6953C94.671 27.6953 94.2101 27.8854 93.8247 28.2656C93.4445 28.6406 93.1528 29.1771 92.9497 29.875C92.7466 30.5677 92.645 31.3932 92.645 32.3516V32.3672C92.645 33.3255 92.7466 34.1536 92.9497 34.8516C93.1528 35.5495 93.4445 36.0885 93.8247 36.4688C94.2101 36.849 94.671 37.0391 95.2075 37.0391ZM101.032 38V37.0312L104.845 32.9062C105.324 32.3854 105.699 31.9557 105.97 31.6172C106.241 31.2734 106.431 30.9635 106.54 30.6875C106.649 30.4115 106.704 30.1094 106.704 29.7812V29.7656C106.704 29.3698 106.618 29.0156 106.446 28.7031C106.274 28.3906 106.03 28.1432 105.712 27.9609C105.394 27.7786 105.014 27.6875 104.571 27.6875C104.123 27.6875 103.73 27.7812 103.392 27.9688C103.053 28.151 102.79 28.4089 102.603 28.7422C102.415 29.0703 102.321 29.4557 102.321 29.8984L102.313 29.9141L100.97 29.9062L100.954 29.8984C100.959 29.2318 101.121 28.6406 101.438 28.125C101.756 27.6042 102.194 27.1979 102.751 26.9062C103.308 26.6094 103.946 26.4609 104.665 26.4609C105.321 26.4609 105.912 26.599 106.438 26.875C106.964 27.1458 107.379 27.5182 107.681 27.9922C107.988 28.4661 108.142 29.0078 108.142 29.6172V29.6328C108.142 30.0599 108.066 30.4714 107.915 30.8672C107.769 31.263 107.509 31.7031 107.134 32.1875C106.759 32.6667 106.23 33.2578 105.548 33.9609L102.634 36.9688L102.985 36.3203V36.9688L102.642 36.7344H108.329V38H101.032ZM110.208 38V37.0312L114.021 32.9062C114.5 32.3854 114.875 31.9557 115.146 31.6172C115.417 31.2734 115.607 30.9635 115.716 30.6875C115.826 30.4115 115.88 30.1094 115.88 29.7812V29.7656C115.88 29.3698 115.794 29.0156 115.622 28.7031C115.451 28.3906 115.206 28.1432 114.888 27.9609C114.57 27.7786 114.19 27.6875 113.747 27.6875C113.3 27.6875 112.906 27.7812 112.568 27.9688C112.229 28.151 111.966 28.4089 111.779 28.7422C111.591 29.0703 111.497 29.4557 111.497 29.8984L111.49 29.9141L110.146 29.9062L110.13 29.8984C110.136 29.2318 110.297 28.6406 110.615 28.125C110.932 27.6042 111.37 27.1979 111.927 26.9062C112.484 26.6094 113.122 26.4609 113.841 26.4609C114.497 26.4609 115.089 26.599 115.615 26.875C116.141 27.1458 116.555 27.5182 116.857 27.9922C117.164 28.4661 117.318 29.0078 117.318 29.6172V29.6328C117.318 30.0599 117.242 30.4714 117.091 30.8672C116.945 31.263 116.685 31.7031 116.31 32.1875C115.935 32.6667 115.406 33.2578 114.724 33.9609L111.81 36.9688L112.162 36.3203V36.9688L111.818 36.7344H117.505V38H110.208Z" fill="black"/>
<path d="M48 30V3H21C35.5 3 48 14 48 30Z" fill="#0E0E11"/>
<path d="M152 89V62H125C139.5 62 152 73 152 89Z" fill="#0E0E11"/>
</svg>
