<svg width="155" height="93" viewBox="0 0 155 93" fill="none" xmlns="http://www.w3.org/2000/svg">
<mask id="path-1-outside-1_348_2823" maskUnits="userSpaceOnUse" x="0" y="0" width="155" height="93" fill="black">
<rect fill="white" width="155" height="93"/>
<path d="M152 3H0V92.5679H152V3Z"/>
</mask>
<path d="M152 3V0H155V3H152ZM152 3V6H0V3V0H152V3ZM152 92.5679H149V3H152H155V92.5679H152Z" fill="#0E0E11" mask="url(#path-1-outside-1_348_2823)"/>
<path d="M152 3H48V38C48 51.2548 58.7452 62 72 62H152V3Z" fill="#0E0E11"/>
<rect x="59" y="15" width="81" height="35" rx="17.5" fill="#EFEFEF"/>
<path d="M81.2578 38V37.0312L85.0703 32.9062C85.5495 32.3854 85.9245 31.9557 86.1953 31.6172C86.4661 31.2734 86.6562 30.9635 86.7656 30.6875C86.875 30.4115 86.9297 30.1094 86.9297 29.7812V29.7656C86.9297 29.3698 86.8438 29.0156 86.6719 28.7031C86.5 28.3906 86.2552 28.1432 85.9375 27.9609C85.6198 27.7786 85.2396 27.6875 84.7969 27.6875C84.349 27.6875 83.9557 27.7812 83.6172 27.9688C83.2786 28.151 83.0156 28.4089 82.8281 28.7422C82.6406 29.0703 82.5469 29.4557 82.5469 29.8984L82.5391 29.9141L81.1953 29.9062L81.1797 29.8984C81.1849 29.2318 81.3464 28.6406 81.6641 28.125C81.9818 27.6042 82.4193 27.1979 82.9766 26.9062C83.5339 26.6094 84.1719 26.4609 84.8906 26.4609C85.5469 26.4609 86.138 26.599 86.6641 26.875C87.1901 27.1458 87.6042 27.5182 87.9062 27.9922C88.2135 28.4661 88.3672 29.0078 88.3672 29.6172V29.6328C88.3672 30.0599 88.2917 30.4714 88.1406 30.8672C87.9948 31.263 87.7344 31.7031 87.3594 32.1875C86.9844 32.6667 86.4557 33.2578 85.7734 33.9609L82.8594 36.9688L83.2109 36.3203V36.9688L82.8672 36.7344H88.5547V38H81.2578ZM94.2075 38.2656C93.3742 38.2656 92.6606 38.026 92.0669 37.5469C91.4783 37.0677 91.0252 36.388 90.7075 35.5078C90.3898 34.6224 90.2309 33.5755 90.2309 32.3672V32.3516C90.2309 31.1432 90.3898 30.099 90.7075 29.2188C91.0252 28.3385 91.4783 27.6589 92.0669 27.1797C92.6606 26.7005 93.3742 26.4609 94.2075 26.4609C95.0408 26.4609 95.7544 26.7005 96.3481 27.1797C96.9419 27.6589 97.3976 28.3385 97.7153 29.2188C98.0382 30.099 98.1997 31.1432 98.1997 32.3516V32.3672C98.1997 33.5755 98.0382 34.6224 97.7153 35.5078C97.3976 36.388 96.9419 37.0677 96.3481 37.5469C95.7544 38.026 95.0408 38.2656 94.2075 38.2656ZM94.2075 37.0391C94.7492 37.0391 95.2101 36.849 95.5903 36.4688C95.9757 36.0885 96.27 35.5495 96.4731 34.8516C96.6815 34.1536 96.7856 33.3255 96.7856 32.3672V32.3516C96.7856 31.3932 96.6815 30.5677 96.4731 29.875C96.27 29.1771 95.9757 28.6406 95.5903 28.2656C95.2101 27.8854 94.7492 27.6953 94.2075 27.6953C93.671 27.6953 93.2101 27.8854 92.8247 28.2656C92.4445 28.6406 92.1528 29.1771 91.9497 29.875C91.7466 30.5677 91.645 31.3932 91.645 32.3516V32.3672C91.645 33.3255 91.7466 34.1536 91.9497 34.8516C92.1528 35.5495 92.4445 36.0885 92.8247 36.4688C93.2101 36.849 93.671 37.0391 94.2075 37.0391ZM100.032 38V37.0312L103.845 32.9062C104.324 32.3854 104.699 31.9557 104.97 31.6172C105.241 31.2734 105.431 30.9635 105.54 30.6875C105.649 30.4115 105.704 30.1094 105.704 29.7812V29.7656C105.704 29.3698 105.618 29.0156 105.446 28.7031C105.274 28.3906 105.03 28.1432 104.712 27.9609C104.394 27.7786 104.014 27.6875 103.571 27.6875C103.123 27.6875 102.73 27.7812 102.392 27.9688C102.053 28.151 101.79 28.4089 101.603 28.7422C101.415 29.0703 101.321 29.4557 101.321 29.8984L101.313 29.9141L99.9697 29.9062L99.9541 29.8984C99.9593 29.2318 100.121 28.6406 100.438 28.125C100.756 27.6042 101.194 27.1979 101.751 26.9062C102.308 26.6094 102.946 26.4609 103.665 26.4609C104.321 26.4609 104.912 26.599 105.438 26.875C105.964 27.1458 106.379 27.5182 106.681 27.9922C106.988 28.4661 107.142 29.0078 107.142 29.6172V29.6328C107.142 30.0599 107.066 30.4714 106.915 30.8672C106.769 31.263 106.509 31.7031 106.134 32.1875C105.759 32.6667 105.23 33.2578 104.548 33.9609L101.634 36.9688L101.985 36.3203V36.9688L101.642 36.7344H107.329V38H100.032ZM114.122 38V35.6641H108.63V34.3828C108.938 33.8724 109.25 33.3568 109.568 32.8359C109.886 32.3099 110.206 31.7865 110.529 31.2656C110.857 30.7396 111.185 30.2188 111.513 29.7031C111.841 29.1875 112.167 28.6797 112.49 28.1797C112.818 27.6797 113.141 27.1953 113.458 26.7266H115.497V34.4062H117.099V35.6641H115.497V38H114.122ZM110.068 34.4141H114.13V28.0312H114.037C113.781 28.4115 113.521 28.8073 113.255 29.2188C112.99 29.625 112.719 30.0417 112.443 30.4688C112.172 30.8958 111.901 31.3255 111.63 31.7578C111.359 32.1901 111.091 32.6224 110.826 33.0547C110.565 33.4818 110.313 33.9036 110.068 34.3203V34.4141Z" fill="black"/>
<path d="M48 30V3H21C35.5 3 48 14 48 30Z" fill="#0E0E11"/>
<path d="M152 89V62H125C139.5 62 152 73 152 89Z" fill="#0E0E11"/>
</svg>
