<svg width="30" height="29" viewBox="0 0 30 29" fill="none" xmlns="http://www.w3.org/2000/svg">
<path d="M9.56662 8.3274C9.91542 7.59693 10.9552 7.59692 11.304 8.3274L14.0719 14.1243C14.1669 14.3231 14.3271 14.4833 14.5259 14.5782L20.3228 17.3462C21.0532 17.695 21.0532 18.7347 20.3228 19.0835L14.5259 21.8515C14.3271 21.9464 14.1669 22.1066 14.0719 22.3054L11.304 28.1023C10.9552 28.8328 9.91542 28.8328 9.56662 28.1023L6.79867 22.3054C6.70375 22.1066 6.54352 21.9464 6.34474 21.8515L0.54786 19.0835C-0.182622 18.7347 -0.182619 17.695 0.54786 17.3462L6.34474 14.5782C6.54353 14.4833 6.70375 14.3231 6.79867 14.1243L9.56662 8.3274Z" fill="white"/>
<path d="M26.2665 10.0171C26.4721 9.58652 27.085 9.58652 27.2906 10.0171L27.9753 11.4513C28.0313 11.5684 28.1257 11.6628 28.2429 11.7188L29.6771 12.4036C30.1076 12.6092 30.1076 13.222 29.6771 13.4276L28.2429 14.1124C28.1257 14.1684 28.0313 14.2628 27.9753 14.3799L27.2906 15.8142C27.085 16.2447 26.4721 16.2447 26.2665 15.8142L25.5818 14.3799C25.5258 14.2628 25.4313 14.1684 25.3142 14.1124L23.88 13.4276C23.4495 13.222 23.4495 12.6092 23.88 12.4036L25.3142 11.7188C25.4313 11.6628 25.5258 11.5684 25.5818 11.4513L26.2665 10.0171Z" fill="white"/>
<path d="M18.5096 0.421436C18.7779 -0.140479 19.5778 -0.140479 19.8461 0.421436L21.2423 3.34559C21.3153 3.49848 21.4386 3.62171 21.5915 3.69472L24.5156 5.09099C25.0775 5.3593 25.0775 6.15915 24.5156 6.42746L21.5915 7.82372C21.4386 7.89674 21.3153 8.01997 21.2423 8.17286L19.8461 11.097C19.5778 11.6589 18.7779 11.6589 18.5096 11.097L17.1134 8.17286C17.0404 8.01995 16.9171 7.89674 16.7642 7.82372L13.84 6.42746C13.2781 6.15915 13.2781 5.35931 13.84 5.09099L16.7642 3.69472C16.9171 3.62171 17.0404 3.49849 17.1134 3.34559L18.5096 0.421436Z" fill="white"/>
</svg>
