<svg width="724" height="156" viewBox="0 0 724 156" fill="none" xmlns="http://www.w3.org/2000/svg">
<path d="M102.779 66.0436H137.699C137.894 64.6742 138.09 62.8158 138.09 60.566C137.601 30.5372 113.637 9.40946 80.3799 9.40946C31.9621 9.40946 0.27044 43.9377 0.27044 95.6812C0.27044 131.97 24.4304 155.445 61.6975 155.445C97.4973 155.445 125.081 134.024 130.558 102.039H95.6388C90.9438 116.711 78.9127 125.808 63.9472 125.808C47.3188 125.808 37.1462 113.581 37.1462 93.6271C37.1462 61.642 53.5789 38.7536 76.9564 38.7536C91.335 38.7536 102.388 48.6328 102.779 62.4245C102.877 64.8698 102.877 65.4567 102.779 66.0436ZM186.703 34.2541C196.289 34.2541 203.821 26.6247 203.821 17.528C203.821 8.33351 196.289 0.704041 186.703 0.704041C177.118 0.704041 169.586 8.33351 169.586 17.528C169.586 26.6247 177.118 34.2541 186.703 34.2541ZM140.927 153H174.672L197.365 46.4809H163.619L140.927 153ZM196.68 153H230.23L243.631 90.2036C246.076 78.3681 254.88 70.543 265.248 70.543C274.834 70.543 281.387 76.4119 281.387 85.0195C281.387 87.2692 281.094 89.6167 280.605 92.6489L267.791 153H301.243L315.035 87.367C316.013 82.6719 316.502 78.2703 316.502 74.3578C316.502 56.2622 303.297 43.9377 284.126 43.9377C269.649 43.9377 256.445 50.7847 249.109 62.7179H248.326L251.847 46.4809H219.373L196.68 153ZM375.288 155.445C402.383 155.445 422.239 140.48 427.814 118.667H396.318C393.873 126.101 386.537 131.09 376.755 131.09C364.333 131.09 356.801 122.384 356.801 110.353C356.801 109.277 356.899 108.201 357.095 107.125H430.553C431.727 101.941 432.216 95.1921 432.216 89.7145C432.216 61.9354 413.142 43.9377 385.07 43.9377C349.954 43.9377 326.381 71.0321 326.381 107.125C326.381 137.056 345.064 155.445 375.288 155.445ZM360.323 87.7583C363.159 76.2162 372.256 67.9999 383.602 67.9999C394.753 67.9999 401.307 75.4337 401.307 84.726C401.307 85.802 401.307 87.1714 401.111 87.7583H360.323ZM469.581 153L489.437 59.1966H490.219L504.305 152.804H526.019L579.719 59.1966H580.795L560.645 153H592.63L622.659 11.8548H577.958L524.161 107.517H523.476L508.902 11.8548H467.624L437.693 153H469.581ZM647.015 154.565C660.415 154.565 671.37 148.892 677.044 140.382H677.728L674.989 153H707.659L722.136 84.726C722.625 82.4763 723.016 78.8572 723.016 76.0206C723.016 56.9469 704.725 43.9377 677.728 43.9377C651.025 43.9377 631.658 57.6316 627.648 79.1506H658.459C660.513 72.5971 666.48 68.7824 675.283 68.7824C684.38 68.7824 690.053 72.7928 690.053 78.955C690.053 79.9332 690.053 80.8135 689.662 82.4763L688.39 88.7364L663.252 89.5189C633.614 90.3992 615.519 103.8 615.519 125.612C615.519 142.338 629.213 154.565 647.015 154.565ZM661.98 131.188C653.764 131.188 648.091 127.079 648.091 120.819C648.091 113.679 654.644 108.984 664.915 108.593L684.282 108.006L682.521 115.929C680.663 124.732 671.859 131.188 661.98 131.188Z" fill="white" fill-opacity="0.18"/>
</svg>
