<svg width="527" height="148" viewBox="0 0 527 148" fill="none" xmlns="http://www.w3.org/2000/svg">
<path d="M201.844 115.063C194.889 115.063 188.746 113.535 183.416 110.48C178.086 107.425 173.958 103.232 171.033 97.9024C168.173 92.5073 166.743 86.4296 166.743 79.6695C166.743 73.0393 168.173 67.0267 171.033 61.6316C173.958 56.2365 178.053 52.0114 183.318 48.9563C188.584 45.8363 194.661 44.2762 201.551 44.2762C212.797 44.2762 222.417 48.7938 230.412 57.829L220.174 68.5542C217.899 65.6292 215.234 63.4191 212.179 61.9241C209.189 60.3641 206.004 59.5841 202.624 59.5841C198.919 59.5841 195.636 60.4291 192.776 62.1191C189.981 63.8091 187.804 66.1817 186.243 69.2368C184.683 72.2918 183.903 75.7694 183.903 79.6695C183.903 83.6346 184.683 87.1447 186.243 90.1997C187.804 93.1898 190.014 95.5298 192.874 97.2199C195.799 98.9099 199.146 99.7549 202.916 99.7549C210.392 99.7549 216.632 96.6024 221.637 90.2972L231.874 101.022C228.169 105.768 223.717 109.31 218.517 111.65C213.317 113.925 207.759 115.063 201.844 115.063ZM239.646 63.4841H255.539V113.795H239.646V63.4841ZM237.891 48.4688C237.891 45.6738 238.768 43.4312 240.523 41.7412C242.343 40.0511 244.683 39.2061 247.543 39.2061C250.468 39.2061 252.808 40.0511 254.564 41.7412C256.384 43.4312 257.294 45.6738 257.294 48.4688C257.294 51.2639 256.384 53.5389 254.564 55.294C252.808 56.984 250.468 57.829 247.543 57.829C244.683 57.829 242.343 56.984 240.523 55.294C238.768 53.5389 237.891 51.2639 237.891 48.4688ZM268.02 63.4841H282.548L282.743 70.4068C285.018 67.8067 287.488 65.8892 290.153 64.6542C292.818 63.3541 295.873 62.7041 299.319 62.7041C305.039 62.7041 309.589 64.5242 312.969 68.1642C316.349 71.8043 318.039 76.5494 318.039 82.3995V113.795H302.146V86.6896C302.146 80.0595 299.351 76.7444 293.761 76.7444C290.641 76.7444 288.203 77.7194 286.448 79.6695C284.758 81.6195 283.913 84.2521 283.913 87.5672V113.795H268.02V63.4841ZM355.455 115.063C349.799 115.063 344.827 113.958 340.537 111.748C336.247 109.538 332.932 106.45 330.592 102.485C328.251 98.5199 327.081 93.9373 327.081 88.7372C327.081 83.6021 328.186 79.0195 330.397 74.9894C332.672 70.9593 335.857 67.8392 339.952 65.6292C344.047 63.3541 348.694 62.2166 353.895 62.2166C359.095 62.2166 363.71 63.3541 367.74 65.6292C371.77 67.9042 374.89 71.0568 377.1 75.0869C379.31 79.117 380.415 83.6671 380.415 88.7372C380.415 90.3622 380.253 92.2473 379.928 94.3923H342.389C343.169 97.0574 344.794 99.1699 347.264 100.73C349.799 102.225 352.92 102.972 356.625 102.972C362.15 102.972 367.187 101.315 371.737 97.9999L377.88 107.945C375.02 110.22 371.672 111.975 367.837 113.21C364.002 114.445 359.875 115.063 355.455 115.063ZM365.79 84.2521C365.14 81.262 363.775 78.8895 361.695 77.1344C359.68 75.3144 357.112 74.4044 353.992 74.4044C350.937 74.4044 348.337 75.3144 346.192 77.1344C344.112 78.8895 342.779 81.262 342.194 84.2521H365.79ZM406.775 71.7718V113.795H390.2V45.5437H405.02L426.275 74.5019L447.628 45.5437H462.546V113.795H445.873V71.7718L430.078 93.8073H422.57L406.775 71.7718ZM489.924 114.478C484.724 114.478 480.531 113.048 477.346 110.188C474.226 107.263 472.666 103.46 472.666 98.7799C472.666 93.5148 474.616 89.3872 478.516 86.3971C482.481 83.4071 487.876 81.912 494.701 81.912C498.601 81.912 502.534 82.432 506.499 83.4721V82.2045C506.499 79.5395 505.622 77.5894 503.866 76.3544C502.176 75.1194 499.446 74.5019 495.676 74.5019C493.141 74.5019 490.639 74.8269 488.169 75.4769C485.764 76.0619 483.001 77.0044 479.881 78.3045L476.078 67.2867C479.978 65.5317 483.554 64.2967 486.804 63.5816C490.119 62.8016 493.791 62.4116 497.821 62.4116C505.297 62.4116 511.049 64.1667 515.079 67.6767C519.109 71.1868 521.124 76.1269 521.124 82.4971V113.795H507.377L507.084 107.653C505.004 109.733 502.436 111.39 499.381 112.625C496.391 113.86 493.239 114.478 489.924 114.478ZM487.974 97.9999C487.974 99.7549 488.559 101.12 489.729 102.095C490.899 103.005 492.589 103.46 494.799 103.46C498.049 103.46 500.779 102.55 502.989 100.73C505.199 98.8449 506.434 96.5049 506.694 93.7098C502.859 92.6048 499.544 92.0523 496.749 92.0523C493.889 92.0523 491.711 92.5723 490.216 93.6123C488.721 94.5873 487.974 96.0498 487.974 97.9999Z" fill="white"/>
<rect x="4.97376" y="53.8171" width="124.162" height="20.1767" fill="white" stroke="#0F101C" stroke-width="3.97436"/>
<mask id="mask0_221_1212" style="mask-type:alpha" maskUnits="userSpaceOnUse" x="5" y="55" width="124" height="17">
<rect x="6.46359" y="55.5528" width="121.18" height="15.8974" fill="#D9D9D9" stroke="#C22525" stroke-width="0.993589"/>
</mask>
<g mask="url(#mask0_221_1212)">
<path d="M47.2008 55.0562H31.208L20.3358 74.5944H36.4267L47.2008 55.0562Z" fill="#0F101C"/>
<path d="M20.2656 74.7204L20.3358 74.5944M20.3358 74.5944L31.208 55.0562H47.2008L36.4267 74.5944H20.3358Z" stroke="#0F101C" stroke-width="0.993589"/>
<path d="M14.9577 55.0562H-1.03512L-11.9074 74.5944H4.18358L14.9577 55.0562Z" fill="#0F101C"/>
<path d="M-11.9775 74.7204L-11.9074 74.5944M-11.9074 74.5944L-1.03512 55.0562H14.9577L4.18358 74.5944H-11.9074Z" stroke="#0F101C" stroke-width="0.993589"/>
<path d="M111.677 55.0562H95.6846L84.8123 74.5944H100.903L111.677 55.0562Z" fill="#0F101C"/>
<path d="M84.7422 74.7204L84.8123 74.5944M84.8123 74.5944L95.6846 55.0562H111.677L100.903 74.5944H84.8123Z" stroke="#0F101C" stroke-width="0.993589"/>
<path d="M144.001 55.0562H128.008L117.136 74.5944H133.227L144.001 55.0562Z" fill="#0F101C"/>
<path d="M117.065 74.7204L117.136 74.5944M117.136 74.5944L128.008 55.0562H144.001L133.227 74.5944H117.136Z" stroke="#0F101C" stroke-width="0.993589"/>
<path d="M79.525 55.0562H63.5323L52.66 74.5944H68.751L79.525 55.0562Z" fill="#0F101C"/>
<path d="M52.5898 74.7204L52.66 74.5944M52.66 74.5944L63.5323 55.0562H79.525L68.751 74.5944H52.66Z" stroke="#0F101C" stroke-width="0.993589"/>
</g>
<path d="M7.00857 51.5798L5.08876 52.0928L4.57574 50.173L2.44498 42.1992C1.02832 36.8978 4.17754 31.4517 9.47897 30.0351L110.234 3.11131C115.535 1.69466 120.981 4.84389 122.398 10.1453L124.528 18.1191L125.041 20.0389L123.122 20.5519L7.00857 51.5798Z" fill="white" stroke="#0F101C" stroke-width="3.97436"/>
<mask id="mask1_221_1212" style="mask-type:alpha" maskUnits="userSpaceOnUse" x="2" y="3" width="122" height="49">
<path d="M121.084 9.08136C119.951 4.84022 115.594 2.32084 111.353 3.45416L8.67894 30.8908C4.4378 32.0242 1.91842 36.381 3.05174 40.6222L5.88828 51.2371L123.921 19.6963L121.084 9.08136Z" fill="#D9D9D9"/>
</mask>
<g mask="url(#mask1_221_1212)">
<path d="M78.7201 12.1742L94.1707 8.04545L110.329 26.3999L94.7836 30.5539L78.7201 12.1742Z" fill="#0F101C"/>
<path d="M110.11 3.78631L125.56 -0.342432L141.719 18.012L126.173 22.1661L110.11 3.78631Z" fill="#0F101C"/>
<path d="M16.43 28.8196L31.8807 24.6908L48.0391 43.0452L32.4936 47.1993L16.43 28.8196Z" fill="#0F101C"/>
<path d="M-14.7965 37.1637L0.654097 33.035L16.8125 51.3894L1.26704 55.5435L-14.7965 37.1637Z" fill="#0F101C"/>
<path d="M47.4935 20.5184L62.9441 16.3896L79.1026 34.744L63.5571 38.8981L47.4935 20.5184Z" fill="#0F101C"/>
</g>
<path d="M6.96094 72.9405H4.97376V74.9277V116.658C4.97376 128.731 14.7603 138.517 26.8327 138.517H107.313C119.386 138.517 129.172 128.731 129.172 116.658V74.9277V72.9405H127.185H6.96094Z" fill="#0F101C" stroke="#0F101C" stroke-width="3.97436"/>
<line x1="20.3751" y1="85.3606" x2="112.779" y2="85.3606" stroke="white" stroke-width="2.98077" stroke-linecap="round"/>
<line x1="20.3751" y1="100.264" x2="112.779" y2="100.264" stroke="white" stroke-width="2.98077" stroke-linecap="round"/>
<line x1="20.3751" y1="115.168" x2="91.9136" y2="115.168" stroke="white" stroke-width="2.98077" stroke-linecap="round"/>
</svg>
