<svg width="527" height="87" viewBox="0 0 527 87" fill="none" xmlns="http://www.w3.org/2000/svg">
<circle cx="44.0007" cy="43.5007" r="43.5007" fill="white"/>
<circle cx="44.0014" cy="43.5008" r="25.7924" fill="#D1DAD3"/>
<path d="M139.69 50.7034C140.762 51.4865 141.298 52.723 141.298 54.4128C141.298 56.0614 140.927 57.4833 140.185 58.6785C139.484 59.8325 138.433 60.8629 137.032 61.7696C134.023 63.7067 129.881 64.6753 124.606 64.6753C119.371 64.6753 115.312 63.3152 112.427 60.595C109.583 57.8336 108.161 54.0212 108.161 49.1579C108.161 42.275 109.954 36.2164 113.539 30.9821C116.26 27.1079 120.051 24.3465 124.915 22.6979C127.429 21.8736 129.922 21.4615 132.395 21.4615C134.868 21.4615 136.867 21.6263 138.392 21.9561C139.917 22.2858 141.256 22.7804 142.41 23.4398C144.925 24.8823 146.182 26.7576 146.182 29.0656C146.182 31.1676 145.192 33.0016 143.214 34.5678C141.401 35.9691 139.752 36.6698 138.268 36.6698C136.785 36.6698 135.734 36.5667 135.115 36.3607C135.28 34.8769 135.363 33.6611 135.363 32.7131C135.363 31.724 135.342 30.8791 135.301 30.1784C135.26 29.4778 135.136 28.7977 134.93 28.1383C134.518 26.6133 133.673 25.8509 132.395 25.8509C131.159 25.8509 129.902 26.4485 128.624 27.6437C127.388 28.7977 126.234 30.3639 125.162 32.3422C122.73 36.8346 121.514 41.7392 121.514 47.0559C121.514 49.6113 122.236 51.6308 123.678 53.1145C125.121 54.557 127.388 55.2783 130.479 55.2783C132.787 55.2783 135.033 54.5158 137.217 52.9909C138.165 52.3314 138.99 51.569 139.69 50.7034ZM159.897 64.7371C150.83 64.7371 146.297 60.4714 146.297 51.9399C146.297 45.8813 147.966 40.8943 151.304 36.9789C154.849 32.8162 159.691 30.7348 165.832 30.7348C170.284 30.7348 173.643 31.7652 175.909 33.8259C178.176 35.8867 179.31 39.0808 179.31 43.4084C179.31 50.0028 177.537 55.2165 173.993 59.0495C170.531 62.8412 165.832 64.7371 159.897 64.7371ZM161.505 37.8444C161.01 38.9572 160.557 40.3585 160.145 42.0483C159.774 43.6969 159.341 45.8401 158.846 48.4778C158.352 51.1156 158.105 54.0625 158.105 57.3184C158.105 58.39 158.269 59.2761 158.599 59.9768C158.97 60.6775 159.63 61.0278 160.577 61.0278C161.525 61.0278 162.288 60.8011 162.865 60.3477C163.483 59.8944 164.019 59.1319 164.472 58.0603C165.297 56.1644 166.038 53.4648 166.698 49.9616C167.357 46.4171 167.708 43.8824 167.749 42.3574C167.831 40.8325 167.873 39.5136 167.873 38.4008C167.873 37.2468 167.708 36.2988 167.378 35.557C167.048 34.8151 166.409 34.4442 165.461 34.4442C164.555 34.4442 163.792 34.7327 163.174 35.3097C162.556 35.8867 161.999 36.7316 161.505 37.8444ZM196.423 64.7371C187.356 64.7371 182.822 60.4714 182.822 51.9399C182.822 45.8813 184.492 40.8943 187.83 36.9789C191.375 32.8162 196.217 30.7348 202.358 30.7348C206.809 30.7348 210.168 31.7652 212.435 33.8259C214.702 35.8867 215.836 39.0808 215.836 43.4084C215.836 50.0028 214.063 55.2165 210.519 59.0495C207.057 62.8412 202.358 64.7371 196.423 64.7371ZM198.031 37.8444C197.536 38.9572 197.083 40.3585 196.671 42.0483C196.3 43.6969 195.867 45.8401 195.372 48.4778C194.878 51.1156 194.63 54.0625 194.63 57.3184C194.63 58.39 194.795 59.2761 195.125 59.9768C195.496 60.6775 196.155 61.0278 197.103 61.0278C198.051 61.0278 198.814 60.8011 199.391 60.3477C200.009 59.8944 200.545 59.1319 200.998 58.0603C201.822 56.1644 202.564 53.4648 203.224 49.9616C203.883 46.4171 204.234 43.8824 204.275 42.3574C204.357 40.8325 204.398 39.5136 204.398 38.4008C204.398 37.2468 204.234 36.2988 203.904 35.557C203.574 34.8151 202.935 34.4442 201.987 34.4442C201.081 34.4442 200.318 34.7327 199.7 35.3097C199.082 35.8867 198.525 36.7316 198.031 37.8444ZM235.422 34.1969C237.648 31.8888 241.11 30.7348 245.808 30.7348C248.405 30.7348 250.404 31.4355 251.805 32.8368C253.248 34.1969 253.969 36.1546 253.969 38.7099C253.969 41.224 253.248 43.3878 251.805 45.2013C250.404 46.9735 248.384 48.2306 245.746 48.9724C245.953 49.7967 246.2 50.6416 246.488 51.5071L247.354 53.98C248.137 56.082 248.838 57.5039 249.456 58.2458C250.074 58.9876 250.795 59.4822 251.62 59.7295C251.166 61.4193 250.115 62.7176 248.467 63.6243C247.148 64.3662 245.582 64.7371 243.768 64.7371C238.451 64.7371 235.443 60.6362 234.742 52.4345C234.618 51.2805 234.557 50.1264 234.557 48.9724C236.617 48.3954 238.369 47.1384 239.812 45.2013C241.254 43.2642 241.975 41.1622 241.975 38.8954C241.975 36.6286 241.172 35.4951 239.564 35.4951C238.41 35.4951 237.38 36.134 236.473 37.4116C235.566 38.6893 234.907 40.4203 234.495 42.6047L230.415 63.5007L217.926 64.7371L226.582 20.225L239.008 18.9886L237.586 26.3454C236.968 29.8075 236.246 32.4246 235.422 34.1969ZM282.624 53.98C283.408 54.9692 283.799 56.4323 283.799 58.3694C283.799 60.2653 283.057 61.8109 281.573 63.0061C280.131 64.1601 278.132 64.7371 275.577 64.7371C274.093 64.7371 272.197 64.5723 269.889 64.2425C265.355 63.5419 262.429 63.1916 261.11 63.1916C259.833 63.1916 258.926 63.2328 258.39 63.3152C257.854 63.3564 257.154 63.4182 256.288 63.5007L263.769 22.6979H277.308L271.125 56.7002C271.661 56.7826 272.176 56.8239 272.671 56.8239H274.217C277.679 56.8239 280.481 55.8759 282.624 53.98ZM290.594 61.646C289.646 60.5744 288.945 59.1937 288.492 57.5039C288.08 55.8141 287.874 53.5885 287.874 50.8271C287.874 48.0657 288.348 45.4279 289.295 42.9138C290.243 40.3997 291.583 38.2359 293.314 36.4225C296.858 32.6307 301.557 30.7348 307.409 30.7348C309.511 30.7348 311.325 31.0852 312.85 31.7858L323.421 30.7348L318.847 54.8455C318.723 55.3401 318.661 56.0408 318.661 56.9475C318.661 57.8542 318.929 58.5961 319.465 59.1731C320.042 59.7501 320.742 60.0798 321.567 60.1623C321.155 61.5636 320.186 62.6764 318.661 63.5007C317.177 64.325 315.591 64.7371 313.901 64.7371C312.211 64.7371 310.789 64.4074 309.635 63.748C308.522 63.1297 307.801 62.2848 307.471 61.2132C306.812 62.2436 305.781 63.0885 304.38 63.748C302.979 64.4074 301.33 64.7371 299.434 64.7371C297.58 64.7371 295.89 64.4898 294.365 63.9953C292.84 63.5007 291.583 62.7176 290.594 61.646ZM303.638 36.5461C303.185 37.288 302.752 38.2978 302.34 39.5754C301.928 40.8119 301.371 43.1199 300.671 46.4995C300.011 49.8379 299.682 52.7024 299.682 55.0928C299.682 57.4833 299.867 59.0289 300.238 59.7295C300.609 60.4302 301.124 60.7805 301.784 60.7805C303.102 60.7805 304.236 60.1623 305.184 58.9258C306.173 57.6482 306.853 55.8965 307.224 53.6709L310.501 35.557C309.635 34.8151 308.687 34.4442 307.657 34.4442C306.668 34.4442 305.864 34.609 305.246 34.9387C304.669 35.2685 304.133 35.8043 303.638 36.5461ZM325.952 60.5332L333.618 20.225L346.168 18.9886L344.251 28.4474C343.798 30.3845 343.283 32.0331 342.706 33.3932C343.612 32.2392 345.055 31.4355 347.033 30.9821C347.61 30.8173 348.249 30.7348 348.95 30.7348C352.783 30.7348 355.75 31.9095 357.852 34.2587C359.954 36.5667 361.005 39.967 361.005 44.4594C361.005 50.3119 359.336 55.0722 355.997 58.7404C352.412 62.7382 347.363 64.7371 340.851 64.7371C336.359 64.7371 332.422 63.9953 329.043 62.5115C327.848 61.9757 326.817 61.3163 325.952 60.5332ZM338.378 59.9768C339.244 60.7187 340.212 61.0896 341.284 61.0896C342.355 61.0896 343.2 60.8835 343.818 60.4714C344.437 60.0592 344.972 59.441 345.426 58.6167C346.662 56.3911 347.775 51.8781 348.764 45.0776C349.053 43.1405 349.197 41.2034 349.197 39.2663C349.197 37.3292 348.97 36.0516 348.517 35.4333C348.105 34.8151 347.487 34.506 346.662 34.506C344.148 34.506 342.479 36.9583 341.655 41.8629L338.378 59.9768ZM378.208 64.7371C369.14 64.7371 364.607 60.4714 364.607 51.9399C364.607 45.8813 366.276 40.8943 369.614 36.9789C373.159 32.8162 378.001 30.7348 384.143 30.7348C388.594 30.7348 391.953 31.7652 394.22 33.8259C396.486 35.8867 397.62 39.0808 397.62 43.4084C397.62 50.0028 395.848 55.2165 392.303 59.0495C388.841 62.8412 384.143 64.7371 378.208 64.7371ZM379.815 37.8444C379.32 38.9572 378.867 40.3585 378.455 42.0483C378.084 43.6969 377.651 45.8401 377.157 48.4778C376.662 51.1156 376.415 54.0625 376.415 57.3184C376.415 58.39 376.58 59.2761 376.909 59.9768C377.28 60.6775 377.94 61.0278 378.888 61.0278C379.836 61.0278 380.598 60.8011 381.175 60.3477C381.793 59.8944 382.329 59.1319 382.782 58.0603C383.607 56.1644 384.349 53.4648 385.008 49.9616C385.667 46.4171 386.018 43.8824 386.059 42.3574C386.141 40.8325 386.183 39.5136 386.183 38.4008C386.183 37.2468 386.018 36.2988 385.688 35.557C385.358 34.8151 384.72 34.4442 383.772 34.4442C382.865 34.4442 382.102 34.7327 381.484 35.3097C380.866 35.8867 380.31 36.7316 379.815 37.8444ZM420.607 46.1286C422.09 43.4908 422.832 40.8325 422.832 38.1535C422.832 36.3813 422.193 35.4951 420.916 35.4951C419.927 35.4951 418.917 36.3401 417.886 38.0299C416.815 39.7197 416.114 41.6568 415.784 43.8412L412.57 63.5007L399.772 64.7371L406.078 31.9713L416.279 30.7348L415.166 36.9789C417.186 32.8162 420.462 30.7348 424.996 30.7348C427.386 30.7348 429.221 31.3531 430.498 32.5895C431.817 33.8259 432.476 35.7218 432.476 38.2772C432.476 40.7913 431.632 42.852 429.942 44.4594C428.293 46.0668 426.047 46.8705 423.203 46.8705C421.967 46.8705 421.101 46.6232 420.607 46.1286ZM436.154 61.646C435.206 60.5744 434.505 59.1937 434.052 57.5039C433.64 55.8141 433.434 53.5885 433.434 50.8271C433.434 48.0657 433.908 45.4279 434.856 42.9138C435.804 40.3997 437.143 38.2359 438.874 36.4225C442.419 32.6307 447.117 30.7348 452.97 30.7348C455.072 30.7348 456.885 31.0852 458.41 31.7858L468.982 30.7348L464.407 54.8455C464.283 55.3401 464.221 56.0408 464.221 56.9475C464.221 57.8542 464.489 58.5961 465.025 59.1731C465.602 59.7501 466.303 60.0798 467.127 60.1623C466.715 61.5636 465.746 62.6764 464.221 63.5007C462.738 64.325 461.151 64.7371 459.461 64.7371C457.771 64.7371 456.349 64.4074 455.195 63.748C454.082 63.1297 453.361 62.2848 453.031 61.2132C452.372 62.2436 451.342 63.0885 449.94 63.748C448.539 64.4074 446.89 64.7371 444.995 64.7371C443.14 64.7371 441.45 64.4898 439.925 63.9953C438.4 63.5007 437.143 62.7176 436.154 61.646ZM449.198 36.5461C448.745 37.288 448.312 38.2978 447.9 39.5754C447.488 40.8119 446.932 43.1199 446.231 46.4995C445.572 49.8379 445.242 52.7024 445.242 55.0928C445.242 57.4833 445.427 59.0289 445.798 59.7295C446.169 60.4302 446.684 60.7805 447.344 60.7805C448.663 60.7805 449.796 60.1623 450.744 58.9258C451.733 57.6482 452.413 55.8965 452.784 53.6709L456.061 35.557C455.195 34.8151 454.247 34.4442 453.217 34.4442C452.228 34.4442 451.424 34.609 450.806 34.9387C450.229 35.2685 449.693 35.8043 449.198 36.5461ZM473.305 57.3184C473.305 56.2056 473.593 54.2479 474.17 51.4453L477.447 34.7533H473.799L474.047 32.8986C478.992 31.4149 483.856 28.8596 488.637 25.2326H491.604L490.12 31.9713H494.943L494.386 34.7533H489.626L486.473 51.4453C485.937 54.0006 485.669 55.7111 485.669 56.5766C485.669 58.5549 486.535 59.7501 488.266 60.1623C487.854 61.5636 486.906 62.6764 485.422 63.5007C483.938 64.325 482.145 64.7371 480.043 64.7371C477.941 64.7371 476.293 64.0777 475.098 62.7588C473.902 61.4399 473.305 59.6265 473.305 57.3184ZM519.45 53.0527C520.481 53.7533 520.996 54.8868 520.996 56.4529C520.996 57.9779 520.604 59.2349 519.821 60.2241C519.038 61.2132 518.008 62.0375 516.73 62.697C514.092 64.0571 511.352 64.7371 508.508 64.7371C505.664 64.7371 503.397 64.428 501.707 63.8098C500.059 63.1916 498.678 62.3054 497.565 61.1514C495.381 58.967 494.289 55.8759 494.289 51.8781C494.289 45.6546 495.979 40.647 499.358 36.8552C502.985 32.775 507.951 30.7348 514.257 30.7348C518.173 30.7348 521.099 31.5591 523.036 33.2077C524.479 34.4442 525.2 36.0722 525.2 38.0917C525.2 45.3455 518.935 48.9724 506.406 48.9724C506.241 50.044 506.159 51.0332 506.159 51.9399C506.159 53.8358 506.571 55.1547 507.395 55.8965C508.261 56.5972 509.476 56.9475 511.043 56.9475C512.609 56.9475 514.216 56.5972 515.865 55.8965C517.555 55.1547 518.75 54.2067 519.45 53.0527ZM506.839 46.3141C509.765 46.3141 512.073 45.4073 513.763 43.5939C515.453 41.8629 516.297 39.6166 516.297 36.8552C516.297 35.9073 516.112 35.186 515.741 34.6915C515.411 34.1557 514.896 33.8878 514.195 33.8878C513.495 33.8878 512.835 34.032 512.217 34.3205C511.64 34.5678 511.043 35.1448 510.424 36.0515C508.899 38.1123 507.704 41.5331 506.839 46.3141Z" fill="white"/>
<path d="M139.69 50.7034L139.952 50.3456L139.611 50.0968L139.346 50.4246L139.69 50.7034ZM140.185 58.6785L139.808 58.4448L139.806 58.4485L140.185 58.6785ZM137.032 61.7696L137.272 62.1423L137.273 62.1417L137.032 61.7696ZM112.427 60.595L112.118 60.913L112.123 60.9175L112.427 60.595ZM113.539 30.9821L113.177 30.7274L113.174 30.7317L113.539 30.9821ZM124.915 22.6979L124.777 22.2768L124.772 22.2782L124.915 22.6979ZM138.392 21.9561L138.486 21.5229L138.486 21.5229L138.392 21.9561ZM142.41 23.4398L142.631 23.0554L142.63 23.055L142.41 23.4398ZM143.214 34.5678L143.485 34.9185L143.489 34.9153L143.214 34.5678ZM135.115 36.3607L134.675 36.3117L134.635 36.6678L134.975 36.7811L135.115 36.3607ZM135.301 30.1784L135.743 30.1524L135.743 30.1524L135.301 30.1784ZM134.93 28.1383L134.502 28.2539L134.504 28.2622L134.507 28.2705L134.93 28.1383ZM128.624 27.6437L128.926 27.9677L128.927 27.9673L128.624 27.6437ZM125.162 32.3422L124.772 32.1311L124.772 32.1313L125.162 32.3422ZM123.678 53.1145L123.36 53.4235L123.365 53.4279L123.678 53.1145ZM137.217 52.9909L136.964 52.6271L136.964 52.6275L137.217 52.9909ZM139.429 51.0613C140.356 51.7385 140.854 52.8216 140.854 54.4128H141.741C141.741 52.6243 141.168 51.2346 139.952 50.3456L139.429 51.0613ZM140.854 54.4128C140.854 55.9932 140.5 57.3311 139.808 58.4448L140.561 58.9122C141.354 57.6355 141.741 56.1296 141.741 54.4128H140.854ZM139.806 58.4485C139.147 59.5335 138.149 60.5188 136.791 61.3976L137.273 62.1417C138.717 61.207 139.821 60.1316 140.564 58.9085L139.806 58.4485ZM136.792 61.397C133.881 63.2711 129.834 64.2321 124.606 64.2321V65.1185C129.928 65.1185 134.165 64.1424 137.272 62.1423L136.792 61.397ZM124.606 64.2321C119.447 64.2321 115.51 62.893 112.731 60.2726L112.123 60.9175C115.113 63.7374 119.295 65.1185 124.606 65.1185V64.2321ZM112.735 60.2771C109.996 57.6174 108.604 53.9305 108.604 49.1579H107.718C107.718 54.112 109.169 58.0498 112.118 60.913L112.735 60.2771ZM108.604 49.1579C108.604 42.3564 110.374 36.3868 113.905 31.2326L113.174 30.7317C109.533 36.046 107.718 42.1936 107.718 49.1579H108.604ZM113.902 31.2368C116.564 27.4462 120.275 24.7387 125.057 23.1176L124.772 22.2782C119.828 23.9543 115.956 26.7696 113.177 30.7275L113.902 31.2368ZM125.053 23.119C127.525 22.3083 129.972 21.9046 132.395 21.9046V21.0183C129.872 21.0183 127.332 21.4389 124.777 22.2768L125.053 23.119ZM132.395 21.9046C134.853 21.9046 136.817 22.0688 138.298 22.3892L138.486 21.5229C136.917 21.1838 134.884 21.0183 132.395 21.0183V21.9046ZM138.298 22.3892C139.786 22.711 141.082 23.1911 142.191 23.8246L142.63 23.055C141.431 22.3696 140.047 21.8606 138.486 21.5229L138.298 22.3892ZM142.19 23.8242C144.607 25.2112 145.738 26.9586 145.738 29.0656H146.625C146.625 26.5566 145.242 24.5534 142.631 23.0554L142.19 23.8242ZM145.738 29.0656C145.738 31.0046 144.835 32.7195 142.939 34.2204L143.489 34.9153C145.55 33.2838 146.625 31.3306 146.625 29.0656H145.738ZM142.943 34.2171C141.167 35.5893 139.613 36.2266 138.268 36.2266V37.1129C139.891 37.1129 141.634 36.349 143.485 34.9185L142.943 34.2171ZM138.268 36.2266C136.787 36.2266 135.8 36.1216 135.256 35.9402L134.975 36.7811C135.668 37.0118 136.782 37.1129 138.268 37.1129V36.2266ZM135.556 36.4096C135.722 34.9177 135.806 33.6839 135.806 32.7131H134.919C134.919 33.6382 134.839 34.8362 134.675 36.3117L135.556 36.4096ZM135.806 32.7131C135.806 31.7185 135.785 30.8644 135.743 30.1524L134.858 30.2045C134.899 30.8937 134.919 31.7295 134.919 32.7131H135.806ZM135.743 30.1524C135.7 29.4163 135.57 28.7006 135.353 28.0061L134.507 28.2705C134.702 28.8949 134.819 29.5393 134.858 30.2045L135.743 30.1524ZM135.358 28.0227C135.138 27.2087 134.79 26.5501 134.284 26.0937C133.77 25.6298 133.129 25.4077 132.395 25.4077V26.294C132.939 26.294 133.359 26.4531 133.69 26.7517C134.029 27.0578 134.31 27.5429 134.502 28.2539L135.358 28.0227ZM132.395 25.4077C131.007 25.4077 129.647 26.0799 128.321 27.3201L128.927 27.9673C130.156 26.817 131.31 26.294 132.395 26.294V25.4077ZM128.322 27.3197C127.041 28.5152 125.86 30.1238 124.772 32.1311L125.552 32.5533C126.607 30.604 127.734 29.0803 128.926 27.9677L128.322 27.3197ZM124.772 32.1313C122.304 36.6911 121.071 41.6687 121.071 47.0559H121.958C121.958 41.8098 123.157 36.9781 125.552 32.5532L124.772 32.1313ZM121.071 47.0559C121.071 49.698 121.82 51.8385 123.36 53.4234L123.996 52.8056C122.652 51.423 121.958 49.5245 121.958 47.0559H121.071ZM123.365 53.4279C124.925 54.9878 127.33 55.7215 130.479 55.7215V54.8351C127.446 54.8351 125.317 54.1262 123.992 52.8012L123.365 53.4279ZM130.479 55.7215C132.891 55.7215 135.224 54.9229 137.471 53.3542L136.964 52.6275C134.842 54.1088 132.683 54.8351 130.479 54.8351V55.7215ZM137.47 53.3547C138.451 52.6722 139.307 51.8815 140.035 50.9823L139.346 50.4246C138.672 51.2564 137.879 51.9906 136.964 52.6271L137.47 53.3547ZM151.304 36.9789L151.641 37.2664L151.642 37.2662L151.304 36.9789ZM175.909 33.8259L176.208 33.498L175.909 33.8259ZM173.993 59.0495L173.668 58.7486L173.666 58.7507L173.993 59.0495ZM161.505 37.8444L161.1 37.6644L161.505 37.8444ZM160.145 42.0483L159.714 41.9433L159.712 41.951L160.145 42.0483ZM158.846 48.4778L158.411 48.3962L158.411 48.3962L158.846 48.4778ZM158.599 59.9768L158.198 60.1655L158.203 60.1749L158.208 60.1841L158.599 59.9768ZM162.865 60.3477L162.603 59.9904L162.597 59.9947L162.591 59.9993L162.865 60.3477ZM164.472 58.0603L164.066 57.8836L164.064 57.8876L164.472 58.0603ZM166.698 49.9616L167.133 50.0436L167.134 50.0426L166.698 49.9616ZM167.749 42.3574L167.306 42.3335L167.306 42.3455L167.749 42.3574ZM167.378 35.557L166.973 35.737L166.973 35.737L167.378 35.557ZM163.174 35.3097L163.476 35.6337L163.476 35.6337L163.174 35.3097ZM159.897 64.294C155.426 64.294 152.154 63.2415 150 61.2151C147.852 59.1933 146.74 56.1302 146.74 51.9399H145.853C145.853 56.2811 147.008 59.6165 149.393 61.8606C151.773 64.0998 155.302 65.1803 159.897 65.1803V64.294ZM146.74 51.9399C146.74 45.967 148.383 41.0878 151.641 37.2664L150.967 36.6914C147.548 40.7008 145.853 45.7956 145.853 51.9399H146.74ZM151.642 37.2662C155.091 33.2153 159.803 31.178 165.832 31.178V30.2917C159.579 30.2917 154.606 32.4171 150.967 36.6916L151.642 37.2662ZM165.832 31.178C170.223 31.178 173.456 32.1948 175.611 34.1539L176.208 33.498C173.829 31.3356 170.345 30.2917 165.832 30.2917V31.178ZM175.611 34.1539C177.753 36.1006 178.866 39.1528 178.866 43.4084H179.753C179.753 39.0089 178.6 35.6728 176.208 33.498L175.611 34.1539ZM178.866 43.4084C178.866 49.9218 177.118 55.0174 173.668 58.7486L174.318 59.3503C177.957 55.4155 179.753 50.0838 179.753 43.4084H178.866ZM173.666 58.7507C170.301 62.4358 165.729 64.294 159.897 64.294V65.1803C165.936 65.1803 170.761 63.2467 174.32 59.3483L173.666 58.7507ZM161.1 37.6644C160.591 38.8092 160.13 40.2377 159.714 41.9433L160.575 42.1533C160.984 40.4793 161.429 39.1052 161.91 38.0244L161.1 37.6644ZM159.712 41.951C159.34 43.6069 158.906 45.7558 158.411 48.3962L159.282 48.5595C159.776 45.9243 160.208 43.7869 160.577 42.1456L159.712 41.951ZM158.411 48.3962C157.91 51.0658 157.661 54.0406 157.661 57.3184H158.548C158.548 54.0843 158.793 51.1654 159.282 48.5595L158.411 48.3962ZM157.661 57.3184C157.661 58.4317 157.832 59.3877 158.198 60.1655L159 59.7881C158.707 59.1646 158.548 58.3483 158.548 57.3184H157.661ZM158.208 60.1841C158.672 61.0611 159.504 61.4709 160.577 61.4709V60.5846C159.755 60.5846 159.268 60.2938 158.991 59.7694L158.208 60.1841ZM160.577 61.4709C161.595 61.4709 162.463 61.2268 163.139 60.6962L162.591 59.9993C162.112 60.3754 161.455 60.5846 160.577 60.5846V61.4709ZM163.127 60.7051C163.835 60.1861 164.411 59.343 164.88 58.233L164.064 57.8876C163.627 58.9208 163.132 59.6027 162.603 59.9904L163.127 60.7051ZM164.879 58.237C165.722 56.2966 166.472 53.5596 167.133 50.0436L166.262 49.8796C165.605 53.3701 164.871 56.0322 164.066 57.8836L164.879 58.237ZM167.134 50.0426C167.793 46.4977 168.15 43.9326 168.192 42.3694L167.306 42.3455C167.266 43.8322 166.922 46.3365 166.262 49.8805L167.134 50.0426ZM168.191 42.3813C168.274 40.8511 168.316 39.5239 168.316 38.4008H167.429C167.429 39.5033 167.389 40.8138 167.306 42.3335L168.191 42.3813ZM168.316 38.4008C168.316 37.209 168.146 36.1941 167.783 35.377L166.973 35.737C167.269 36.4036 167.429 37.2846 167.429 38.4008H168.316ZM167.783 35.377C167.584 34.9297 167.282 34.5761 166.874 34.3391C166.47 34.1048 165.992 34.001 165.461 34.001V34.8873C165.879 34.8873 166.194 34.969 166.429 35.1056C166.66 35.2396 166.842 35.4424 166.973 35.737L167.783 35.377ZM165.461 34.001C164.451 34.001 163.578 34.3263 162.872 34.9857L163.476 35.6337C164.006 35.1391 164.658 34.8873 165.461 34.8873V34.001ZM162.872 34.9857C162.195 35.6171 161.609 36.5192 161.1 37.6644L161.91 38.0244C162.39 36.9439 162.916 36.1563 163.476 35.6337L162.872 34.9857ZM187.83 36.9789L188.167 37.2664L188.167 37.2662L187.83 36.9789ZM212.435 33.8259L212.733 33.498L212.435 33.8259ZM210.519 59.0495L210.193 58.7486L210.192 58.7507L210.519 59.0495ZM198.031 37.8444L197.626 37.6644L198.031 37.8444ZM196.671 42.0483L196.24 41.9433L196.238 41.951L196.671 42.0483ZM195.372 48.4778L194.937 48.3962L194.937 48.3962L195.372 48.4778ZM195.125 59.9768L194.724 60.1655L194.729 60.1749L194.733 60.1841L195.125 59.9768ZM199.391 60.3477L199.129 59.9904L199.123 59.9947L199.117 59.9993L199.391 60.3477ZM200.998 58.0603L200.592 57.8836L200.59 57.8876L200.998 58.0603ZM203.224 49.9616L203.659 50.0436L203.659 50.0426L203.224 49.9616ZM204.275 42.3574L203.832 42.3335L203.832 42.3455L204.275 42.3574ZM203.904 35.557L203.499 35.737L203.499 35.737L203.904 35.557ZM199.7 35.3097L200.002 35.6337L200.002 35.6337L199.7 35.3097ZM196.423 64.294C191.952 64.294 188.68 63.2415 186.526 61.2151C184.378 59.1933 183.266 56.1302 183.266 51.9399H182.379C182.379 56.2811 183.534 59.6165 185.919 61.8606C188.299 64.0998 191.828 65.1803 196.423 65.1803V64.294ZM183.266 51.9399C183.266 45.967 184.909 41.0878 188.167 37.2664L187.493 36.6914C184.074 40.7008 182.379 45.7956 182.379 51.9399H183.266ZM188.167 37.2662C191.617 33.2153 196.329 31.178 202.358 31.178V30.2917C196.105 30.2917 191.132 32.4171 187.493 36.6916L188.167 37.2662ZM202.358 31.178C206.749 31.178 209.982 32.1948 212.137 34.1539L212.733 33.498C210.355 31.3356 206.87 30.2917 202.358 30.2917V31.178ZM212.137 34.1539C214.279 36.1006 215.392 39.1528 215.392 43.4084H216.279C216.279 39.0089 215.126 35.6728 212.733 33.498L212.137 34.1539ZM215.392 43.4084C215.392 49.9218 213.644 55.0174 210.193 58.7486L210.844 59.3503C214.483 55.4155 216.279 50.0838 216.279 43.4084H215.392ZM210.192 58.7507C206.827 62.4358 202.255 64.294 196.423 64.294V65.1803C202.461 65.1803 207.287 63.2467 210.846 59.3483L210.192 58.7507ZM197.626 37.6644C197.117 38.8092 196.656 40.2377 196.24 41.9433L197.101 42.1533C197.509 40.4793 197.955 39.1052 198.436 38.0244L197.626 37.6644ZM196.238 41.951C195.866 43.6069 195.432 45.7558 194.937 48.3962L195.808 48.5595C196.302 45.9243 196.734 43.7869 197.103 42.1456L196.238 41.951ZM194.937 48.3962C194.436 51.0658 194.187 54.0406 194.187 57.3184H195.074C195.074 54.0843 195.319 51.1654 195.808 48.5595L194.937 48.3962ZM194.187 57.3184C194.187 58.4317 194.358 59.3877 194.724 60.1655L195.526 59.7881C195.233 59.1646 195.074 58.3483 195.074 57.3184H194.187ZM194.733 60.1841C195.198 61.0611 196.03 61.4709 197.103 61.4709V60.5846C196.281 60.5846 195.794 60.2938 195.517 59.7694L194.733 60.1841ZM197.103 61.4709C198.121 61.4709 198.989 61.2268 199.665 60.6962L199.117 59.9993C198.638 60.3754 197.981 60.5846 197.103 60.5846V61.4709ZM199.653 60.7051C200.361 60.1861 200.937 59.343 201.406 58.233L200.59 57.8876C200.153 58.9208 199.657 59.6027 199.129 59.9904L199.653 60.7051ZM201.405 58.237C202.248 56.2966 202.997 53.5596 203.659 50.0436L202.788 49.8796C202.131 53.3701 201.397 56.0322 200.592 57.8836L201.405 58.237ZM203.659 50.0426C204.319 46.4977 204.676 43.9326 204.718 42.3694L203.832 42.3455C203.792 43.8322 203.447 46.3365 202.788 49.8805L203.659 50.0426ZM204.717 42.3813C204.8 40.8511 204.842 39.5239 204.842 38.4008H203.955C203.955 39.5033 203.914 40.8138 203.832 42.3335L204.717 42.3813ZM204.842 38.4008C204.842 37.209 204.672 36.1941 204.309 35.377L203.499 35.737C203.795 36.4036 203.955 37.2846 203.955 38.4008H204.842ZM204.309 35.377C204.11 34.9297 203.808 34.5761 203.4 34.3391C202.996 34.1048 202.518 34.001 201.987 34.001V34.8873C202.405 34.8873 202.72 34.969 202.955 35.1056C203.186 35.2396 203.368 35.4424 203.499 35.737L204.309 35.377ZM201.987 34.001C200.977 34.001 200.104 34.3263 199.398 34.9857L200.002 35.6337C200.532 35.1391 201.184 34.8873 201.987 34.8873V34.001ZM199.398 34.9857C198.721 35.6171 198.135 36.5192 197.626 37.6644L198.436 38.0244C198.916 36.9439 199.442 36.1563 200.002 35.6337L199.398 34.9857ZM235.422 34.1969L235.02 34.01L235.741 34.5045L235.422 34.1969ZM251.805 32.8368L251.492 33.1503L251.501 33.1592L251.805 32.8368ZM251.805 45.2013L251.458 44.9254L251.457 44.9264L251.805 45.2013ZM245.746 48.9724L245.626 48.5458L245.212 48.6623L245.317 49.0799L245.746 48.9724ZM246.488 51.5071L246.068 51.6473L246.07 51.6535L246.488 51.5071ZM247.354 53.98L246.935 54.1265L246.939 54.1347L247.354 53.98ZM249.456 58.2458L249.796 57.9621L249.796 57.9621L249.456 58.2458ZM251.62 59.7295L252.048 59.8443L252.159 59.4287L251.747 59.305L251.62 59.7295ZM248.467 63.6243L248.253 63.236L248.249 63.2381L248.467 63.6243ZM234.742 52.4345L235.184 52.3967L235.183 52.3873L234.742 52.4345ZM234.557 48.9724L234.437 48.5457L234.113 48.6363V48.9724H234.557ZM239.812 45.2013L240.167 45.4659L240.167 45.4659L239.812 45.2013ZM236.473 37.4116L236.835 37.6681L236.835 37.6681L236.473 37.4116ZM234.495 42.6047L234.93 42.6897L234.93 42.6869L234.495 42.6047ZM230.415 63.5007L230.458 63.9417L230.786 63.9092L230.849 63.5856L230.415 63.5007ZM217.926 64.7371L217.491 64.6525L217.378 65.2368L217.97 65.1781L217.926 64.7371ZM226.582 20.225L226.538 19.784L226.209 19.8167L226.147 20.1404L226.582 20.225ZM239.008 18.9886L239.443 19.0727L239.556 18.4887L238.964 18.5476L239.008 18.9886ZM237.586 26.3454L237.151 26.2613L237.15 26.2675L237.586 26.3454ZM235.741 34.5045C237.851 32.3165 241.174 31.178 245.808 31.178V30.2917C241.046 30.2917 237.445 31.4611 235.103 33.8893L235.741 34.5045ZM245.808 31.178C248.325 31.178 250.197 31.8554 251.492 33.1502L252.118 32.5234C250.611 31.0156 248.484 30.2917 245.808 30.2917V31.178ZM251.501 33.1592C252.831 34.4131 253.526 36.2394 253.526 38.7099H254.412C254.412 36.0697 253.664 33.9807 252.109 32.5143L251.501 33.1592ZM253.526 38.7099C253.526 41.1329 252.833 43.1972 251.458 44.9254L252.152 45.4771C253.662 43.5784 254.412 41.3151 254.412 38.7099H253.526ZM251.457 44.9264C250.126 46.6108 248.194 47.8238 245.626 48.5458L245.866 49.399C248.575 48.6374 250.682 47.3362 252.153 45.4761L251.457 44.9264ZM245.317 49.0799C245.526 49.916 245.776 50.7718 246.068 51.6473L246.909 51.367C246.624 50.5115 246.38 49.6775 246.176 48.8649L245.317 49.0799ZM246.07 51.6535L246.936 54.1264L247.772 53.8336L246.907 51.3607L246.07 51.6535ZM246.939 54.1347C247.722 56.238 248.444 57.7241 249.115 58.5295L249.796 57.9621C249.231 57.2837 248.552 55.926 247.769 53.8253L246.939 54.1347ZM249.115 58.5295C249.782 59.3297 250.575 59.8787 251.492 60.154L251.747 59.305C251.016 59.0857 250.366 58.6456 249.796 57.9621L249.115 58.5295ZM251.192 59.6147C250.772 61.1785 249.805 62.3826 248.253 63.236L248.68 64.0126C250.426 63.0526 251.56 61.6601 252.048 59.8443L251.192 59.6147ZM248.249 63.2381C247.009 63.9359 245.521 64.294 243.768 64.294V65.1803C245.643 65.1803 247.287 64.7965 248.684 64.0106L248.249 63.2381ZM243.768 64.294C241.243 64.294 239.298 63.33 237.881 61.3993C236.446 59.4434 235.531 56.4618 235.184 52.3968L234.301 52.4722C234.654 56.6089 235.593 59.7786 237.167 61.9236C238.759 64.0938 240.976 65.1803 243.768 65.1803V64.294ZM235.183 52.3873C235.061 51.2488 235 50.1106 235 48.9724H234.113C234.113 50.1423 234.176 51.3121 234.301 52.4817L235.183 52.3873ZM234.676 49.3992C236.843 48.7924 238.674 47.471 240.167 45.4659L239.456 44.9366C238.064 46.8057 236.391 47.9985 234.437 48.5457L234.676 49.3992ZM240.167 45.4659C241.662 43.4577 242.418 41.264 242.418 38.8954H241.532C241.532 41.0604 240.846 43.0706 239.456 44.9366L240.167 45.4659ZM242.418 38.8954C242.418 37.7231 242.213 36.7644 241.734 36.0889C241.235 35.3853 240.486 35.052 239.564 35.052V35.9383C240.25 35.9383 240.706 36.1717 241.011 36.6015C241.336 37.0594 241.532 37.8009 241.532 38.8954H242.418ZM239.564 35.052C238.219 35.052 237.069 35.806 236.112 37.1552L236.835 37.6681C237.69 36.462 238.602 35.9383 239.564 35.9383V35.052ZM236.112 37.1552C235.156 38.502 234.479 40.2998 234.059 42.5226L234.93 42.6869C235.335 40.5408 235.977 38.8766 236.835 37.6681L236.112 37.1552ZM234.06 42.5198L229.98 63.4157L230.849 63.5856L234.93 42.6896L234.06 42.5198ZM230.371 63.0597L217.883 64.2961L217.97 65.1781L230.458 63.9417L230.371 63.0597ZM218.361 64.8217L227.017 20.3096L226.147 20.1404L217.491 64.6525L218.361 64.8217ZM226.625 20.666L239.052 19.4296L238.964 18.5476L226.538 19.784L226.625 20.666ZM238.573 18.9045L237.151 26.2613L238.021 26.4295L239.443 19.0727L238.573 18.9045ZM237.15 26.2675C236.534 29.7168 235.82 32.2896 235.02 34.01L235.824 34.3838C236.672 32.5597 237.402 29.8982 238.022 26.4233L237.15 26.2675ZM282.624 53.98L282.972 53.705L282.681 53.338L282.331 53.6481L282.624 53.98ZM281.573 63.0061L281.85 63.3521L281.851 63.3512L281.573 63.0061ZM269.889 64.2425L269.821 64.6805L269.826 64.6812L269.889 64.2425ZM258.39 63.3152L258.424 63.7571L258.441 63.7558L258.457 63.7532L258.39 63.3152ZM256.288 63.5007L255.852 63.4208L255.747 63.9974L256.33 63.9418L256.288 63.5007ZM263.769 22.6979V22.2548H263.399L263.333 22.618L263.769 22.6979ZM277.308 22.6979L277.744 22.7772L277.839 22.2548H277.308V22.6979ZM271.125 56.7002L270.689 56.6209L270.608 57.069L271.058 57.1382L271.125 56.7002ZM282.277 54.2551C282.973 55.1338 283.356 56.4815 283.356 58.3694H284.242C284.242 56.3831 283.842 54.8046 282.972 53.705L282.277 54.2551ZM283.356 58.3694C283.356 60.1304 282.675 61.5494 281.295 62.661L281.851 63.3512C283.439 62.0723 284.242 60.4002 284.242 58.3694H283.356ZM281.297 62.66C279.958 63.7309 278.069 64.294 275.577 64.294V65.1803C278.195 65.1803 280.304 64.5893 281.85 63.3521L281.297 62.66ZM275.577 64.294C274.122 64.294 272.249 64.1321 269.952 63.8038L269.826 64.6812C272.145 65.0125 274.064 65.1803 275.577 65.1803V64.294ZM269.957 63.8046C265.432 63.1054 262.47 62.7484 261.11 62.7484V63.6347C262.388 63.6347 265.278 63.9784 269.821 64.6805L269.957 63.8046ZM261.11 62.7484C259.832 62.7484 258.895 62.7891 258.323 62.8772L258.457 63.7532C258.957 63.6764 259.833 63.6347 261.11 63.6347V62.7484ZM258.356 62.8733C257.817 62.9149 257.113 62.977 256.246 63.0595L256.33 63.9418C257.194 63.8595 257.892 63.798 258.424 63.7571L258.356 62.8733ZM256.724 63.5806L264.205 22.7778L263.333 22.618L255.852 63.4208L256.724 63.5806ZM263.769 23.1411H277.308V22.2548H263.769V23.1411ZM276.872 22.6186L270.689 56.6209L271.561 56.7795L277.744 22.7772L276.872 22.6186ZM271.058 57.1382C271.614 57.2238 272.152 57.267 272.671 57.267V56.3807C272.201 56.3807 271.708 56.3415 271.193 56.2622L271.058 57.1382ZM272.671 57.267H274.217V56.3807H272.671V57.267ZM274.217 57.267C277.763 57.267 280.678 56.2939 282.918 54.312L282.331 53.6481C280.285 55.458 277.594 56.3807 274.217 56.3807V57.267ZM290.594 61.646L290.262 61.9397L290.268 61.9466L290.594 61.646ZM288.492 57.5039L288.061 57.6089L288.064 57.6187L288.492 57.5039ZM289.295 42.9138L289.71 43.0702L289.71 43.0702L289.295 42.9138ZM293.314 36.4225L293.634 36.7285L293.638 36.7251L293.314 36.4225ZM312.85 31.7858L312.665 32.1885L312.774 32.2387L312.894 32.2268L312.85 31.7858ZM323.421 30.7348L323.857 30.8174L323.967 30.2352L323.378 30.2938L323.421 30.7348ZM318.847 54.8455L319.276 54.953L319.28 54.9407L319.282 54.9282L318.847 54.8455ZM319.465 59.1731L319.14 59.4747L319.146 59.4807L319.151 59.4865L319.465 59.1731ZM321.567 60.1623L321.992 60.2873L322.143 59.7745L321.611 59.7213L321.567 60.1623ZM318.661 63.5007L318.45 63.1108L318.446 63.1133L318.661 63.5007ZM309.635 63.748L309.855 63.3632L309.85 63.3606L309.635 63.748ZM307.471 61.2132L307.895 61.0829L307.614 60.1688L307.098 60.9744L307.471 61.2132ZM304.38 63.748L304.569 64.1489L304.569 64.1489L304.38 63.748ZM294.365 63.9953L294.502 63.5737L294.365 63.9953ZM303.638 36.5461L303.27 36.3003L303.265 36.3076L303.26 36.315L303.638 36.5461ZM302.34 39.5754L302.76 39.7156L302.762 39.7115L302.34 39.5754ZM300.671 46.4995L300.237 46.4096L300.236 46.4136L300.671 46.4995ZM300.238 59.7295L299.846 59.9369L299.846 59.9369L300.238 59.7295ZM305.184 58.9258L304.833 58.6545L304.832 58.6562L305.184 58.9258ZM307.224 53.6709L306.788 53.592L306.787 53.5981L307.224 53.6709ZM310.501 35.557L310.937 35.6359L310.982 35.3858L310.789 35.2205L310.501 35.557ZM305.246 34.9387L305.037 34.5476L305.026 34.554L305.246 34.9387ZM290.926 61.3524C290.032 60.3423 289.359 59.0272 288.92 57.3891L288.064 57.6187C288.531 59.3603 289.259 60.8065 290.262 61.9396L290.926 61.3524ZM288.922 57.3989C288.522 55.7574 288.317 53.5712 288.317 50.8271H287.43C287.43 53.6058 287.637 55.8707 288.061 57.6089L288.922 57.3989ZM288.317 50.8271C288.317 48.1176 288.782 45.5329 289.71 43.0702L288.881 42.7575C287.913 45.323 287.43 48.0138 287.43 50.8271H288.317ZM289.71 43.0702C290.639 40.6077 291.947 38.4959 293.634 36.7285L292.993 36.1165C291.218 37.976 289.848 40.1917 288.881 42.7575L289.71 43.0702ZM293.638 36.7251C297.087 33.0349 301.662 31.178 307.409 31.178V30.2917C301.451 30.2917 296.63 32.2266 292.99 36.1199L293.638 36.7251ZM307.409 31.178C309.463 31.178 311.211 31.5204 312.665 32.1885L313.035 31.3831C311.439 30.65 309.56 30.2917 307.409 30.2917V31.178ZM312.894 32.2268L323.465 31.1758L323.378 30.2938L312.806 31.3448L312.894 32.2268ZM322.986 30.6522L318.411 54.7629L319.282 54.9282L323.857 30.8174L322.986 30.6522ZM318.417 54.7381C318.28 55.2849 318.218 56.0279 318.218 56.9475H319.104C319.104 56.0536 319.166 55.3953 319.276 54.953L318.417 54.7381ZM318.218 56.9475C318.218 57.9479 318.517 58.8033 319.14 59.4747L319.79 58.8716C319.341 58.3889 319.104 57.7605 319.104 56.9475H318.218ZM319.151 59.4865C319.802 60.137 320.598 60.5108 321.523 60.6032L321.611 59.7213C320.887 59.6489 320.282 59.3632 319.778 58.8597L319.151 59.4865ZM321.142 60.0372C320.769 61.3043 319.892 62.3314 318.45 63.1108L318.872 63.8905C320.48 63.0213 321.54 61.8228 321.992 60.2873L321.142 60.0372ZM318.446 63.1133C317.028 63.9012 315.515 64.294 313.901 64.294V65.1803C315.666 65.1803 317.327 64.7488 318.876 63.8881L318.446 63.1133ZM313.901 64.294C312.268 64.294 310.926 63.9753 309.855 63.3632L309.415 64.1327C310.652 64.8395 312.154 65.1803 313.901 65.1803V64.294ZM309.85 63.3606C308.823 62.7898 308.186 62.0301 307.895 61.0829L307.048 61.3436C307.416 62.5396 308.222 63.4697 309.42 64.1354L309.85 63.3606ZM307.098 60.9744C306.494 61.9179 305.537 62.7137 304.191 63.347L304.569 64.1489C306.026 63.4633 307.129 62.5693 307.844 61.4521L307.098 60.9744ZM304.191 63.347C302.861 63.9731 301.279 64.294 299.434 64.294V65.1803C301.381 65.1803 303.097 64.8417 304.569 64.1489L304.191 63.347ZM299.434 64.294C297.619 64.294 295.976 64.0519 294.502 63.5737L294.228 64.4168C295.804 64.9277 297.54 65.1803 299.434 65.1803V64.294ZM294.502 63.5737C293.042 63.1002 291.852 62.3557 290.919 61.3454L290.268 61.9466C291.314 63.0795 292.638 63.9012 294.228 64.4168L294.502 63.5737ZM303.26 36.315C302.781 37.0983 302.336 38.1443 301.918 39.4394L302.762 39.7115C303.168 38.4512 303.588 37.4777 304.016 36.7772L303.26 36.315ZM301.92 39.4353C301.498 40.6997 300.937 43.0318 300.237 46.4096L301.105 46.5895C301.806 43.208 302.358 40.924 302.76 39.7156L301.92 39.4353ZM300.236 46.4136C299.573 49.7695 299.238 52.6643 299.238 55.0928H300.125C300.125 52.7405 300.45 49.9064 301.106 46.5854L300.236 46.4136ZM299.238 55.0928C299.238 56.2974 299.285 57.3007 299.381 58.0977C299.475 58.8826 299.621 59.5116 299.846 59.9369L300.63 59.5222C300.484 59.2468 300.352 58.7526 300.261 57.992C300.171 57.2434 300.125 56.2787 300.125 55.0928H299.238ZM299.846 59.9369C300.275 60.7474 300.924 61.2237 301.784 61.2237V60.3373C301.325 60.3373 300.942 60.1129 300.63 59.5222L299.846 59.9369ZM301.784 61.2237C303.266 61.2237 304.521 60.519 305.535 59.1955L304.832 58.6562C303.951 59.8056 302.939 60.3373 301.784 60.3373V61.2237ZM305.534 59.1971C306.582 57.8431 307.283 56.0146 307.661 53.7438L306.787 53.5981C306.423 55.7785 305.763 57.4532 304.833 58.6545L305.534 59.1971ZM307.66 53.7498L310.937 35.6359L310.064 35.4781L306.788 53.592L307.66 53.7498ZM310.789 35.2205C309.852 34.4176 308.804 34.001 307.657 34.001V34.8873C308.57 34.8873 309.418 35.2126 310.212 35.8934L310.789 35.2205ZM307.657 34.001C306.623 34.001 305.74 34.1726 305.037 34.5477L305.454 35.3298C305.987 35.0455 306.712 34.8873 307.657 34.8873V34.001ZM305.026 34.554C304.372 34.9274 303.79 35.5199 303.27 36.3003L304.007 36.792C304.476 36.0887 304.965 35.6095 305.465 35.3235L305.026 34.554ZM325.952 60.5332L325.516 60.4504L325.47 60.6949L325.654 60.8618L325.952 60.5332ZM333.618 20.225L333.574 19.784L333.244 19.8165L333.182 20.1422L333.618 20.225ZM346.168 18.9886L346.602 19.0766L346.721 18.4887L346.124 18.5476L346.168 18.9886ZM344.251 28.4474L344.683 28.5484L344.686 28.5354L344.251 28.4474ZM342.706 33.3932L342.298 33.2201L343.054 33.667L342.706 33.3932ZM347.033 30.9821L347.132 31.4141L347.144 31.4115L347.155 31.4082L347.033 30.9821ZM357.852 34.2587L357.522 34.5542L357.524 34.5571L357.852 34.2587ZM355.997 58.7404L355.67 58.4421L355.668 58.4445L355.997 58.7404ZM329.043 62.5115L328.862 62.9159L328.865 62.9173L329.043 62.5115ZM338.378 59.9768L337.942 59.8979L337.897 60.1479L338.09 60.3133L338.378 59.9768ZM343.818 60.4714L343.573 60.1026L343.573 60.1026L343.818 60.4714ZM345.426 58.6167L345.038 58.4015L345.037 58.4031L345.426 58.6167ZM348.764 45.0776L348.326 45.0123L348.326 45.0138L348.764 45.0776ZM348.517 35.4333L348.148 35.6791L348.154 35.6874L348.16 35.6954L348.517 35.4333ZM341.655 41.8629L342.091 41.9417L342.092 41.9363L341.655 41.8629ZM326.387 60.616L334.053 20.3078L333.182 20.1422L325.516 60.4504L326.387 60.616ZM333.661 20.6661L346.211 19.4296L346.124 18.5476L333.574 19.784L333.661 20.6661ZM345.733 18.9006L343.817 28.3594L344.686 28.5354L346.602 19.0766L345.733 18.9006ZM343.82 28.3464C343.37 30.2667 342.862 31.8897 342.298 33.2201L343.114 33.5663C343.703 32.1764 344.225 30.5023 344.683 28.5484L343.82 28.3464ZM343.054 33.667C343.878 32.6184 345.215 31.8534 347.132 31.4141L346.934 30.5502C344.894 31.0176 343.347 31.86 342.357 33.1194L343.054 33.667ZM347.155 31.4082C347.686 31.2564 348.283 31.178 348.95 31.178V30.2917C348.215 30.2917 347.534 30.3781 346.911 30.556L347.155 31.4082ZM348.95 31.178C352.686 31.178 355.522 32.3189 357.522 34.5542L358.182 33.9632C355.978 31.5 352.879 30.2917 348.95 30.2917V31.178ZM357.524 34.5571C359.525 36.7539 360.562 40.0293 360.562 44.4594H361.448C361.448 39.9046 360.383 36.3796 358.18 33.9603L357.524 34.5571ZM360.562 44.4594C360.562 50.2226 358.921 54.8699 355.67 58.4421L356.325 59.0386C359.751 55.2746 361.448 50.4012 361.448 44.4594H360.562ZM355.668 58.4445C352.183 62.3289 347.266 64.294 340.851 64.294V65.1803C347.46 65.1803 352.64 63.1475 356.327 59.0362L355.668 58.4445ZM340.851 64.294C336.407 64.294 332.534 63.5601 329.221 62.1057L328.865 62.9173C332.311 64.4304 336.31 65.1803 340.851 65.1803V64.294ZM329.224 62.1071C328.066 61.588 327.076 60.9529 326.249 60.2046L325.654 60.8618C326.558 61.6796 327.629 62.3634 328.862 62.9159L329.224 62.1071ZM338.09 60.3133C339.03 61.1192 340.099 61.5328 341.284 61.5328V60.6464C340.325 60.6464 339.457 60.3181 338.666 59.6403L338.09 60.3133ZM341.284 61.5328C342.406 61.5328 343.348 61.3178 344.064 60.8401L343.573 60.1026C343.053 60.4492 342.305 60.6464 341.284 60.6464V61.5328ZM344.064 60.8401C344.755 60.3793 345.335 59.7008 345.814 58.8303L345.037 58.4031C344.61 59.1812 344.118 59.7391 343.573 60.1026L344.064 60.8401ZM345.813 58.8319C346.46 57.6675 347.059 55.9376 347.618 53.6688C348.179 51.3935 348.707 48.5498 349.203 45.1414L348.326 45.0138C347.832 48.4059 347.309 51.219 346.757 53.4566C346.204 55.7009 345.628 57.3403 345.038 58.4015L345.813 58.8319ZM349.203 45.1429C349.494 43.1844 349.64 41.2255 349.64 39.2663H348.754C348.754 41.1813 348.611 43.0966 348.326 45.0123L349.203 45.1429ZM349.64 39.2663C349.64 38.2831 349.583 37.4514 349.463 36.7778C349.345 36.1125 349.16 35.5605 348.874 35.1713L348.16 35.6954C348.327 35.9243 348.482 36.3203 348.591 36.9327C348.698 37.5368 348.754 38.3124 348.754 39.2663H349.64ZM348.886 35.1875C348.381 34.4309 347.616 34.0628 346.662 34.0628V34.9492C347.357 34.9492 347.828 35.1993 348.148 35.6791L348.886 35.1875ZM346.662 34.0628C345.231 34.0628 344.058 34.7736 343.158 36.0958C342.271 37.399 341.634 39.3112 341.218 41.7894L342.092 41.9363C342.499 39.5099 343.109 37.7437 343.891 36.5946C344.66 35.4646 345.58 34.9492 346.662 34.9492V34.0628ZM341.219 41.784L337.942 59.8979L338.814 60.0557L342.091 41.9417L341.219 41.784ZM369.614 36.9789L369.951 37.2664L369.952 37.2662L369.614 36.9789ZM394.22 33.8259L394.518 33.498L394.22 33.8259ZM392.303 59.0495L391.978 58.7486L391.976 58.7507L392.303 59.0495ZM379.815 37.8444L379.41 37.6644L379.815 37.8444ZM378.455 42.0483L378.024 41.9433L378.023 41.951L378.455 42.0483ZM377.157 48.4778L376.721 48.3962L376.721 48.3962L377.157 48.4778ZM376.909 59.9768L376.508 60.1655L376.513 60.1749L376.518 60.1841L376.909 59.9768ZM381.175 60.3477L380.913 59.9904L380.907 59.9947L380.901 59.9993L381.175 60.3477ZM382.782 58.0603L382.376 57.8836L382.374 57.8876L382.782 58.0603ZM385.008 49.9616L385.444 50.0436L385.444 50.0426L385.008 49.9616ZM386.059 42.3574L385.616 42.3335L385.616 42.3455L386.059 42.3574ZM385.688 35.557L385.283 35.737L385.283 35.737L385.688 35.557ZM381.484 35.3097L381.787 35.6337L381.787 35.6337L381.484 35.3097ZM378.208 64.294C373.736 64.294 370.464 63.2415 368.311 61.2151C366.162 59.1933 365.05 56.1302 365.05 51.9399H364.163C364.163 56.2811 365.318 59.6165 367.703 61.8606C370.083 64.0998 373.612 65.1803 378.208 65.1803V64.294ZM365.05 51.9399C365.05 45.967 366.693 41.0878 369.951 37.2664L369.277 36.6914C365.858 40.7008 364.163 45.7956 364.163 51.9399H365.05ZM369.952 37.2662C373.401 33.2153 378.113 31.178 384.143 31.178V30.2917C377.89 30.2917 372.917 32.4171 369.277 36.6916L369.952 37.2662ZM384.143 31.178C388.533 31.178 391.767 32.1948 393.921 34.1539L394.518 33.498C392.139 31.3356 388.655 30.2917 384.143 30.2917V31.178ZM393.921 34.1539C396.063 36.1006 397.177 39.1528 397.177 43.4084H398.063C398.063 39.0089 396.91 35.6728 394.518 33.498L393.921 34.1539ZM397.177 43.4084C397.177 49.9218 395.428 55.0174 391.978 58.7486L392.628 59.3503C396.267 55.4155 398.063 50.0838 398.063 43.4084H397.177ZM391.976 58.7507C388.611 62.4358 384.039 64.294 378.208 64.294V65.1803C384.246 65.1803 389.071 63.2467 392.63 59.3483L391.976 58.7507ZM379.41 37.6644C378.901 38.8092 378.44 40.2377 378.024 41.9433L378.885 42.1533C379.294 40.4793 379.74 39.1052 380.22 38.0244L379.41 37.6644ZM378.023 41.951C377.65 43.6069 377.216 45.7558 376.721 48.3962L377.592 48.5595C378.086 45.9243 378.518 43.7869 378.887 42.1456L378.023 41.951ZM376.721 48.3962C376.22 51.0658 375.972 54.0406 375.972 57.3184H376.858C376.858 54.0843 377.104 51.1654 377.592 48.5595L376.721 48.3962ZM375.972 57.3184C375.972 58.4317 376.142 59.3877 376.508 60.1655L377.31 59.7881C377.017 59.1646 376.858 58.3483 376.858 57.3184H375.972ZM376.518 60.1841C376.982 61.0611 377.814 61.4709 378.888 61.4709V60.5846C378.065 60.5846 377.579 60.2938 377.301 59.7694L376.518 60.1841ZM378.888 61.4709C379.906 61.4709 380.774 61.2268 381.449 60.6962L380.901 59.9993C380.423 60.3754 379.766 60.5846 378.888 60.5846V61.4709ZM381.437 60.7051C382.145 60.1861 382.721 59.343 383.191 58.233L382.374 57.8876C381.937 58.9208 381.442 59.6027 380.913 59.9904L381.437 60.7051ZM383.189 58.237C384.032 56.2966 384.782 53.5596 385.444 50.0436L384.573 49.8796C383.915 53.3701 383.181 56.0322 382.376 57.8836L383.189 58.237ZM385.444 50.0426C386.103 46.4977 386.46 43.9326 386.502 42.3694L385.616 42.3455C385.576 43.8322 385.232 46.3365 384.572 49.8805L385.444 50.0426ZM386.502 42.3813C386.584 40.8511 386.626 39.5239 386.626 38.4008H385.739C385.739 39.5033 385.699 40.8138 385.616 42.3335L386.502 42.3813ZM386.626 38.4008C386.626 37.209 386.456 36.1941 386.093 35.377L385.283 35.737C385.579 36.4036 385.739 37.2846 385.739 38.4008H386.626ZM386.093 35.377C385.894 34.9297 385.592 34.5761 385.184 34.3391C384.781 34.1048 384.302 34.001 383.772 34.001V34.8873C384.189 34.8873 384.504 34.969 384.739 35.1056C384.97 35.2396 385.152 35.4424 385.283 35.737L386.093 35.377ZM383.772 34.001C382.761 34.001 381.888 34.3263 381.182 34.9857L381.787 35.6337C382.316 35.1391 382.968 34.8873 383.772 34.8873V34.001ZM381.182 34.9857C380.505 35.6171 379.919 36.5192 379.41 37.6644L380.22 38.0244C380.7 36.9439 381.227 36.1563 381.787 35.6337L381.182 34.9857ZM420.607 46.1286L420.22 45.9113L420.056 46.2043L420.293 46.442L420.607 46.1286ZM417.886 38.0299L418.261 38.2672L418.265 38.2606L417.886 38.0299ZM415.784 43.8412L416.222 43.9127L416.223 43.9073L415.784 43.8412ZM412.57 63.5007L412.612 63.9418L412.952 63.909L413.007 63.5722L412.57 63.5007ZM399.772 64.7371L399.337 64.6534L399.225 65.2352L399.815 65.1782L399.772 64.7371ZM406.078 31.9713L406.025 31.5313L405.704 31.5702L405.643 31.8875L406.078 31.9713ZM416.279 30.7348L416.715 30.8126L416.82 30.2228L416.226 30.2949L416.279 30.7348ZM415.166 36.9789L414.73 36.9011L415.565 37.1723L415.166 36.9789ZM430.498 32.5895L430.19 32.908L430.195 32.9128L430.498 32.5895ZM429.942 44.4594L429.636 44.1383L429.632 44.1421L429.942 44.4594ZM420.993 46.3459C422.509 43.6505 423.275 40.918 423.275 38.1535H422.389C422.389 40.7469 421.672 43.3312 420.22 45.9113L420.993 46.3459ZM423.275 38.1535C423.275 37.2274 423.111 36.453 422.713 35.9006C422.295 35.3213 421.669 35.052 420.916 35.052V35.9383C421.44 35.9383 421.772 36.1121 421.994 36.4189C422.234 36.7526 422.389 37.3074 422.389 38.1535H423.275ZM420.916 35.052C420.287 35.052 419.69 35.322 419.132 35.789C418.577 36.2539 418.037 36.9316 417.508 37.7992L418.265 38.2606C418.766 37.4383 419.247 36.8487 419.701 36.4687C420.153 36.0907 420.555 35.9383 420.916 35.9383V35.052ZM417.512 37.7925C416.404 39.5395 415.684 41.5361 415.346 43.775L416.223 43.9073C416.544 41.7774 417.225 39.8998 418.261 38.2672L417.512 37.7925ZM415.347 43.7696L412.132 63.4292L413.007 63.5722L416.222 43.9127L415.347 43.7696ZM412.527 63.0596L399.73 64.296L399.815 65.1782L412.612 63.9418L412.527 63.0596ZM400.208 64.8209L406.514 32.055L405.643 31.8875L399.337 64.6534L400.208 64.8209ZM406.132 32.4112L416.332 31.1748L416.226 30.2949L406.025 31.5313L406.132 32.4112ZM415.843 30.6571L414.73 36.9011L415.603 37.0566L416.715 30.8126L415.843 30.6571ZM415.565 37.1723C416.546 35.1506 417.819 33.6587 419.376 32.6699C420.932 31.6815 422.799 31.178 424.996 31.178V30.2917C422.659 30.2917 420.621 30.8288 418.901 31.9218C417.181 33.0144 415.806 34.6444 414.768 36.7854L415.565 37.1723ZM424.996 31.178C427.312 31.178 429.02 31.7759 430.19 32.908L430.806 32.271C429.421 30.9302 427.461 30.2917 424.996 30.2917V31.178ZM430.195 32.9128C431.393 34.0357 432.033 35.7926 432.033 38.2772H432.92C432.92 35.6511 432.241 33.6162 430.801 32.2662L430.195 32.9128ZM432.033 38.2772C432.033 40.6804 431.231 42.6216 429.636 44.1383L430.247 44.7805C432.032 43.0825 432.92 40.9021 432.92 38.2772H432.033ZM429.632 44.1421C428.085 45.6507 425.96 46.4273 423.203 46.4273V47.3136C426.134 47.3136 428.501 46.4828 430.251 44.7767L429.632 44.1421ZM423.203 46.4273C422.001 46.4273 421.287 46.1822 420.92 45.8152L420.293 46.442C420.915 47.0641 421.932 47.3136 423.203 47.3136V46.4273ZM436.154 61.646L435.822 61.9397L435.828 61.9466L436.154 61.646ZM434.052 57.5039L433.621 57.6089L433.624 57.6187L434.052 57.5039ZM434.856 42.9138L435.27 43.0702L435.27 43.0702L434.856 42.9138ZM438.874 36.4225L439.195 36.7285L439.198 36.7251L438.874 36.4225ZM458.41 31.7858L458.225 32.1885L458.334 32.2387L458.454 32.2268L458.41 31.7858ZM468.982 30.7348L469.417 30.8174L469.527 30.2352L468.938 30.2938L468.982 30.7348ZM464.407 54.8455L464.837 54.953L464.84 54.9407L464.842 54.9282L464.407 54.8455ZM465.025 59.1731L464.7 59.4747L464.706 59.4807L464.712 59.4865L465.025 59.1731ZM467.127 60.1623L467.552 60.2873L467.703 59.7745L467.171 59.7213L467.127 60.1623ZM464.221 63.5007L464.011 63.1108L464.006 63.1133L464.221 63.5007ZM455.195 63.748L455.415 63.3632L455.41 63.3606L455.195 63.748ZM453.031 61.2132L453.455 61.0829L453.174 60.1688L452.658 60.9744L453.031 61.2132ZM449.94 63.748L450.129 64.1489L450.129 64.1489L449.94 63.748ZM439.925 63.9953L440.062 63.5737L439.925 63.9953ZM449.198 36.5461L448.83 36.3003L448.825 36.3076L448.82 36.315L449.198 36.5461ZM447.9 39.5754L448.321 39.7156L448.322 39.7115L447.9 39.5754ZM446.231 46.4995L445.797 46.4096L445.796 46.4136L446.231 46.4995ZM445.798 59.7295L445.407 59.9369L445.407 59.9369L445.798 59.7295ZM450.744 58.9258L450.394 58.6545L450.392 58.6562L450.744 58.9258ZM452.784 53.6709L452.348 53.592L452.347 53.5981L452.784 53.6709ZM456.061 35.557L456.497 35.6359L456.542 35.3858L456.349 35.2205L456.061 35.557ZM450.806 34.9387L450.597 34.5476L450.586 34.554L450.806 34.9387ZM436.486 61.3524C435.592 60.3423 434.92 59.0272 434.48 57.3891L433.624 57.6187C434.091 59.3603 434.82 60.8065 435.822 61.9396L436.486 61.3524ZM434.483 57.3989C434.082 55.7574 433.877 53.5712 433.877 50.8271H432.991C432.991 53.6058 433.198 55.8707 433.621 57.6089L434.483 57.3989ZM433.877 50.8271C433.877 48.1176 434.342 45.5329 435.27 43.0702L434.441 42.7575C433.474 45.323 432.991 48.0138 432.991 50.8271H433.877ZM435.27 43.0702C436.199 40.6077 437.508 38.4959 439.195 36.7285L438.554 36.1165C436.779 37.976 435.408 40.1917 434.441 42.7575L435.27 43.0702ZM439.198 36.7251C442.647 33.0349 447.223 31.178 452.97 31.178V30.2917C447.012 30.2917 442.19 32.2266 438.55 36.1199L439.198 36.7251ZM452.97 31.178C455.023 31.178 456.771 31.5204 458.225 32.1885L458.595 31.3831C456.999 30.65 455.12 30.2917 452.97 30.2917V31.178ZM458.454 32.2268L469.025 31.1758L468.938 30.2938L458.366 31.3448L458.454 32.2268ZM468.546 30.6522L463.971 54.7629L464.842 54.9282L469.417 30.8174L468.546 30.6522ZM463.977 54.7381C463.84 55.2849 463.778 56.0279 463.778 56.9475H464.664C464.664 56.0536 464.726 55.3953 464.837 54.953L463.977 54.7381ZM463.778 56.9475C463.778 57.9479 464.077 58.8033 464.7 59.4747L465.35 58.8716C464.902 58.3889 464.664 57.7605 464.664 56.9475H463.778ZM464.712 59.4865C465.362 60.137 466.158 60.5108 467.083 60.6032L467.171 59.7213C466.447 59.6489 465.842 59.3632 465.338 58.8597L464.712 59.4865ZM466.702 60.0372C466.329 61.3043 465.452 62.3314 464.011 63.1108L464.432 63.8905C466.04 63.0213 467.1 61.8228 467.552 60.2873L466.702 60.0372ZM464.006 63.1133C462.588 63.9012 461.075 64.294 459.461 64.294V65.1803C461.226 65.1803 462.887 64.7488 464.437 63.8881L464.006 63.1133ZM459.461 64.294C457.828 64.294 456.486 63.9753 455.415 63.3632L454.975 64.1327C456.212 64.8395 457.715 65.1803 459.461 65.1803V64.294ZM455.41 63.3606C454.383 62.7898 453.746 62.0301 453.455 61.0829L452.608 61.3436C452.976 62.5396 453.782 63.4697 454.98 64.1354L455.41 63.3606ZM452.658 60.9744C452.054 61.9179 451.097 62.7137 449.752 63.347L450.129 64.1489C451.586 63.4633 452.69 62.5693 453.405 61.4521L452.658 60.9744ZM449.752 63.347C448.421 63.9731 446.84 64.294 444.995 64.294V65.1803C446.941 65.1803 448.657 64.8417 450.129 64.1489L449.752 63.347ZM444.995 64.294C443.179 64.294 441.536 64.0519 440.062 63.5737L439.788 64.4168C441.364 64.9277 443.101 65.1803 444.995 65.1803V64.294ZM440.062 63.5737C438.602 63.1002 437.412 62.3557 436.48 61.3454L435.828 61.9466C436.874 63.0795 438.198 63.9012 439.788 64.4168L440.062 63.5737ZM448.82 36.315C448.342 37.0983 447.896 38.1443 447.478 39.4394L448.322 39.7115C448.729 38.4512 449.149 37.4777 449.577 36.7772L448.82 36.315ZM447.48 39.4353C447.058 40.6997 446.497 43.0318 445.797 46.4096L446.665 46.5895C447.366 43.208 447.918 40.924 448.321 39.7156L447.48 39.4353ZM445.796 46.4136C445.133 49.7695 444.799 52.6643 444.799 55.0928H445.685C445.685 52.7405 446.01 49.9064 446.666 46.5854L445.796 46.4136ZM444.799 55.0928C444.799 56.2974 444.845 57.3007 444.941 58.0977C445.035 58.8826 445.181 59.5116 445.407 59.9369L446.19 59.5222C446.044 59.2468 445.912 58.7526 445.821 57.992C445.731 57.2434 445.685 56.2787 445.685 55.0928H444.799ZM445.407 59.9369C445.836 60.7474 446.484 61.2237 447.344 61.2237V60.3373C446.885 60.3373 446.503 60.1129 446.19 59.5222L445.407 59.9369ZM447.344 61.2237C448.826 61.2237 450.081 60.519 451.096 59.1955L450.392 58.6562C449.511 59.8056 448.499 60.3373 447.344 60.3373V61.2237ZM451.094 59.1971C452.143 57.8431 452.843 56.0146 453.221 53.7438L452.347 53.5981C451.984 55.7785 451.324 57.4532 450.394 58.6545L451.094 59.1971ZM453.22 53.7498L456.497 35.6359L455.625 35.4781L452.348 53.592L453.22 53.7498ZM456.349 35.2205C455.412 34.4176 454.365 34.001 453.217 34.001V34.8873C454.13 34.8873 454.978 35.2126 455.772 35.8934L456.349 35.2205ZM453.217 34.001C452.183 34.001 451.301 34.1726 450.597 34.5477L451.014 35.3298C451.547 35.0455 452.272 34.8873 453.217 34.8873V34.001ZM450.586 34.554C449.932 34.9274 449.35 35.5199 448.83 36.3003L449.567 36.792C450.036 36.0887 450.525 35.6095 451.026 35.3235L450.586 34.554ZM474.17 51.4453L474.604 51.5347L474.605 51.5307L474.17 51.4453ZM477.447 34.7533L477.882 34.8386L477.986 34.3101H477.447V34.7533ZM473.799 34.7533L473.36 34.6947L473.293 35.1964H473.799V34.7533ZM474.047 32.8986L473.919 32.4741L473.645 32.5564L473.607 32.84L474.047 32.8986ZM488.637 25.2326V24.7895H488.488L488.369 24.8796L488.637 25.2326ZM491.604 25.2326L492.037 25.3279L492.156 24.7895H491.604V25.2326ZM490.12 31.9713L489.688 31.876L489.569 32.4144H490.12V31.9713ZM494.943 31.9713L495.377 32.0582L495.483 31.5281H494.943V31.9713ZM494.386 34.7533V35.1964H494.75L494.821 34.8402L494.386 34.7533ZM489.626 34.7533V34.3101H489.259L489.19 34.671L489.626 34.7533ZM486.473 51.4453L486.907 51.5363L486.908 51.5276L486.473 51.4453ZM488.266 60.1623L488.691 60.2873L488.823 59.8393L488.368 59.7312L488.266 60.1623ZM485.422 63.5007L485.637 63.8881L485.637 63.8881L485.422 63.5007ZM475.098 62.7588L474.769 63.0564L474.769 63.0564L475.098 62.7588ZM473.748 57.3184C473.748 56.2564 474.027 54.3397 474.604 51.5347L473.736 51.3559C473.16 54.1562 472.862 56.1549 472.862 57.3184H473.748ZM474.605 51.5307L477.882 34.8386L477.012 34.6679L473.735 51.36L474.605 51.5307ZM477.447 34.3101H473.799V35.1964H477.447V34.3101ZM474.239 34.8119L474.486 32.9572L473.607 32.84L473.36 34.6947L474.239 34.8119ZM474.174 33.3231C479.178 31.8219 484.088 29.2395 488.905 25.5857L488.369 24.8796C483.623 28.4796 478.807 31.0079 473.919 32.4741L474.174 33.3231ZM488.637 25.6758H491.604V24.7895H488.637V25.6758ZM491.171 25.1373L489.688 31.876L490.553 32.0666L492.037 25.3279L491.171 25.1373ZM490.12 32.4144H494.943V31.5281H490.12V32.4144ZM494.508 31.8844L493.952 34.6664L494.821 34.8402L495.377 32.0582L494.508 31.8844ZM494.386 34.3101H489.626V35.1964H494.386V34.3101ZM489.19 34.671L486.038 51.3631L486.908 51.5276L490.061 34.8355L489.19 34.671ZM486.039 51.3544C485.505 53.9018 485.226 55.6574 485.226 56.5766H486.112C486.112 55.7648 486.369 54.0995 486.907 51.5363L486.039 51.3544ZM485.226 56.5766C485.226 57.6277 485.456 58.5215 485.959 59.2166C486.467 59.917 487.217 60.368 488.163 60.5934L488.368 59.7312C487.584 59.5444 487.036 59.1917 486.677 58.6968C486.315 58.1968 486.112 57.5038 486.112 56.5766H485.226ZM487.841 60.0372C487.467 61.3088 486.607 62.3356 485.207 63.1133L485.637 63.8881C487.205 63.0171 488.241 61.8183 488.691 60.2873L487.841 60.0372ZM485.207 63.1133C483.803 63.8933 482.088 64.294 480.043 64.294V65.1803C482.203 65.1803 484.074 64.7567 485.637 63.8881L485.207 63.1133ZM480.043 64.294C478.042 64.294 476.522 63.6705 475.426 62.4612L474.769 63.0564C476.064 64.4848 477.841 65.1803 480.043 65.1803V64.294ZM475.426 62.4612C474.324 61.2457 473.748 59.55 473.748 57.3184H472.862C472.862 59.7029 473.48 61.6342 474.769 63.0564L475.426 62.4612ZM519.45 53.0527L519.7 52.6862L519.314 52.4239L519.072 52.8227L519.45 53.0527ZM519.821 60.2241L520.169 60.4992L520.169 60.4992L519.821 60.2241ZM516.73 62.697L516.933 63.0909L516.933 63.0908L516.73 62.697ZM501.707 63.8098L501.552 64.2247L501.555 64.226L501.707 63.8098ZM497.565 61.1514L497.884 60.8438L497.879 60.8381L497.565 61.1514ZM499.358 36.8552L499.689 37.1501L499.689 37.1497L499.358 36.8552ZM523.036 33.2077L523.324 32.8712L523.323 32.8702L523.036 33.2077ZM506.406 48.9724V48.5293H506.026L505.968 48.905L506.406 48.9724ZM507.395 55.8965L507.099 56.2259L507.107 56.2337L507.116 56.241L507.395 55.8965ZM515.865 55.8965L516.038 56.3044L516.043 56.3023L515.865 55.8965ZM506.839 46.3141L506.403 46.2351L506.308 46.7572H506.839V46.3141ZM513.763 43.5939L513.446 43.2842L513.439 43.2918L513.763 43.5939ZM515.741 34.6915L515.364 34.9237L515.374 34.9411L515.387 34.9574L515.741 34.6915ZM512.217 34.3205L512.392 34.7281L512.405 34.7221L512.217 34.3205ZM510.424 36.0515L510.781 36.3152L510.786 36.3083L510.79 36.3012L510.424 36.0515ZM519.201 53.4192C520.079 54.016 520.553 54.991 520.553 56.4529H521.439C521.439 54.7825 520.883 53.4907 519.7 52.6862L519.201 53.4192ZM520.553 56.4529C520.553 57.8996 520.183 59.0535 519.474 59.949L520.169 60.4992C521.026 59.4164 521.439 58.0562 521.439 56.4529H520.553ZM519.474 59.949C518.735 60.8823 517.756 61.6686 516.527 62.3032L516.933 63.0908C518.259 62.4065 519.342 61.5441 520.169 60.4992L519.474 59.949ZM516.527 62.3031C513.949 63.6323 511.278 64.294 508.508 64.294V65.1803C511.425 65.1803 514.236 64.4819 516.933 63.0909L516.527 62.3031ZM508.508 64.294C505.689 64.294 503.481 63.9867 501.86 63.3936L501.555 64.226C503.314 64.8693 505.639 65.1803 508.508 65.1803V64.294ZM501.863 63.3948C500.27 62.7975 498.947 61.9458 497.884 60.8438L497.246 61.459C498.409 62.6651 499.848 63.5856 501.552 64.2247L501.863 63.3948ZM497.879 60.8381C495.8 58.7592 494.732 55.7945 494.732 51.8781H493.846C493.846 55.9574 494.962 59.1748 497.252 61.4648L497.879 60.8381ZM494.732 51.8781C494.732 45.7378 496.397 40.8434 499.689 37.1501L499.027 36.5604C495.56 40.4506 493.846 45.5715 493.846 51.8781H494.732ZM499.689 37.1497C503.219 33.1791 508.056 31.178 514.257 31.178V30.2917C507.847 30.2917 502.751 32.3709 499.027 36.5608L499.689 37.1497ZM514.257 31.178C518.122 31.178 520.925 31.9932 522.749 33.5452L523.323 32.8702C521.273 31.125 518.224 30.2917 514.257 30.2917V31.178ZM522.748 33.5442C524.085 34.6906 524.757 36.1923 524.757 38.0917H525.643C525.643 35.9521 524.872 34.1977 523.324 32.8712L522.748 33.5442ZM524.757 38.0917C524.757 41.5609 523.274 44.1347 520.279 45.8687C517.247 47.6241 512.642 48.5293 506.406 48.5293V49.4156C512.699 49.4156 517.491 48.5073 520.723 46.6358C523.993 44.7429 525.643 41.8763 525.643 38.0917H524.757ZM505.968 48.905C505.8 49.9947 505.715 51.0067 505.715 51.9399H506.602C506.602 51.0596 506.682 50.0933 506.844 49.0398L505.968 48.905ZM505.715 51.9399C505.715 53.8767 506.132 55.3564 507.099 56.2259L507.691 55.5671C507.009 54.9529 506.602 53.7949 506.602 51.9399H505.715ZM507.116 56.241C508.087 57.027 509.415 57.3907 511.043 57.3907V56.5043C509.537 56.5043 508.434 56.1673 507.674 55.5521L507.116 56.241ZM511.043 57.3907C512.676 57.3907 514.342 57.025 516.038 56.3044L515.691 55.4887C514.09 56.1694 512.541 56.5043 511.043 56.5043V57.3907ZM516.043 56.3023C517.786 55.537 519.067 54.5384 519.829 53.2827L519.072 52.8227C518.433 53.875 517.323 54.7724 515.687 55.4907L516.043 56.3023ZM506.839 46.7572C509.864 46.7572 512.298 45.8157 514.087 43.896L513.439 43.2918C511.848 44.999 509.666 45.8709 506.839 45.8709V46.7572ZM514.08 43.9034C515.862 42.0778 516.741 39.7146 516.741 36.8552H515.854C515.854 39.5187 515.043 41.6479 513.446 43.2843L514.08 43.9034ZM516.741 36.8552C516.741 35.8596 516.547 35.0281 516.096 34.4256L515.387 34.9574C515.677 35.344 515.854 35.955 515.854 36.8552H516.741ZM516.118 34.4592C515.698 33.7755 515.029 33.4446 514.195 33.4446V34.3309C514.763 34.3309 515.125 34.5358 515.364 34.9237L516.118 34.4592ZM514.195 33.4446C513.432 33.4446 512.708 33.6023 512.03 33.9189L512.405 34.7221C512.963 34.4617 513.558 34.3309 514.195 34.3309V33.4446ZM512.043 33.9132C511.349 34.2103 510.693 34.8712 510.058 35.8019L510.79 36.3012C511.392 35.4185 511.931 34.9253 512.392 34.7279L512.043 33.9132ZM510.068 35.7879C508.481 37.9329 507.271 41.4369 506.403 46.2351L507.275 46.393C508.137 41.6294 509.318 38.2916 510.781 36.3152L510.068 35.7879Z" fill="white"/>
</svg>
