<svg width="191" height="93" viewBox="0 0 191 93" fill="none" xmlns="http://www.w3.org/2000/svg">
<mask id="path-1-outside-1_348_2855" maskUnits="userSpaceOnUse" x="0" y="0" width="191" height="93" fill="black">
<rect fill="white" width="191" height="93"/>
<path d="M188 3H0V92.5679H188V3Z"/>
</mask>
<path d="M188 3V0H191V3H188ZM188 3V6H0V3V0H188V3ZM188 92.5679H185V3H188H191V92.5679H188Z" fill="#0E0E11" mask="url(#path-1-outside-1_348_2855)"/>
<path d="M188 3H31V38C31 51.2548 41.7452 62 55 62H188V3Z" fill="#0E0E11"/>
<rect x="43" y="15" width="133" height="35" rx="17.5" fill="#EFEFEF"/>
<path d="M65.2578 38V37.0312L69.0703 32.9062C69.5495 32.3854 69.9245 31.9557 70.1953 31.6172C70.4661 31.2734 70.6562 30.9635 70.7656 30.6875C70.875 30.4115 70.9297 30.1094 70.9297 29.7812V29.7656C70.9297 29.3698 70.8438 29.0156 70.6719 28.7031C70.5 28.3906 70.2552 28.1432 69.9375 27.9609C69.6198 27.7786 69.2396 27.6875 68.7969 27.6875C68.349 27.6875 67.9557 27.7812 67.6172 27.9688C67.2786 28.151 67.0156 28.4089 66.8281 28.7422C66.6406 29.0703 66.5469 29.4557 66.5469 29.8984L66.5391 29.9141L65.1953 29.9062L65.1797 29.8984C65.1849 29.2318 65.3464 28.6406 65.6641 28.125C65.9818 27.6042 66.4193 27.1979 66.9766 26.9062C67.5339 26.6094 68.1719 26.4609 68.8906 26.4609C69.5469 26.4609 70.138 26.599 70.6641 26.875C71.1901 27.1458 71.6042 27.5182 71.9062 27.9922C72.2135 28.4661 72.3672 29.0078 72.3672 29.6172V29.6328C72.3672 30.0599 72.2917 30.4714 72.1406 30.8672C71.9948 31.263 71.7344 31.7031 71.3594 32.1875C70.9844 32.6667 70.4557 33.2578 69.7734 33.9609L66.8594 36.9688L67.2109 36.3203V36.9688L66.8672 36.7344H72.5547V38H65.2578ZM78.2075 38.2656C77.3742 38.2656 76.6606 38.026 76.0669 37.5469C75.4783 37.0677 75.0252 36.388 74.7075 35.5078C74.3898 34.6224 74.2309 33.5755 74.2309 32.3672V32.3516C74.2309 31.1432 74.3898 30.099 74.7075 29.2188C75.0252 28.3385 75.4783 27.6589 76.0669 27.1797C76.6606 26.7005 77.3742 26.4609 78.2075 26.4609C79.0408 26.4609 79.7544 26.7005 80.3481 27.1797C80.9419 27.6589 81.3976 28.3385 81.7153 29.2188C82.0382 30.099 82.1997 31.1432 82.1997 32.3516V32.3672C82.1997 33.5755 82.0382 34.6224 81.7153 35.5078C81.3976 36.388 80.9419 37.0677 80.3481 37.5469C79.7544 38.026 79.0408 38.2656 78.2075 38.2656ZM78.2075 37.0391C78.7492 37.0391 79.2101 36.849 79.5903 36.4688C79.9757 36.0885 80.27 35.5495 80.4731 34.8516C80.6815 34.1536 80.7856 33.3255 80.7856 32.3672V32.3516C80.7856 31.3932 80.6815 30.5677 80.4731 29.875C80.27 29.1771 79.9757 28.6406 79.5903 28.2656C79.2101 27.8854 78.7492 27.6953 78.2075 27.6953C77.671 27.6953 77.2101 27.8854 76.8247 28.2656C76.4445 28.6406 76.1528 29.1771 75.9497 29.875C75.7466 30.5677 75.645 31.3932 75.645 32.3516V32.3672C75.645 33.3255 75.7466 34.1536 75.9497 34.8516C76.1528 35.5495 76.4445 36.0885 76.8247 36.4688C77.2101 36.849 77.671 37.0391 78.2075 37.0391ZM84.0322 38V37.0312L87.8447 32.9062C88.3239 32.3854 88.6989 31.9557 88.9697 31.6172C89.2405 31.2734 89.4306 30.9635 89.54 30.6875C89.6494 30.4115 89.7041 30.1094 89.7041 29.7812V29.7656C89.7041 29.3698 89.6181 29.0156 89.4463 28.7031C89.2744 28.3906 89.0296 28.1432 88.7119 27.9609C88.3942 27.7786 88.014 27.6875 87.5713 27.6875C87.1233 27.6875 86.7301 27.7812 86.3916 27.9688C86.053 28.151 85.79 28.4089 85.6025 28.7422C85.415 29.0703 85.3213 29.4557 85.3213 29.8984L85.3134 29.9141L83.9697 29.9062L83.9541 29.8984C83.9593 29.2318 84.1207 28.6406 84.4384 28.125C84.7561 27.6042 85.1936 27.1979 85.7509 26.9062C86.3082 26.6094 86.9463 26.4609 87.665 26.4609C88.3213 26.4609 88.9124 26.599 89.4384 26.875C89.9645 27.1458 90.3785 27.5182 90.6806 27.9922C90.9879 28.4661 91.1416 29.0078 91.1416 29.6172V29.6328C91.1416 30.0599 91.066 30.4714 90.915 30.8672C90.7692 31.263 90.5088 31.7031 90.1338 32.1875C89.7588 32.6667 89.2301 33.2578 88.5478 33.9609L85.6338 36.9688L85.9853 36.3203V36.9688L85.6416 36.7344H91.3291V38H84.0322ZM93.2084 38V37.0312L97.0209 32.9062C97.5001 32.3854 97.8751 31.9557 98.1459 31.6172C98.4168 31.2734 98.6069 30.9635 98.7162 30.6875C98.8256 30.4115 98.8803 30.1094 98.8803 29.7812V29.7656C98.8803 29.3698 98.7944 29.0156 98.6225 28.7031C98.4506 28.3906 98.2058 28.1432 97.8881 27.9609C97.5704 27.7786 97.1902 27.6875 96.7475 27.6875C96.2996 27.6875 95.9064 27.7812 95.5678 27.9688C95.2293 28.151 94.9662 28.4089 94.7787 28.7422C94.5912 29.0703 94.4975 29.4557 94.4975 29.8984L94.4897 29.9141L93.1459 29.9062L93.1303 29.8984C93.1355 29.2318 93.297 28.6406 93.6147 28.125C93.9324 27.6042 94.3699 27.1979 94.9272 26.9062C95.4845 26.6094 96.1225 26.4609 96.8412 26.4609C97.4975 26.4609 98.0886 26.599 98.6147 26.875C99.1407 27.1458 99.5548 27.5182 99.8569 27.9922C100.164 28.4661 100.318 29.0078 100.318 29.6172V29.6328C100.318 30.0599 100.242 30.4714 100.091 30.8672C99.9454 31.263 99.685 31.7031 99.31 32.1875C98.935 32.6667 98.4064 33.2578 97.7241 33.9609L94.81 36.9688L95.1616 36.3203V36.9688L94.8178 36.7344H100.505V38H93.2084ZM106.295 34.0938V32.8281H111.545V34.0938H106.295ZM117.671 38V26.7266H119.038L125.499 35.9922L124.562 35.5H125.281V26.7266H126.671V38H125.304L118.843 28.7656L119.781 29.2578H119.062V38H117.671ZM133.801 38.2656C132.722 38.2656 131.798 38.026 131.027 37.5469C130.256 37.0625 129.663 36.3776 129.246 35.4922C128.834 34.6068 128.629 33.5651 128.629 32.3672V32.3516C128.629 31.1432 128.837 30.099 129.254 29.2188C129.676 28.3385 130.272 27.6589 131.043 27.1797C131.819 26.7005 132.738 26.4609 133.801 26.4609C134.868 26.4609 135.788 26.7005 136.558 27.1797C137.334 27.6589 137.931 28.3411 138.347 29.2266C138.764 30.1068 138.972 31.1484 138.972 32.3516V32.3672C138.972 33.5651 138.764 34.6068 138.347 35.4922C137.936 36.3724 137.342 37.0547 136.566 37.5391C135.795 38.0234 134.874 38.2656 133.801 38.2656ZM133.801 36.9688C134.571 36.9688 135.236 36.7786 135.793 36.3984C136.35 36.0182 136.78 35.4844 137.082 34.7969C137.384 34.1042 137.535 33.2943 137.535 32.3672V32.3516C137.535 31.4141 137.384 30.6016 137.082 29.9141C136.78 29.2266 136.35 28.6953 135.793 28.3203C135.236 27.9453 134.571 27.7578 133.801 27.7578C133.035 27.7578 132.374 27.9453 131.816 28.3203C131.259 28.6953 130.827 29.2266 130.519 29.9141C130.217 30.6016 130.066 31.4141 130.066 32.3516V32.3672C130.066 33.2943 130.215 34.1042 130.512 34.7969C130.808 35.4844 131.236 36.0182 131.793 36.3984C132.35 36.7786 133.019 36.9688 133.801 36.9688ZM142.797 38L139.727 26.7266H141.196L143.438 35.8906H143.532L146.055 26.7266H147.477L150 35.8906H150.094L152.336 26.7266H153.805L150.735 38H149.407L146.813 29.1016H146.719L144.125 38H142.797Z" fill="black"/>
<path d="M31 30V3H4C18.5 3 31 14 31 30Z" fill="#0E0E11"/>
<path d="M188 89V62H161C175.5 62 188 73 188 89Z" fill="#0E0E11"/>
</svg>
