<svg width="48" height="48" viewBox="0 0 48 48" fill="none" xmlns="http://www.w3.org/2000/svg">
<rect width="48" height="48" rx="10" fill="#FFE3E8"/>
<rect x="13.6767" y="20.9215" width="21.1334" height="3.43425" fill="white" stroke="#0F101C" stroke-width="0.676471"/>
<mask id="mask0_553_2630" style="mask-type:alpha" maskUnits="userSpaceOnUse" x="13" y="21" width="22" height="4">
<rect x="13.93" y="21.2169" width="20.626" height="2.70588" fill="#D9D9D9" stroke="#C22525" stroke-width="0.169118"/>
</mask>
<g mask="url(#mask0_553_2630)">
<path d="M20.8642 21.1324H18.142L16.2915 24.4579H19.0303L20.8642 21.1324Z" fill="#0F101C"/>
<path d="M16.2795 24.4794L16.2915 24.4579M16.2915 24.4579L18.142 21.1324H20.8642L19.0303 24.4579H16.2915Z" stroke="#0F101C" stroke-width="0.169118"/>
<path d="M15.3759 21.1324H12.6538L10.8032 24.4579H13.542L15.3759 21.1324Z" fill="#0F101C"/>
<path d="M10.7913 24.4794L10.8032 24.4579M10.8032 24.4579L12.6538 21.1324H15.3759L13.542 24.4579H10.8032Z" stroke="#0F101C" stroke-width="0.169118"/>
<path d="M31.8385 21.1324H29.1164L27.2658 24.4579H30.0047L31.8385 21.1324Z" fill="#0F101C"/>
<path d="M27.2539 24.4794L27.2658 24.4579M27.2658 24.4579L29.1164 21.1324H31.8385L30.0047 24.4579H27.2658Z" stroke="#0F101C" stroke-width="0.169118"/>
<path d="M37.3402 21.1324H34.6181L32.7676 24.4579H35.5064L37.3402 21.1324Z" fill="#0F101C"/>
<path d="M32.7556 24.4794L32.7676 24.4579M32.7676 24.4579L34.6181 21.1324H37.3402L35.5064 24.4579H32.7676Z" stroke="#0F101C" stroke-width="0.169118"/>
<path d="M26.3656 21.1324H23.6435L21.7929 24.4579H24.5318L26.3656 21.1324Z" fill="#0F101C"/>
<path d="M21.781 24.4794L21.7929 24.4579M21.7929 24.4579L23.6435 21.1324H26.3656L24.5318 24.4579H21.7929Z" stroke="#0F101C" stroke-width="0.169118"/>
</g>
<path d="M14.0229 20.5407L13.6961 20.628L13.6088 20.3012L13.2461 18.944C13.005 18.0417 13.541 17.1147 14.4433 16.8736L31.5927 12.2909C32.495 12.0498 33.422 12.5858 33.6631 13.4882L34.0258 14.8454L34.1131 15.1721L33.7863 15.2595L14.0229 20.5407Z" fill="white" stroke="#0F101C" stroke-width="0.676471"/>
<mask id="mask1_553_2630" style="mask-type:alpha" maskUnits="userSpaceOnUse" x="13" y="12" width="21" height="9">
<path d="M33.4394 13.3071C33.2465 12.5852 32.5049 12.1564 31.783 12.3493L14.307 17.0192C13.5851 17.2121 13.1563 17.9537 13.3492 18.6756L13.832 20.4824L33.9222 15.1138L33.4394 13.3071Z" fill="#D9D9D9"/>
</mask>
<g mask="url(#mask1_553_2630)">
<path d="M26.2288 13.8335L28.8586 13.1307L31.6089 16.2548L28.9629 16.9619L26.2288 13.8335Z" fill="#0F101C"/>
<path d="M31.5715 12.4058L34.2014 11.7031L36.9517 14.8271L34.3057 15.5342L31.5715 12.4058Z" fill="#0F101C"/>
<path d="M15.6265 16.6667L18.2563 15.964L21.0066 19.088L18.3606 19.7951L15.6265 16.6667Z" fill="#0F101C"/>
<path d="M10.3113 18.087L12.9411 17.3842L15.6914 20.5083L13.0454 21.2154L10.3113 18.087Z" fill="#0F101C"/>
<path d="M20.9138 15.2538L23.5437 14.551L26.294 17.6751L23.648 18.3822L20.9138 15.2538Z" fill="#0F101C"/>
</g>
<path d="M14.0149 24.1764H13.6767V24.5147V31.6176C13.6767 33.6725 15.3424 35.3382 17.3972 35.3382H31.0958C33.1506 35.3382 34.8164 33.6725 34.8164 31.6176V24.5147V24.1764H34.4781H14.0149Z" fill="#0F101C" stroke="#0F101C" stroke-width="0.676471"/>
<line x1="16.2979" y1="26.2905" x2="32.0258" y2="26.2905" stroke="white" stroke-width="0.507353" stroke-linecap="round"/>
<line x1="16.2979" y1="28.8272" x2="32.0258" y2="28.8272" stroke="white" stroke-width="0.507353" stroke-linecap="round"/>
<line x1="16.2979" y1="31.3639" x2="28.4743" y2="31.3639" stroke="white" stroke-width="0.507353" stroke-linecap="round"/>
</svg>
