<svg width="126" height="31" viewBox="0 0 126 31" fill="none" xmlns="http://www.w3.org/2000/svg">
<path d="M11.1982 18.1918C10.4886 18.179 9.8718 18.0384 9.34766 17.7699C8.8299 17.495 8.40483 17.1275 8.07244 16.6673C7.74645 16.2006 7.51314 15.6701 7.37251 15.0756C7.23189 14.4812 7.19034 13.858 7.24787 13.206L7.28622 12.7937C7.35014 12.1289 7.51314 11.4769 7.77521 10.8377C8.03729 10.1921 8.38565 9.61044 8.82031 9.09268C9.26136 8.57493 9.77912 8.16584 10.3736 7.86541C10.9744 7.55859 11.6392 7.41477 12.3679 7.43395C13.0902 7.44673 13.6911 7.60014 14.1705 7.89418C14.6499 8.18821 15.0238 8.57812 15.2923 9.06392C15.5671 9.54332 15.7461 10.0835 15.8292 10.6843C15.9123 11.2788 15.9187 11.8892 15.8484 12.5156L15.7429 13.3114H8.21626L8.44638 11.8636L14.1896 11.8732L14.2184 11.7198C14.2823 11.2596 14.2567 10.8153 14.1417 10.3871C14.0266 9.95881 13.8157 9.60724 13.5089 9.33239C13.2085 9.05114 12.8026 8.90412 12.2912 8.89134C11.7607 8.87216 11.3004 8.98082 10.9105 9.21733C10.5206 9.44744 10.1946 9.76065 9.93253 10.157C9.67045 10.5469 9.46271 10.9751 9.3093 11.4418C9.16229 11.902 9.06001 12.3526 9.00249 12.7937L8.96413 13.1964C8.92578 13.6055 8.93857 14.0178 9.00249 14.4332C9.06641 14.8487 9.18786 15.229 9.36683 15.5742C9.5522 15.913 9.80788 16.1911 10.1339 16.4084C10.4599 16.6193 10.8626 16.7312 11.342 16.744C11.9237 16.7567 12.4446 16.6321 12.9048 16.37C13.3714 16.1016 13.7965 15.7628 14.18 15.3537L15.1676 16.1974C14.8672 16.6385 14.5092 17.0092 14.0938 17.3097C13.6783 17.6101 13.2244 17.8338 12.7322 17.9808C12.2401 18.1278 11.7287 18.1982 11.1982 18.1918ZM25.0788 13.5703L26.8526 13.5511C26.6609 14.5099 26.2997 15.3409 25.7692 16.044C25.245 16.7472 24.5835 17.2873 23.7844 17.6644C22.9918 18.0415 22.1033 18.2173 21.119 18.1918C20.2369 18.1726 19.4954 17.9712 18.8945 17.5877C18.3001 17.2042 17.8335 16.6992 17.4947 16.0728C17.1623 15.4464 16.9418 14.756 16.8331 14.0018C16.7308 13.2475 16.7308 12.4869 16.8331 11.7198L17.0344 10.3295C17.1623 9.4858 17.3924 8.67401 17.7248 7.89418C18.0636 7.10795 18.5014 6.40803 19.0384 5.79439C19.5817 5.18075 20.2209 4.69815 20.956 4.34659C21.6974 3.99503 22.538 3.82883 23.4776 3.84801C24.4173 3.86719 25.2035 4.07812 25.8363 4.48082C26.4691 4.88352 26.9485 5.43324 27.2745 6.12997C27.6069 6.8267 27.7859 7.62571 27.8114 8.52699H26.0281C26.0089 7.93892 25.9162 7.40838 25.75 6.93537C25.5838 6.46236 25.3121 6.08523 24.935 5.80398C24.5579 5.52273 24.0465 5.37251 23.4009 5.35334C22.6978 5.33416 22.081 5.4652 21.5504 5.74645C21.0263 6.0277 20.5788 6.41122 20.2081 6.89702C19.8374 7.37642 19.5401 7.91335 19.3164 8.50781C19.0927 9.10227 18.9329 9.70312 18.837 10.3104L18.6261 11.7294C18.5558 12.2344 18.5302 12.7713 18.5494 13.3402C18.5685 13.9027 18.6612 14.4364 18.8274 14.9414C19 15.44 19.2749 15.8523 19.652 16.1783C20.0355 16.4979 20.5533 16.6673 21.2053 16.6864C21.9212 16.712 22.5316 16.6001 23.0366 16.3509C23.5415 16.1016 23.9602 15.7404 24.2926 15.2674C24.625 14.788 24.8871 14.2223 25.0788 13.5703ZM31.7589 3.27273L29.1989 18H27.4634L30.0139 3.27273H31.7589ZM34.642 7.62571L32.8395 18H31.104L32.9066 7.62571H34.642ZM33.2518 4.9027C33.2518 4.60227 33.3445 4.35298 33.5298 4.15483C33.7216 3.95028 33.9677 3.84482 34.2681 3.83842C34.5685 3.83203 34.8146 3.92472 35.0064 4.11648C35.2045 4.30824 35.3004 4.55114 35.294 4.84517C35.294 5.1392 35.195 5.3853 34.9968 5.58345C34.805 5.77521 34.5621 5.87429 34.2681 5.88068C33.9741 5.88707 33.7312 5.80078 33.5394 5.6218C33.3477 5.43643 33.2518 5.19673 33.2518 4.9027ZM37.7362 9.94602L36.3363 18H34.6009L36.4034 7.62571H38.043L37.7362 9.94602ZM36.9308 12.4197L36.2212 12.4006C36.3107 11.7805 36.4737 11.1733 36.7102 10.5788C36.9531 9.97798 37.2695 9.43785 37.6594 8.95845C38.0558 8.47905 38.5256 8.10192 39.0689 7.82706C39.6186 7.54581 40.245 7.41477 40.9482 7.43395C41.5043 7.44673 41.9677 7.5554 42.3384 7.75994C42.7156 7.9581 43.0096 8.22976 43.2205 8.57493C43.4315 8.9201 43.5721 9.3196 43.6424 9.77344C43.7127 10.2209 43.7191 10.6971 43.6616 11.2021L42.5302 18H40.7852L41.9357 11.1733C41.9805 10.7578 41.9645 10.3839 41.8878 10.0515C41.8175 9.71271 41.6577 9.44425 41.4084 9.24609C41.1655 9.04155 40.8139 8.93288 40.3537 8.9201C39.8679 8.90732 39.43 9 39.0401 9.19815C38.6502 9.39631 38.3082 9.66797 38.0142 10.0131C37.7266 10.3519 37.4901 10.7322 37.3047 11.1541C37.1257 11.5696 37.0011 11.9915 36.9308 12.4197ZM47.8104 7.62571L46.0078 18H44.2724L46.0749 7.62571H47.8104ZM46.4201 4.9027C46.4201 4.60227 46.5128 4.35298 46.6982 4.15483C46.8899 3.95028 47.136 3.84482 47.4364 3.83842C47.7369 3.83203 47.983 3.92472 48.1747 4.11648C48.3729 4.30824 48.4688 4.55114 48.4624 4.84517C48.4624 5.1392 48.3633 5.3853 48.1651 5.58345C47.9734 5.77521 47.7305 5.87429 47.4364 5.88068C47.1424 5.88707 46.8995 5.80078 46.7077 5.6218C46.516 5.43643 46.4201 5.19673 46.4201 4.9027ZM52.0934 16.744C52.5153 16.7504 52.9084 16.6705 53.2727 16.5043C53.6371 16.3381 53.9471 16.1016 54.2028 15.7947C54.4585 15.4879 54.6406 15.1332 54.7493 14.7305L56.3984 14.7209C56.2962 15.4176 56.0245 16.0281 55.5835 16.5522C55.1488 17.0763 54.6151 17.4854 53.9822 17.7795C53.3558 18.0671 52.7006 18.2045 52.0167 18.1918C51.288 18.179 50.668 18.0288 50.1566 17.7411C49.6516 17.4471 49.2457 17.0572 48.9389 16.5714C48.6321 16.0856 48.4212 15.5391 48.3061 14.9318C48.1911 14.3182 48.1655 13.6886 48.2294 13.043L48.2678 12.6307C48.3445 11.9339 48.5139 11.2724 48.7759 10.646C49.038 10.0131 49.3864 9.45384 49.821 8.96804C50.2621 8.47585 50.783 8.09233 51.3839 7.81747C51.9847 7.54261 52.6591 7.41477 53.407 7.43395C54.1357 7.44673 54.7685 7.61932 55.3054 7.9517C55.8423 8.2777 56.2578 8.72195 56.5518 9.28445C56.8459 9.84695 56.9929 10.4862 56.9929 11.2021L55.3629 11.1925C55.3565 10.7834 55.2766 10.4062 55.1232 10.0611C54.9698 9.71591 54.7429 9.43785 54.4425 9.22692C54.142 9.01598 53.7713 8.90092 53.3303 8.88175C52.7997 8.86896 52.3363 8.96804 51.94 9.17898C51.5501 9.38991 51.2177 9.68075 50.9428 10.0515C50.6744 10.4158 50.4602 10.8217 50.3004 11.2692C50.147 11.7166 50.0416 12.1705 49.984 12.6307L49.9361 13.0334C49.8977 13.4425 49.8913 13.8612 49.9169 14.2894C49.9489 14.7177 50.0384 15.1172 50.1854 15.4879C50.3324 15.8523 50.5593 16.1495 50.8661 16.3796C51.1729 16.6097 51.582 16.7312 52.0934 16.744ZM63.0114 16.2262L63.8743 10.8665C63.919 10.4702 63.8807 10.1218 63.7592 9.82138C63.6442 9.52095 63.4492 9.28764 63.1744 9.12145C62.9059 8.95526 62.5671 8.86577 62.158 8.85298C61.8001 8.84659 61.4485 8.90412 61.1033 9.02557C60.7646 9.14702 60.4705 9.32919 60.2212 9.57209C59.9719 9.81499 59.809 10.1218 59.7322 10.4925L58.0064 10.5021C58.0511 9.98437 58.2141 9.53374 58.4954 9.15021C58.7766 8.7603 59.1282 8.4375 59.5501 8.18182C59.9719 7.91974 60.4258 7.72798 60.9116 7.60653C61.3974 7.47869 61.8704 7.41797 62.3306 7.42436C63.0273 7.43714 63.6314 7.58736 64.1428 7.875C64.6605 8.15625 65.0504 8.55256 65.3125 9.06392C65.5746 9.57528 65.6705 10.1889 65.6001 10.9048L64.8043 15.7372C64.7468 16.0888 64.7117 16.4435 64.6989 16.8015C64.6925 17.1531 64.734 17.4982 64.8235 17.837L64.8043 18L63.0497 18.0096C62.9794 17.7156 62.9443 17.4183 62.9443 17.1179C62.9506 16.8175 62.973 16.5202 63.0114 16.2262ZM64.0756 11.7102L63.8743 12.9567L62.2347 12.9471C61.8896 12.9471 61.5252 12.9727 61.1417 13.0238C60.7582 13.0749 60.3938 13.1708 60.0487 13.3114C59.7035 13.4521 59.4126 13.6566 59.1761 13.9251C58.9396 14.1871 58.7958 14.5291 58.7447 14.951C58.7063 15.2962 58.7479 15.5966 58.8693 15.8523C58.9972 16.1016 59.1889 16.2965 59.4446 16.4371C59.7003 16.5778 59.9975 16.6513 60.3363 16.6577C60.7773 16.6641 61.212 16.5778 61.6403 16.3988C62.0685 16.2198 62.4425 15.9641 62.7621 15.6317C63.0817 15.2994 63.3022 14.9158 63.4237 14.4812L64.0565 15.3345C63.935 15.7564 63.7369 16.1463 63.462 16.5043C63.1871 16.8558 62.8612 17.1594 62.484 17.4151C62.1133 17.6708 61.7138 17.869 61.2855 18.0096C60.8572 18.1502 60.429 18.2173 60.0007 18.2109C59.419 18.1982 58.8917 18.0671 58.4187 17.8178C57.9521 17.5685 57.5813 17.2202 57.3065 16.7727C57.038 16.3189 56.9229 15.7915 56.9613 15.1907C56.9996 14.5323 57.1722 13.9794 57.4791 13.532C57.7859 13.0845 58.179 12.7266 58.6584 12.4581C59.1442 12.1896 59.6747 11.9979 60.25 11.8828C60.8253 11.7614 61.3942 11.7006 61.9567 11.7006L64.0756 11.7102ZM70.5543 3.27273L67.9943 18H66.2589L68.8093 3.27273H70.5543ZM74.3484 13.695L78.5288 4.03977H79.8903L78.5096 7.90376L74.0607 18H72.7088L74.3484 13.695ZM73.0732 4.03977L73.7251 13.6854L73.6772 18H72.4212L71.3185 4.03977H73.0732ZM81.8462 13.4936L85.4034 4.03977H87.2539L81.7983 18H80.456L81.8462 13.4936ZM80.0341 4.03977L81.1367 13.8675L81.4148 18H80.1587L78.9506 7.74077L78.7876 4.03977H80.0341ZM85.7937 12.9854L85.8224 12.7649C85.8992 12.0682 86.0717 11.397 86.3402 10.7514C86.6151 10.1058 86.9762 9.53054 87.4237 9.02557C87.8711 8.5206 88.4016 8.12429 89.0153 7.83665C89.6289 7.54901 90.3129 7.41477 91.0671 7.43395C91.7958 7.44673 92.419 7.60334 92.9368 7.90376C93.4609 8.20419 93.8828 8.60369 94.2024 9.10227C94.5284 9.59446 94.7553 10.1506 94.8832 10.7706C95.011 11.3906 95.043 12.0298 94.9791 12.6882L94.9599 12.9087C94.8768 13.6055 94.6978 14.2734 94.4229 14.9126C94.1481 15.5518 93.7837 16.1207 93.3299 16.6193C92.8825 17.1179 92.3519 17.511 91.7383 17.7987C91.1246 18.0799 90.4439 18.2109 89.696 18.1918C88.9737 18.179 88.3505 18.0256 87.8264 17.7315C87.3086 17.4311 86.8899 17.0348 86.5703 16.5426C86.2507 16.0504 86.027 15.4975 85.8992 14.8839C85.7713 14.2702 85.7362 13.6374 85.7937 12.9854ZM87.5483 12.7649L87.5291 12.995C87.4844 13.3977 87.4812 13.8164 87.5195 14.2511C87.5643 14.6857 87.6666 15.0884 87.8264 15.4592C87.9925 15.8299 88.2322 16.1335 88.5455 16.37C88.8587 16.6065 89.2646 16.7312 89.7631 16.744C90.2937 16.7567 90.7603 16.6545 91.163 16.4371C91.5657 16.2134 91.9077 15.913 92.1889 15.5359C92.4766 15.1587 92.7035 14.7401 92.8697 14.2798C93.0423 13.8196 93.1573 13.3626 93.2148 12.9087L93.234 12.6882C93.2788 12.2855 93.2788 11.8668 93.234 11.4322C93.1957 10.9911 93.0934 10.582 92.9272 10.2049C92.7674 9.82138 92.5309 9.51136 92.2177 9.27486C91.9045 9.03196 91.4986 8.90412 91 8.89134C90.4695 8.87216 89.9996 8.97763 89.5906 9.20774C89.1879 9.43146 88.8459 9.73509 88.5646 10.1186C88.2834 10.5021 88.0565 10.9272 87.8839 11.3938C87.7177 11.854 87.6058 12.3111 87.5483 12.7649ZM98.4567 9.33239L96.9514 18H95.2159L97.0185 7.62571H98.706L98.4567 9.33239ZM101.822 7.53942L101.659 9.20774C101.525 9.18217 101.387 9.1598 101.247 9.14062C101.113 9.12145 100.978 9.11186 100.844 9.11186C100.429 9.10547 100.055 9.16939 99.7223 9.30362C99.3963 9.43146 99.1055 9.61364 98.8498 9.85014C98.6005 10.0866 98.3864 10.3647 98.2074 10.6843C98.0348 11.0039 97.8974 11.3491 97.7951 11.7198L97.2486 12.0075C97.3189 11.4897 97.434 10.9592 97.5938 10.4158C97.7599 9.87251 97.9869 9.37074 98.2745 8.91051C98.5685 8.45028 98.9361 8.07955 99.3771 7.7983C99.8246 7.51705 100.362 7.38601 100.988 7.40518C101.129 7.40518 101.266 7.41797 101.4 7.44354C101.541 7.4691 101.681 7.50107 101.822 7.53942ZM104.983 3.27273L102.423 18H100.678L103.238 3.27273H104.983ZM110.449 7.62571L105.309 12.3814L102.212 15.1715L102.423 13.1197L104.494 11.0103L108.186 7.62571H110.449ZM107.064 18L104.264 12.9567L105.367 11.4705L108.962 18H107.064ZM115.748 15.1907C115.805 14.7944 115.732 14.4844 115.527 14.2607C115.329 14.0369 115.067 13.8675 114.741 13.7525C114.422 13.631 114.108 13.532 113.801 13.4553C113.418 13.3594 113.031 13.2411 112.641 13.1005C112.251 12.9599 111.893 12.7809 111.567 12.5636C111.248 12.3398 110.992 12.065 110.8 11.739C110.615 11.4066 110.532 11.0039 110.551 10.5309C110.577 10.0195 110.711 9.56889 110.954 9.17898C111.203 8.78906 111.523 8.46307 111.913 8.20099C112.309 7.93892 112.74 7.74396 113.207 7.61612C113.674 7.48828 114.137 7.42756 114.597 7.43395C115.249 7.44673 115.841 7.58097 116.371 7.83665C116.908 8.09233 117.333 8.45987 117.646 8.93928C117.96 9.41868 118.107 10.0004 118.087 10.6843L116.371 10.6747C116.384 10.3104 116.31 9.99716 116.151 9.73509C115.991 9.47301 115.77 9.27166 115.489 9.13104C115.208 8.98402 114.888 8.90732 114.53 8.90092C114.191 8.89453 113.859 8.94886 113.533 9.06392C113.207 9.17259 112.929 9.34517 112.699 9.58168C112.469 9.81179 112.328 10.1122 112.277 10.483C112.239 10.7578 112.28 10.9847 112.402 11.1637C112.523 11.3363 112.689 11.4769 112.9 11.5856C113.118 11.6879 113.344 11.7741 113.581 11.8445C113.824 11.9084 114.044 11.9659 114.243 12.017C114.767 12.1641 115.284 12.3494 115.796 12.5732C116.307 12.7969 116.723 13.1069 117.042 13.5032C117.362 13.8931 117.506 14.4077 117.474 15.0469C117.448 15.5902 117.304 16.0632 117.042 16.4659C116.787 16.8622 116.454 17.1914 116.045 17.4535C115.642 17.7092 115.198 17.8977 114.712 18.0192C114.227 18.1406 113.741 18.1982 113.255 18.1918C112.584 18.179 111.957 18.0415 111.376 17.7795C110.8 17.511 110.34 17.1275 109.995 16.6289C109.65 16.1239 109.487 15.5103 109.506 14.788L111.241 14.7976C111.241 15.2131 111.328 15.5646 111.5 15.8523C111.679 16.1335 111.925 16.3477 112.239 16.4947C112.552 16.6417 112.91 16.7184 113.313 16.7248C113.651 16.7312 113.996 16.6864 114.348 16.5906C114.706 16.4947 115.013 16.3349 115.268 16.1112C115.531 15.881 115.69 15.5742 115.748 15.1907Z" fill="white"/>
<path d="M11.5078 23.3125L10.5195 29H9.78516L10.7734 23.3125H11.5078ZM13.0156 25.6562L12.4375 29H11.7266L12.4609 24.7734H13.1328L13.0156 25.6562ZM12.6992 26.7266L12.3789 26.7188C12.4154 26.4557 12.4805 26.2018 12.5742 25.957C12.668 25.7122 12.793 25.4935 12.9492 25.3008C13.1081 25.1081 13.2995 24.957 13.5234 24.8477C13.7474 24.7383 14.0065 24.6875 14.3008 24.6953C14.5195 24.7005 14.7044 24.7435 14.8555 24.8242C15.0065 24.9023 15.1276 25.0104 15.2188 25.1484C15.3125 25.2839 15.375 25.4401 15.4062 25.6172C15.4401 25.7943 15.4479 25.9831 15.4297 26.1836L14.957 29H14.25L14.7188 26.2148C14.7396 26.0378 14.7292 25.8815 14.6875 25.7461C14.6484 25.6107 14.5742 25.5039 14.4648 25.4258C14.3555 25.3451 14.207 25.3021 14.0195 25.2969C13.8086 25.2917 13.625 25.3281 13.4688 25.4062C13.3151 25.4844 13.1862 25.5924 13.082 25.7305C12.9805 25.8659 12.8984 26.0208 12.8359 26.1953C12.7734 26.3672 12.7279 26.5443 12.6992 26.7266ZM15.4297 26.3281L14.9219 26.4766C14.9531 26.2344 15.0182 26.0052 15.1172 25.7891C15.2188 25.5729 15.3503 25.3815 15.5117 25.2148C15.6732 25.0482 15.8607 24.918 16.0742 24.8242C16.2878 24.7305 16.5234 24.6862 16.7812 24.6914C17.0104 24.6966 17.2044 24.7396 17.3633 24.8203C17.5221 24.8984 17.6484 25.0065 17.7422 25.1445C17.8385 25.2826 17.9023 25.444 17.9336 25.6289C17.9674 25.8112 17.9727 26.0091 17.9492 26.2227L17.4844 29H16.7734L17.2422 26.2109C17.263 26.0312 17.2539 25.8737 17.2148 25.7383C17.1784 25.6029 17.1055 25.4974 16.9961 25.4219C16.8867 25.3438 16.7357 25.3034 16.543 25.3008C16.3893 25.2956 16.2487 25.319 16.1211 25.3711C15.9935 25.4232 15.8828 25.4974 15.7891 25.5938C15.6953 25.6875 15.6172 25.7969 15.5547 25.9219C15.4948 26.0469 15.4531 26.1823 15.4297 26.3281ZM19.832 25.6289L18.9648 30.625H18.2539L19.2695 24.7734H19.918L19.832 25.6289ZM22.375 26.8281L22.3672 26.9102C22.3333 27.1654 22.2708 27.4232 22.1797 27.6836C22.0911 27.9414 21.9701 28.1771 21.8164 28.3906C21.6628 28.6042 21.474 28.7747 21.25 28.9023C21.0286 29.0299 20.7682 29.0898 20.4688 29.082C20.2057 29.0768 19.9805 29.0195 19.793 28.9102C19.6055 28.7982 19.4544 28.651 19.3398 28.4688C19.2253 28.2839 19.1432 28.0781 19.0938 27.8516C19.0469 27.6224 19.0312 27.388 19.0469 27.1484L19.1016 26.7148C19.1458 26.4596 19.2201 26.2109 19.3242 25.9688C19.431 25.724 19.5664 25.5039 19.7305 25.3086C19.8945 25.1133 20.0885 24.9609 20.3125 24.8516C20.5391 24.7396 20.7956 24.6875 21.082 24.6953C21.3711 24.7031 21.6055 24.7734 21.7852 24.9062C21.9674 25.0365 22.1055 25.207 22.1992 25.418C22.2956 25.6263 22.3555 25.8542 22.3789 26.1016C22.4023 26.3464 22.401 26.5885 22.375 26.8281ZM21.6562 26.9062L21.668 26.8203C21.6862 26.6641 21.6901 26.4987 21.6797 26.3242C21.6719 26.1497 21.6393 25.987 21.582 25.8359C21.5273 25.6823 21.4401 25.556 21.3203 25.457C21.2031 25.3581 21.043 25.306 20.8398 25.3008C20.6784 25.2956 20.5247 25.3229 20.3789 25.3828C20.2357 25.4401 20.1055 25.5221 19.9883 25.6289C19.8711 25.7331 19.7708 25.8542 19.6875 25.9922C19.6042 26.1276 19.543 26.2708 19.5039 26.4219L19.3359 27.4414C19.3333 27.6263 19.3737 27.7982 19.457 27.957C19.5404 28.1133 19.6536 28.2396 19.7969 28.3359C19.9427 28.4323 20.1081 28.4831 20.293 28.4883C20.5091 28.4935 20.6966 28.4505 20.8555 28.3594C21.0169 28.2656 21.1523 28.1406 21.2617 27.9844C21.3711 27.8255 21.4583 27.6523 21.5234 27.4648C21.5885 27.2747 21.6328 27.0885 21.6562 26.9062ZM24.2188 25.4688L23.6055 29H22.8984L23.6328 24.7734H24.3203L24.2188 25.4688ZM25.5898 24.7383L25.5234 25.418C25.4688 25.4076 25.4128 25.3984 25.3555 25.3906C25.3008 25.3828 25.2461 25.3789 25.1914 25.3789C25.0221 25.3763 24.8698 25.4023 24.7344 25.457C24.6016 25.5091 24.4831 25.5833 24.3789 25.6797C24.2773 25.776 24.1901 25.8893 24.1172 26.0195C24.0469 26.1497 23.9909 26.2904 23.9492 26.4414L23.7266 26.5586C23.7552 26.3477 23.8021 26.1315 23.8672 25.9102C23.9349 25.6888 24.0273 25.4844 24.1445 25.2969C24.2643 25.1094 24.4141 24.9583 24.5938 24.8438C24.776 24.7292 24.9948 24.6758 25.25 24.6836C25.3073 24.6836 25.3633 24.6888 25.418 24.6992C25.4753 24.7096 25.5326 24.7227 25.5898 24.7383ZM25.6367 26.957L25.6484 26.8672C25.6797 26.5833 25.75 26.3099 25.8594 26.0469C25.9714 25.7839 26.1185 25.5495 26.3008 25.3438C26.4831 25.138 26.6992 24.9766 26.9492 24.8594C27.1992 24.7422 27.4779 24.6875 27.7852 24.6953C28.082 24.7005 28.3359 24.7643 28.5469 24.8867C28.7604 25.0091 28.9323 25.1719 29.0625 25.375C29.1953 25.5755 29.2878 25.8021 29.3398 26.0547C29.3919 26.3073 29.4049 26.5677 29.3789 26.8359L29.3711 26.9258C29.3372 27.2096 29.2643 27.4818 29.1523 27.7422C29.0404 28.0026 28.8919 28.2344 28.707 28.4375C28.5247 28.6406 28.3086 28.8008 28.0586 28.918C27.8086 29.0326 27.5312 29.0859 27.2266 29.0781C26.9323 29.0729 26.6784 29.0104 26.4648 28.8906C26.2539 28.7682 26.0833 28.6068 25.9531 28.4062C25.8229 28.2057 25.7318 27.9805 25.6797 27.7305C25.6276 27.4805 25.6133 27.2227 25.6367 26.957ZM26.3516 26.8672L26.3438 26.9609C26.3255 27.125 26.3242 27.2956 26.3398 27.4727C26.3581 27.6497 26.3997 27.8138 26.4648 27.9648C26.5326 28.1159 26.6302 28.2396 26.7578 28.3359C26.8854 28.4323 27.0508 28.4831 27.2539 28.4883C27.4701 28.4935 27.6602 28.4518 27.8242 28.3633C27.9883 28.2721 28.1276 28.1497 28.2422 27.9961C28.3594 27.8424 28.4518 27.6719 28.5195 27.4844C28.5898 27.2969 28.6367 27.1107 28.6602 26.9258L28.668 26.8359C28.6862 26.6719 28.6862 26.5013 28.668 26.3242C28.6523 26.1445 28.6107 25.9779 28.543 25.8242C28.4779 25.668 28.3815 25.5417 28.2539 25.4453C28.1263 25.3464 27.9609 25.2943 27.7578 25.2891C27.5417 25.2812 27.3503 25.3242 27.1836 25.418C27.0195 25.5091 26.8802 25.6328 26.7656 25.7891C26.651 25.9453 26.5586 26.1185 26.4883 26.3086C26.4206 26.4961 26.375 26.6823 26.3516 26.8672ZM31.2148 28.3125L32.8789 24.7734H33.625L31.4883 29H30.9922L31.2148 28.3125ZM30.8242 24.7734L31.4258 28.4023L31.4062 29H30.9531L30.125 24.7734H30.8242ZM35.0781 24.7734L34.3438 29H33.6367L34.3711 24.7734H35.0781ZM34.5117 23.6641C34.5117 23.5417 34.5495 23.4401 34.625 23.3594C34.7031 23.276 34.8034 23.2331 34.9258 23.2305C35.0482 23.2279 35.1484 23.2656 35.2266 23.3438C35.3073 23.4219 35.3464 23.5208 35.3438 23.6406C35.3438 23.7604 35.3034 23.8607 35.2227 23.9414C35.1445 24.0195 35.0456 24.0599 34.9258 24.0625C34.806 24.0651 34.707 24.0299 34.6289 23.957C34.5508 23.8815 34.5117 23.7839 34.5117 23.6641ZM36.7461 25.7188L36.1758 29H35.4688L36.2031 24.7734H36.8711L36.7461 25.7188ZM36.418 26.7266L36.1289 26.7188C36.1654 26.4661 36.2318 26.2188 36.3281 25.9766C36.4271 25.7318 36.556 25.5117 36.7148 25.3164C36.8763 25.1211 37.0677 24.9674 37.2891 24.8555C37.513 24.7409 37.7682 24.6875 38.0547 24.6953C38.2812 24.7005 38.4701 24.7448 38.6211 24.8281C38.7747 24.9089 38.8945 25.0195 38.9805 25.1602C39.0664 25.3008 39.1237 25.4635 39.1523 25.6484C39.181 25.8307 39.1836 26.0247 39.1602 26.2305L38.6992 29H37.9883L38.457 26.2188C38.4753 26.0495 38.4688 25.8971 38.4375 25.7617C38.4089 25.6237 38.3438 25.5143 38.2422 25.4336C38.1432 25.3503 38 25.306 37.8125 25.3008C37.6146 25.2956 37.4362 25.3333 37.2773 25.4141C37.1185 25.4948 36.9792 25.6055 36.8594 25.7461C36.7422 25.8841 36.6458 26.0391 36.5703 26.2109C36.4974 26.3802 36.4466 26.5521 36.418 26.7266ZM43.1445 24.7734H43.793L43.0859 28.9062C43.0365 29.2578 42.9232 29.5677 42.7461 29.8359C42.5716 30.1042 42.3424 30.3125 42.0586 30.4609C41.7773 30.6094 41.4557 30.6797 41.0938 30.6719C40.9036 30.6667 40.7174 30.6341 40.5352 30.5742C40.3529 30.5143 40.1849 30.4297 40.0312 30.3203C39.8776 30.2109 39.7487 30.0768 39.6445 29.918L40.0508 29.4961C40.1732 29.6706 40.3177 29.8086 40.4844 29.9102C40.6536 30.0143 40.8464 30.0703 41.0625 30.0781C41.2995 30.0833 41.5091 30.0391 41.6914 29.9453C41.8763 29.8542 42.026 29.7227 42.1406 29.5508C42.2578 29.3789 42.3346 29.1771 42.3711 28.9453L42.9258 25.668L43.1445 24.7734ZM39.9531 26.9648L39.9648 26.8789C39.9961 26.6185 40.0573 26.3581 40.1484 26.0977C40.2422 25.8372 40.3672 25.6003 40.5234 25.3867C40.6797 25.1706 40.8711 25 41.0977 24.875C41.3242 24.7474 41.5885 24.6862 41.8906 24.6914C42.1641 24.6992 42.3919 24.763 42.5742 24.8828C42.7565 25.0026 42.8997 25.1615 43.0039 25.3594C43.1107 25.5547 43.1823 25.7695 43.2188 26.0039C43.2578 26.2383 43.2695 26.474 43.2539 26.7109L43.2109 27.0703C43.1667 27.3229 43.0938 27.5703 42.9922 27.8125C42.8906 28.0547 42.7591 28.2734 42.5977 28.4688C42.4362 28.6615 42.2435 28.8138 42.0195 28.9258C41.7982 29.0378 41.5456 29.0898 41.2617 29.082C40.9831 29.0716 40.7526 29 40.5703 28.8672C40.3906 28.7344 40.2513 28.5638 40.1523 28.3555C40.0534 28.1445 39.9896 27.918 39.9609 27.6758C39.9323 27.431 39.9297 27.194 39.9531 26.9648ZM40.6758 26.875L40.6641 26.9609C40.6458 27.1172 40.6406 27.2812 40.6484 27.4531C40.6562 27.625 40.6862 27.7878 40.7383 27.9414C40.7904 28.0924 40.8737 28.2174 40.9883 28.3164C41.1055 28.4128 41.2643 28.4635 41.4648 28.4688C41.6784 28.4766 41.8763 28.4297 42.0586 28.3281C42.2409 28.2266 42.3971 28.0911 42.5273 27.9219C42.6576 27.7526 42.7513 27.569 42.8086 27.3711L42.9609 26.4219C42.9688 26.2786 42.9518 26.1406 42.9102 26.0078C42.8685 25.875 42.806 25.7565 42.7227 25.6523C42.6419 25.5482 42.543 25.4648 42.4258 25.4023C42.3086 25.3398 42.1758 25.3073 42.0273 25.3047C41.8086 25.2969 41.6198 25.3398 41.4609 25.4336C41.3021 25.5247 41.168 25.6484 41.0586 25.8047C40.9518 25.9609 40.8672 26.1328 40.8047 26.3203C40.7422 26.5078 40.6992 26.6927 40.6758 26.875ZM50.3672 25.7578L50.2578 26.3711H47.2656L47.375 25.7578H50.3672ZM47.918 23.3125L46.9297 29H46.1914L47.1797 23.3125H47.918ZM51.4258 23.3125L50.4375 29H49.707L50.6914 23.3125H51.4258ZM53.4141 29.0781C53.125 29.0729 52.8737 29.0156 52.6602 28.9062C52.4492 28.7943 52.276 28.6445 52.1406 28.457C52.0078 28.2669 51.9128 28.0508 51.8555 27.8086C51.7982 27.5664 51.7812 27.3125 51.8047 27.0469L51.8203 26.8789C51.8464 26.6081 51.9128 26.3424 52.0195 26.082C52.1263 25.819 52.2682 25.582 52.4453 25.3711C52.625 25.1602 52.8359 24.9935 53.0781 24.8711C53.3229 24.7461 53.5938 24.6875 53.8906 24.6953C54.1849 24.7005 54.4297 24.763 54.625 24.8828C54.8203 25.0026 54.9727 25.1615 55.082 25.3594C55.194 25.5547 55.2669 25.7747 55.3008 26.0195C55.3346 26.2617 55.3372 26.5104 55.3086 26.7656L55.2656 27.0898H52.1992L52.293 26.5L54.6328 26.5039L54.6445 26.4414C54.6706 26.2539 54.6602 26.0729 54.6133 25.8984C54.5664 25.724 54.4805 25.5807 54.3555 25.4688C54.2331 25.3542 54.0677 25.2943 53.8594 25.2891C53.6432 25.2812 53.4557 25.3255 53.2969 25.4219C53.138 25.5156 53.0052 25.6432 52.8984 25.8047C52.7917 25.9635 52.707 26.138 52.6445 26.3281C52.5846 26.5156 52.543 26.6992 52.5195 26.8789L52.5039 27.043C52.4883 27.2096 52.4935 27.3776 52.5195 27.5469C52.5456 27.7161 52.5951 27.8711 52.668 28.0117C52.7435 28.1497 52.8477 28.263 52.9805 28.3516C53.1133 28.4375 53.2773 28.4831 53.4727 28.4883C53.7096 28.4935 53.9219 28.4427 54.1094 28.3359C54.2995 28.2266 54.4727 28.0885 54.6289 27.9219L55.0312 28.2656C54.9089 28.4453 54.763 28.5964 54.5938 28.7188C54.4245 28.8411 54.2396 28.9323 54.0391 28.9922C53.8385 29.0521 53.6302 29.0807 53.4141 29.0781ZM58.2969 28.2773L58.6484 26.0938C58.6667 25.9323 58.651 25.7904 58.6016 25.668C58.5547 25.5456 58.4753 25.4505 58.3633 25.3828C58.2539 25.3151 58.1159 25.2786 57.9492 25.2734C57.8034 25.2708 57.6602 25.2943 57.5195 25.3438C57.3815 25.3932 57.2617 25.4674 57.1602 25.5664C57.0586 25.6654 56.9922 25.7904 56.9609 25.9414L56.2578 25.9453C56.276 25.7344 56.3424 25.5508 56.457 25.3945C56.5716 25.2357 56.7148 25.1042 56.8867 25C57.0586 24.8932 57.2435 24.8151 57.4414 24.7656C57.6393 24.7135 57.832 24.6888 58.0195 24.6914C58.3034 24.6966 58.5495 24.7578 58.7578 24.875C58.9688 24.9896 59.1276 25.151 59.2344 25.3594C59.3411 25.5677 59.3802 25.8177 59.3516 26.1094L59.0273 28.0781C59.0039 28.2214 58.9896 28.3659 58.9844 28.5117C58.9818 28.6549 58.9987 28.7956 59.0352 28.9336L59.0273 29L58.3125 29.0039C58.2839 28.8841 58.2695 28.763 58.2695 28.6406C58.2721 28.5182 58.2812 28.3971 58.2969 28.2773ZM58.7305 26.4375L58.6484 26.9453L57.9805 26.9414C57.8398 26.9414 57.6914 26.9518 57.5352 26.9727C57.3789 26.9935 57.2305 27.0326 57.0898 27.0898C56.9492 27.1471 56.8307 27.2305 56.7344 27.3398C56.638 27.4466 56.5794 27.5859 56.5586 27.7578C56.543 27.8984 56.5599 28.0208 56.6094 28.125C56.6615 28.2266 56.7396 28.306 56.8438 28.3633C56.9479 28.4206 57.069 28.4505 57.207 28.4531C57.3867 28.4557 57.5638 28.4206 57.7383 28.3477C57.9128 28.2747 58.0651 28.1706 58.1953 28.0352C58.3255 27.8997 58.4154 27.7435 58.4648 27.5664L58.7227 27.9141C58.6732 28.0859 58.5924 28.2448 58.4805 28.3906C58.3685 28.5339 58.2357 28.6576 58.082 28.7617C57.931 28.8659 57.7682 28.9466 57.5938 29.0039C57.4193 29.0612 57.2448 29.0885 57.0703 29.0859C56.8333 29.0807 56.6185 29.0273 56.4258 28.9258C56.2357 28.8242 56.0846 28.6823 55.9727 28.5C55.8633 28.3151 55.8164 28.1003 55.832 27.8555C55.8477 27.5872 55.918 27.362 56.043 27.1797C56.168 26.9974 56.3281 26.8516 56.5234 26.7422C56.7214 26.6328 56.9375 26.5547 57.1719 26.5078C57.4062 26.4583 57.638 26.4336 57.8672 26.4336L58.7305 26.4375ZM61.7773 23L60.7344 29H60.0273L61.0664 23H61.7773ZM64.3164 24.7734L64.2188 25.3281H61.9961L62.0938 24.7734H64.3164ZM63.0234 23.7461H63.7266L63.0117 27.9609C63.0039 28.0521 63.0065 28.1341 63.0195 28.207C63.0326 28.2799 63.0638 28.3385 63.1133 28.3828C63.1628 28.4245 63.2383 28.4466 63.3398 28.4492C63.3971 28.4492 63.4531 28.4453 63.5078 28.4375C63.5651 28.4271 63.6224 28.418 63.6797 28.4102L63.6289 29.0039C63.5456 29.0273 63.4596 29.0443 63.3711 29.0547C63.2852 29.0677 63.1992 29.0729 63.1133 29.0703C62.8971 29.0677 62.7279 29.013 62.6055 28.9062C62.4831 28.7995 62.3997 28.6615 62.3555 28.4922C62.3112 28.3229 62.2982 28.1419 62.3164 27.9492L63.0234 23.7461ZM66.1484 23L65.1055 29H64.3984L65.4414 23H66.1484ZM65.3477 26.7266L65.0586 26.7188C65.0951 26.4661 65.1615 26.2188 65.2578 25.9766C65.3568 25.7318 65.4857 25.5117 65.6445 25.3164C65.806 25.1211 65.9974 24.9674 66.2188 24.8555C66.4427 24.7409 66.6979 24.6875 66.9844 24.6953C67.2109 24.7005 67.3997 24.7448 67.5508 24.8281C67.7044 24.9089 67.8242 25.0195 67.9102 25.1602C67.9961 25.3008 68.0534 25.4635 68.082 25.6484C68.1107 25.8307 68.1133 26.0247 68.0898 26.2305L67.6289 29H66.918L67.3867 26.2188C67.4049 26.0495 67.3984 25.8971 67.3672 25.7617C67.3385 25.6237 67.2734 25.5143 67.1719 25.4336C67.0729 25.3503 66.9297 25.306 66.7422 25.3008C66.5443 25.2956 66.3659 25.3333 66.207 25.4141C66.0482 25.4948 65.9089 25.6055 65.7891 25.7461C65.6719 25.8841 65.5755 26.0391 65.5 26.2109C65.4271 26.3802 65.3763 26.5521 65.3477 26.7266ZM70.4336 28.4883C70.6055 28.4909 70.7656 28.4583 70.9141 28.3906C71.0625 28.3229 71.1888 28.2266 71.293 28.1016C71.3971 27.9766 71.4714 27.832 71.5156 27.668L72.1875 27.6641C72.1458 27.9479 72.0352 28.1966 71.8555 28.4102C71.6784 28.6237 71.4609 28.7904 71.2031 28.9102C70.9479 29.0273 70.681 29.0833 70.4023 29.0781C70.1055 29.0729 69.8529 29.0117 69.6445 28.8945C69.4388 28.7747 69.2734 28.6159 69.1484 28.418C69.0234 28.2201 68.9375 27.9974 68.8906 27.75C68.8438 27.5 68.8333 27.2435 68.8594 26.9805L68.875 26.8125C68.9062 26.5286 68.9753 26.2591 69.082 26.0039C69.1888 25.7461 69.3307 25.5182 69.5078 25.3203C69.6875 25.1198 69.8997 24.9635 70.1445 24.8516C70.3893 24.7396 70.6641 24.6875 70.9688 24.6953C71.2656 24.7005 71.5234 24.7708 71.7422 24.9062C71.9609 25.0391 72.1302 25.2201 72.25 25.4492C72.3698 25.6784 72.4297 25.9388 72.4297 26.2305L71.7656 26.2266C71.763 26.0599 71.7305 25.9062 71.668 25.7656C71.6055 25.625 71.513 25.5117 71.3906 25.4258C71.2682 25.3398 71.1172 25.293 70.9375 25.2852C70.7214 25.2799 70.5326 25.3203 70.3711 25.4062C70.2122 25.4922 70.0768 25.6107 69.9648 25.7617C69.8555 25.9102 69.7682 26.0755 69.7031 26.2578C69.6406 26.4401 69.5977 26.625 69.5742 26.8125L69.5547 26.9766C69.5391 27.1432 69.5365 27.3138 69.5469 27.4883C69.5599 27.6628 69.5964 27.8255 69.6562 27.9766C69.7161 28.125 69.8086 28.2461 69.9336 28.3398C70.0586 28.4336 70.2253 28.4831 70.4336 28.4883ZM75.2891 28.2773L75.6406 26.0938C75.6589 25.9323 75.6432 25.7904 75.5938 25.668C75.5469 25.5456 75.4674 25.4505 75.3555 25.3828C75.2461 25.3151 75.1081 25.2786 74.9414 25.2734C74.7956 25.2708 74.6523 25.2943 74.5117 25.3438C74.3737 25.3932 74.2539 25.4674 74.1523 25.5664C74.0508 25.6654 73.9844 25.7904 73.9531 25.9414L73.25 25.9453C73.2682 25.7344 73.3346 25.5508 73.4492 25.3945C73.5638 25.2357 73.707 25.1042 73.8789 25C74.0508 24.8932 74.2357 24.8151 74.4336 24.7656C74.6315 24.7135 74.8242 24.6888 75.0117 24.6914C75.2956 24.6966 75.5417 24.7578 75.75 24.875C75.9609 24.9896 76.1198 25.151 76.2266 25.3594C76.3333 25.5677 76.3724 25.8177 76.3438 26.1094L76.0195 28.0781C75.9961 28.2214 75.9818 28.3659 75.9766 28.5117C75.974 28.6549 75.9909 28.7956 76.0273 28.9336L76.0195 29L75.3047 29.0039C75.276 28.8841 75.2617 28.763 75.2617 28.6406C75.2643 28.5182 75.2734 28.3971 75.2891 28.2773ZM75.7227 26.4375L75.6406 26.9453L74.9727 26.9414C74.832 26.9414 74.6836 26.9518 74.5273 26.9727C74.3711 26.9935 74.2227 27.0326 74.082 27.0898C73.9414 27.1471 73.8229 27.2305 73.7266 27.3398C73.6302 27.4466 73.5716 27.5859 73.5508 27.7578C73.5352 27.8984 73.5521 28.0208 73.6016 28.125C73.6536 28.2266 73.7318 28.306 73.8359 28.3633C73.9401 28.4206 74.0612 28.4505 74.1992 28.4531C74.3789 28.4557 74.556 28.4206 74.7305 28.3477C74.9049 28.2747 75.0573 28.1706 75.1875 28.0352C75.3177 27.8997 75.4076 27.7435 75.457 27.5664L75.7148 27.9141C75.6654 28.0859 75.5846 28.2448 75.4727 28.3906C75.3607 28.5339 75.2279 28.6576 75.0742 28.7617C74.9232 28.8659 74.7604 28.9466 74.5859 29.0039C74.4115 29.0612 74.237 29.0885 74.0625 29.0859C73.8255 29.0807 73.6107 29.0273 73.418 28.9258C73.2279 28.8242 73.0768 28.6823 72.9648 28.5C72.8555 28.3151 72.8086 28.1003 72.8242 27.8555C72.8398 27.5872 72.9102 27.362 73.0352 27.1797C73.1602 26.9974 73.3203 26.8516 73.5156 26.7422C73.7135 26.6328 73.9297 26.5547 74.1641 26.5078C74.3984 26.4583 74.6302 26.4336 74.8594 26.4336L75.7227 26.4375ZM78.2812 25.4688L77.668 29H76.9609L77.6953 24.7734H78.3828L78.2812 25.4688ZM79.6523 24.7383L79.5859 25.418C79.5312 25.4076 79.4753 25.3984 79.418 25.3906C79.3633 25.3828 79.3086 25.3789 79.2539 25.3789C79.0846 25.3763 78.9323 25.4023 78.7969 25.457C78.6641 25.5091 78.5456 25.5833 78.4414 25.6797C78.3398 25.776 78.2526 25.8893 78.1797 26.0195C78.1094 26.1497 78.0534 26.2904 78.0117 26.4414L77.7891 26.5586C77.8177 26.3477 77.8646 26.1315 77.9297 25.9102C77.9974 25.6888 78.0898 25.4844 78.207 25.2969C78.3268 25.1094 78.4766 24.9583 78.6562 24.8438C78.8385 24.7292 79.0573 24.6758 79.3125 24.6836C79.3698 24.6836 79.4258 24.6888 79.4805 24.6992C79.5378 24.7096 79.5951 24.7227 79.6523 24.7383ZM81.3047 29.0781C81.0156 29.0729 80.7643 29.0156 80.5508 28.9062C80.3398 28.7943 80.1667 28.6445 80.0312 28.457C79.8984 28.2669 79.8034 28.0508 79.7461 27.8086C79.6888 27.5664 79.6719 27.3125 79.6953 27.0469L79.7109 26.8789C79.737 26.6081 79.8034 26.3424 79.9102 26.082C80.0169 25.819 80.1589 25.582 80.3359 25.3711C80.5156 25.1602 80.7266 24.9935 80.9688 24.8711C81.2135 24.7461 81.4844 24.6875 81.7812 24.6953C82.0755 24.7005 82.3203 24.763 82.5156 24.8828C82.7109 25.0026 82.8633 25.1615 82.9727 25.3594C83.0846 25.5547 83.1576 25.7747 83.1914 26.0195C83.2253 26.2617 83.2279 26.5104 83.1992 26.7656L83.1562 27.0898H80.0898L80.1836 26.5L82.5234 26.5039L82.5352 26.4414C82.5612 26.2539 82.5508 26.0729 82.5039 25.8984C82.457 25.724 82.3711 25.5807 82.2461 25.4688C82.1237 25.3542 81.9583 25.2943 81.75 25.2891C81.5339 25.2812 81.3464 25.3255 81.1875 25.4219C81.0286 25.5156 80.8958 25.6432 80.7891 25.8047C80.6823 25.9635 80.5977 26.138 80.5352 26.3281C80.4753 26.5156 80.4336 26.6992 80.4102 26.8789L80.3945 27.043C80.3789 27.2096 80.3841 27.3776 80.4102 27.5469C80.4362 27.7161 80.4857 27.8711 80.5586 28.0117C80.6341 28.1497 80.7383 28.263 80.8711 28.3516C81.0039 28.4375 81.168 28.4831 81.3633 28.4883C81.6003 28.4935 81.8125 28.4427 82 28.3359C82.1901 28.2266 82.3633 28.0885 82.5195 27.9219L82.9219 28.2656C82.7995 28.4453 82.6536 28.5964 82.4844 28.7188C82.3151 28.8411 82.1302 28.9323 81.9297 28.9922C81.7292 29.0521 81.5208 29.0807 81.3047 29.0781ZM88.582 23.3125L87.5977 29H86.8711L87.8594 23.3125H88.582ZM90.3555 23.3125L90.2461 23.9297H85.9805L86.0898 23.3125H90.3555ZM89.8711 26.957L89.8828 26.8672C89.9141 26.5833 89.9844 26.3099 90.0938 26.0469C90.2057 25.7839 90.3529 25.5495 90.5352 25.3438C90.7174 25.138 90.9336 24.9766 91.1836 24.8594C91.4336 24.7422 91.7122 24.6875 92.0195 24.6953C92.3164 24.7005 92.5703 24.7643 92.7812 24.8867C92.9948 25.0091 93.1667 25.1719 93.2969 25.375C93.4297 25.5755 93.5221 25.8021 93.5742 26.0547C93.6263 26.3073 93.6393 26.5677 93.6133 26.8359L93.6055 26.9258C93.5716 27.2096 93.4987 27.4818 93.3867 27.7422C93.2747 28.0026 93.1263 28.2344 92.9414 28.4375C92.7591 28.6406 92.543 28.8008 92.293 28.918C92.043 29.0326 91.7656 29.0859 91.4609 29.0781C91.1667 29.0729 90.9128 29.0104 90.6992 28.8906C90.4883 28.7682 90.3177 28.6068 90.1875 28.4062C90.0573 28.2057 89.9661 27.9805 89.9141 27.7305C89.862 27.4805 89.8477 27.2227 89.8711 26.957ZM90.5859 26.8672L90.5781 26.9609C90.5599 27.125 90.5586 27.2956 90.5742 27.4727C90.5924 27.6497 90.6341 27.8138 90.6992 27.9648C90.7669 28.1159 90.8646 28.2396 90.9922 28.3359C91.1198 28.4323 91.2852 28.4831 91.4883 28.4883C91.7044 28.4935 91.8945 28.4518 92.0586 28.3633C92.2227 28.2721 92.362 28.1497 92.4766 27.9961C92.5938 27.8424 92.6862 27.6719 92.7539 27.4844C92.8242 27.2969 92.8711 27.1107 92.8945 26.9258L92.9023 26.8359C92.9206 26.6719 92.9206 26.5013 92.9023 26.3242C92.8867 26.1445 92.8451 25.9779 92.7773 25.8242C92.7122 25.668 92.6159 25.5417 92.4883 25.4453C92.3607 25.3464 92.1953 25.2943 91.9922 25.2891C91.776 25.2812 91.5846 25.3242 91.418 25.418C91.2539 25.5091 91.1146 25.6328 91 25.7891C90.8854 25.9453 90.793 26.1185 90.7227 26.3086C90.6549 26.4961 90.6094 26.6823 90.5859 26.8672ZM97.5039 24.7734H98.1523L97.4453 28.9062C97.3958 29.2578 97.2826 29.5677 97.1055 29.8359C96.931 30.1042 96.7018 30.3125 96.418 30.4609C96.1367 30.6094 95.8151 30.6797 95.4531 30.6719C95.263 30.6667 95.0768 30.6341 94.8945 30.5742C94.7122 30.5143 94.5443 30.4297 94.3906 30.3203C94.237 30.2109 94.1081 30.0768 94.0039 29.918L94.4102 29.4961C94.5326 29.6706 94.6771 29.8086 94.8438 29.9102C95.013 30.0143 95.2057 30.0703 95.4219 30.0781C95.6589 30.0833 95.8685 30.0391 96.0508 29.9453C96.2357 29.8542 96.3854 29.7227 96.5 29.5508C96.6172 29.3789 96.694 29.1771 96.7305 28.9453L97.2852 25.668L97.5039 24.7734ZM94.3125 26.9648L94.3242 26.8789C94.3555 26.6185 94.4167 26.3581 94.5078 26.0977C94.6016 25.8372 94.7266 25.6003 94.8828 25.3867C95.0391 25.1706 95.2305 25 95.457 24.875C95.6836 24.7474 95.9479 24.6862 96.25 24.6914C96.5234 24.6992 96.7513 24.763 96.9336 24.8828C97.1159 25.0026 97.2591 25.1615 97.3633 25.3594C97.4701 25.5547 97.5417 25.7695 97.5781 26.0039C97.6172 26.2383 97.6289 26.474 97.6133 26.7109L97.5703 27.0703C97.526 27.3229 97.4531 27.5703 97.3516 27.8125C97.25 28.0547 97.1185 28.2734 96.957 28.4688C96.7956 28.6615 96.6029 28.8138 96.3789 28.9258C96.1576 29.0378 95.9049 29.0898 95.6211 29.082C95.3424 29.0716 95.112 29 94.9297 28.8672C94.75 28.7344 94.6107 28.5638 94.5117 28.3555C94.4128 28.1445 94.349 27.918 94.3203 27.6758C94.2917 27.431 94.2891 27.194 94.3125 26.9648ZM95.0352 26.875L95.0234 26.9609C95.0052 27.1172 95 27.2812 95.0078 27.4531C95.0156 27.625 95.0456 27.7878 95.0977 27.9414C95.1497 28.0924 95.2331 28.2174 95.3477 28.3164C95.4648 28.4128 95.6237 28.4635 95.8242 28.4688C96.0378 28.4766 96.2357 28.4297 96.418 28.3281C96.6003 28.2266 96.7565 28.0911 96.8867 27.9219C97.0169 27.7526 97.1107 27.569 97.168 27.3711L97.3203 26.4219C97.3281 26.2786 97.3112 26.1406 97.2695 26.0078C97.2279 25.875 97.1654 25.7565 97.082 25.6523C97.0013 25.5482 96.9023 25.4648 96.7852 25.4023C96.668 25.3398 96.5352 25.3073 96.3867 25.3047C96.168 25.2969 95.9792 25.3398 95.8203 25.4336C95.6615 25.5247 95.5273 25.6484 95.418 25.8047C95.3112 25.9609 95.2266 26.1328 95.1641 26.3203C95.1016 26.5078 95.0586 26.6927 95.0352 26.875ZM100.266 29.0781C99.9766 29.0729 99.7253 29.0156 99.5117 28.9062C99.3008 28.7943 99.1276 28.6445 98.9922 28.457C98.8594 28.2669 98.7643 28.0508 98.707 27.8086C98.6497 27.5664 98.6328 27.3125 98.6562 27.0469L98.6719 26.8789C98.6979 26.6081 98.7643 26.3424 98.8711 26.082C98.9779 25.819 99.1198 25.582 99.2969 25.3711C99.4766 25.1602 99.6875 24.9935 99.9297 24.8711C100.174 24.7461 100.445 24.6875 100.742 24.6953C101.036 24.7005 101.281 24.763 101.477 24.8828C101.672 25.0026 101.824 25.1615 101.934 25.3594C102.046 25.5547 102.118 25.7747 102.152 26.0195C102.186 26.2617 102.189 26.5104 102.16 26.7656L102.117 27.0898H99.0508L99.1445 26.5L101.484 26.5039L101.496 26.4414C101.522 26.2539 101.512 26.0729 101.465 25.8984C101.418 25.724 101.332 25.5807 101.207 25.4688C101.085 25.3542 100.919 25.2943 100.711 25.2891C100.495 25.2812 100.307 25.3255 100.148 25.4219C99.9896 25.5156 99.8568 25.6432 99.75 25.8047C99.6432 25.9635 99.5586 26.138 99.4961 26.3281C99.4362 26.5156 99.3945 26.6992 99.3711 26.8789L99.3555 27.043C99.3398 27.2096 99.3451 27.3776 99.3711 27.5469C99.3971 27.7161 99.4466 27.8711 99.5195 28.0117C99.5951 28.1497 99.6992 28.263 99.832 28.3516C99.9648 28.4375 100.129 28.4831 100.324 28.4883C100.561 28.4935 100.773 28.4427 100.961 28.3359C101.151 28.2266 101.324 28.0885 101.48 27.9219L101.883 28.2656C101.76 28.4453 101.615 28.5964 101.445 28.7188C101.276 28.8411 101.091 28.9323 100.891 28.9922C100.69 29.0521 100.482 29.0807 100.266 29.0781ZM105.051 24.7734L104.953 25.3281H102.73L102.828 24.7734H105.051ZM103.758 23.7461H104.461L103.746 27.9609C103.738 28.0521 103.741 28.1341 103.754 28.207C103.767 28.2799 103.798 28.3385 103.848 28.3828C103.897 28.4245 103.973 28.4466 104.074 28.4492C104.132 28.4492 104.188 28.4453 104.242 28.4375C104.299 28.4271 104.357 28.418 104.414 28.4102L104.363 29.0039C104.28 29.0273 104.194 29.0443 104.105 29.0547C104.02 29.0677 103.934 29.0729 103.848 29.0703C103.632 29.0677 103.462 29.013 103.34 28.9062C103.217 28.7995 103.134 28.6615 103.09 28.4922C103.046 28.3229 103.033 28.1419 103.051 27.9492L103.758 23.7461ZM106.883 23L105.84 29H105.133L106.176 23H106.883ZM106.082 26.7266L105.793 26.7188C105.829 26.4661 105.896 26.2188 105.992 25.9766C106.091 25.7318 106.22 25.5117 106.379 25.3164C106.54 25.1211 106.732 24.9674 106.953 24.8555C107.177 24.7409 107.432 24.6875 107.719 24.6953C107.945 24.7005 108.134 24.7448 108.285 24.8281C108.439 24.9089 108.559 25.0195 108.645 25.1602C108.73 25.3008 108.788 25.4635 108.816 25.6484C108.845 25.8307 108.848 26.0247 108.824 26.2305L108.363 29H107.652L108.121 26.2188C108.139 26.0495 108.133 25.8971 108.102 25.7617C108.073 25.6237 108.008 25.5143 107.906 25.4336C107.807 25.3503 107.664 25.306 107.477 25.3008C107.279 25.2956 107.1 25.3333 106.941 25.4141C106.783 25.4948 106.643 25.6055 106.523 25.7461C106.406 25.8841 106.31 26.0391 106.234 26.2109C106.161 26.3802 106.111 26.5521 106.082 26.7266ZM111.195 29.0781C110.906 29.0729 110.655 29.0156 110.441 28.9062C110.23 28.7943 110.057 28.6445 109.922 28.457C109.789 28.2669 109.694 28.0508 109.637 27.8086C109.579 27.5664 109.562 27.3125 109.586 27.0469L109.602 26.8789C109.628 26.6081 109.694 26.3424 109.801 26.082C109.908 25.819 110.049 25.582 110.227 25.3711C110.406 25.1602 110.617 24.9935 110.859 24.8711C111.104 24.7461 111.375 24.6875 111.672 24.6953C111.966 24.7005 112.211 24.763 112.406 24.8828C112.602 25.0026 112.754 25.1615 112.863 25.3594C112.975 25.5547 113.048 25.7747 113.082 26.0195C113.116 26.2617 113.118 26.5104 113.09 26.7656L113.047 27.0898H109.98L110.074 26.5L112.414 26.5039L112.426 26.4414C112.452 26.2539 112.441 26.0729 112.395 25.8984C112.348 25.724 112.262 25.5807 112.137 25.4688C112.014 25.3542 111.849 25.2943 111.641 25.2891C111.424 25.2812 111.237 25.3255 111.078 25.4219C110.919 25.5156 110.786 25.6432 110.68 25.8047C110.573 25.9635 110.488 26.138 110.426 26.3281C110.366 26.5156 110.324 26.6992 110.301 26.8789L110.285 27.043C110.27 27.2096 110.275 27.3776 110.301 27.5469C110.327 27.7161 110.376 27.8711 110.449 28.0117C110.525 28.1497 110.629 28.263 110.762 28.3516C110.895 28.4375 111.059 28.4831 111.254 28.4883C111.491 28.4935 111.703 28.4427 111.891 28.3359C112.081 28.2266 112.254 28.0885 112.41 27.9219L112.812 28.2656C112.69 28.4453 112.544 28.5964 112.375 28.7188C112.206 28.8411 112.021 28.9323 111.82 28.9922C111.62 29.0521 111.411 29.0807 111.195 29.0781ZM114.844 25.4688L114.23 29H113.523L114.258 24.7734H114.945L114.844 25.4688ZM116.215 24.7383L116.148 25.418C116.094 25.4076 116.038 25.3984 115.98 25.3906C115.926 25.3828 115.871 25.3789 115.816 25.3789C115.647 25.3763 115.495 25.4023 115.359 25.457C115.227 25.5091 115.108 25.5833 115.004 25.6797C114.902 25.776 114.815 25.8893 114.742 26.0195C114.672 26.1497 114.616 26.2904 114.574 26.4414L114.352 26.5586C114.38 26.3477 114.427 26.1315 114.492 25.9102C114.56 25.6888 114.652 25.4844 114.77 25.2969C114.889 25.1094 115.039 24.9583 115.219 24.8438C115.401 24.7292 115.62 24.6758 115.875 24.6836C115.932 24.6836 115.988 24.6888 116.043 24.6992C116.1 24.7096 116.158 24.7227 116.215 24.7383Z" fill="#A0C7EB"/>
</svg>
