<svg width="322" height="87" viewBox="0 0 322 87" fill="none" xmlns="http://www.w3.org/2000/svg">
<path d="M98.1827 65.667H104.646V42.074H105.126L114.015 65.667H118.556L127.446 42.074H127.926V65.667H134.389V30.9983H126.076L116.514 56.3692H116.082L106.496 30.9983H98.1827V65.667ZM153.754 66.2196C161.49 66.2196 164.901 61.7508 165.718 58.4353L165.766 58.1951H159.231L159.159 58.3392C158.679 59.3483 156.973 60.982 153.898 60.982C150.174 60.982 147.843 58.4594 147.771 54.1108H165.982V51.9245C165.982 43.924 161.177 38.6384 153.465 38.6384C145.753 38.6384 140.828 44.0441 140.828 52.453V52.477C140.828 60.958 145.705 66.2196 153.754 66.2196ZM153.585 43.9C156.637 43.9 158.823 45.87 159.255 49.7141H147.843C148.276 45.9661 150.534 43.9 153.585 43.9ZM181.167 66.0754C184.89 66.0754 187.701 64.4177 189.071 61.5586H189.503V65.667H196.519V29.1003H189.503V43.4435H189.071C187.749 40.5604 184.794 38.7825 181.167 38.7825C174.463 38.7825 170.427 43.9 170.427 52.405V52.453C170.427 60.91 174.56 66.0754 181.167 66.0754ZM183.545 60.2613C179.845 60.2613 177.563 57.3302 177.563 52.453V52.405C177.563 47.5758 179.845 44.5967 183.545 44.5967C187.245 44.5967 189.575 47.5758 189.575 52.429V52.477C189.575 57.3302 187.269 60.2613 183.545 60.2613ZM212.88 65.667H220.136V36.9806H230.539V30.9983H202.477V36.9806H212.88V65.667ZM239.356 35.1547C241.518 35.1547 243.296 33.4249 243.296 31.2626C243.296 29.0763 241.518 27.3464 239.356 27.3464C237.194 27.3464 235.392 29.0763 235.392 31.2626C235.392 33.4249 237.194 35.1547 239.356 35.1547ZM235.824 65.667H242.84V39.215H235.824V65.667ZM249.903 65.667H256.919V49.7141C256.919 46.6869 258.841 44.4525 261.58 44.4525C264.319 44.4525 265.928 46.1103 265.928 48.9453V65.667H272.944V49.4018C272.944 46.5428 274.77 44.4525 277.605 44.4525C280.536 44.4525 281.977 46.0622 281.977 49.2576V65.667H288.993V47.5038C288.993 42.05 285.701 38.6384 280.44 38.6384C276.74 38.6384 273.664 40.5845 272.463 43.5156H272.031C270.95 40.4643 268.283 38.6384 264.679 38.6384C261.219 38.6384 258.48 40.3682 257.351 43.3474H256.919V39.215H249.903V65.667ZM307.42 66.2196C315.156 66.2196 318.568 61.7508 319.385 58.4353L319.433 58.1951H312.898L312.826 58.3392C312.345 59.3483 310.64 60.982 307.564 60.982C303.84 60.982 301.51 58.4594 301.438 54.1108H319.649V51.9245C319.649 43.924 314.844 38.6384 307.132 38.6384C299.42 38.6384 294.494 44.0441 294.494 52.453V52.477C294.494 60.958 299.372 66.2196 307.42 66.2196ZM307.252 43.9C310.303 43.9 312.489 45.87 312.922 49.7141H301.51C301.942 45.9661 304.201 43.9 307.252 43.9Z" fill="white"/>
<rect x="2.31666" y="-0.167344" width="80.7455" height="31.0359" rx="15.518" transform="matrix(0.654311 -0.756226 0.756203 0.654337 1.64687 65.519)" fill="url(#paint0_linear_12_270)" stroke="#09677C" stroke-width="3.28484"/>
<line y1="-1.64242" x2="29.6828" y2="-1.64242" transform="matrix(0.756203 0.654337 -0.654311 0.756226 29.1774 34.4774)" stroke="#09677C" stroke-width="3.28484"/>
<defs>
<linearGradient id="paint0_linear_12_270" x1="43.4557" y1="17.1604" x2="41.7751" y2="17.1604" gradientUnits="userSpaceOnUse">
<stop stop-color="#09677C"/>
<stop offset="1" stop-color="white"/>
</linearGradient>
</defs>
</svg>
