<svg width="527" height="118" viewBox="0 0 527 118" fill="none" xmlns="http://www.w3.org/2000/svg">
<rect x="3.79671" y="-0.274255" width="132.332" height="50.8639" rx="25.432" transform="matrix(0.654311 -0.756226 0.756203 0.654337 1.53355 95.4459)" fill="url(#paint0_linear_214_1200)" stroke="#09677C" stroke-width="5.38344"/>
<line y1="-2.69172" x2="48.6464" y2="-2.69172" transform="matrix(0.756203 0.654337 -0.654311 0.756226 46.6523 44.5727)" stroke="#09677C" stroke-width="5.38344"/>
<path d="M159.227 88V31.1824H172.851L188.562 72.762H189.27L204.941 31.1824H218.565V88H207.973V49.3341H207.186L192.617 88H185.175L170.607 49.3341H169.819V88H159.227ZM250.301 88.9056C237.11 88.9056 229.117 80.2826 229.117 66.3833V66.344C229.117 52.5628 237.189 43.7035 249.828 43.7035C262.468 43.7035 270.343 52.366 270.343 65.4777V69.0608H240.497C240.615 76.1876 244.434 80.3219 250.537 80.3219C255.577 80.3219 258.373 77.6445 259.16 75.9907L259.278 75.7545H269.988L269.91 76.1482C268.571 81.5819 262.98 88.9056 250.301 88.9056ZM250.025 52.3266C245.025 52.3266 241.324 55.7128 240.615 61.8552H259.318C258.609 55.5553 255.026 52.3266 250.025 52.3266ZM295.227 88.6694C284.399 88.6694 277.627 80.2038 277.627 66.344V66.2652C277.627 52.3266 284.242 43.9398 295.227 43.9398C301.173 43.9398 306.016 46.8535 308.182 51.5785H308.89V28.0718H320.388V88H308.89V81.2669H308.182C305.937 85.9525 301.331 88.6694 295.227 88.6694ZM299.126 79.1407C305.229 79.1407 309.009 74.337 309.009 66.3833V66.3046C309.009 58.3509 305.189 53.4685 299.126 53.4685C293.062 53.4685 289.321 58.3509 289.321 66.2652V66.344C289.321 74.337 293.062 79.1407 299.126 79.1407ZM347.202 88V40.9867H330.153V31.1824H376.142V40.9867H359.093V88H347.202ZM390.593 37.9942C387.049 37.9942 384.096 35.1593 384.096 31.6155C384.096 28.0324 387.049 25.1975 390.593 25.1975C394.136 25.1975 397.05 28.0324 397.05 31.6155C397.05 35.1593 394.136 37.9942 390.593 37.9942ZM384.805 88V44.6485H396.302V88H384.805ZM407.878 88V44.6485H419.376V51.421H420.084C421.935 46.5385 426.424 43.7035 432.094 43.7035C438 43.7035 442.37 46.696 444.142 51.6966H444.851C446.82 46.8929 451.86 43.7035 457.923 43.7035C466.546 43.7035 471.941 49.2947 471.941 58.2328V88H460.443V61.1071C460.443 55.8703 458.081 53.2322 453.277 53.2322C448.631 53.2322 445.639 56.6578 445.639 61.3434V88H434.141V60.5953C434.141 55.9491 431.503 53.2322 427.014 53.2322C422.526 53.2322 419.376 56.894 419.376 61.8552V88H407.878ZM502.141 88.9056C488.951 88.9056 480.958 80.2826 480.958 66.3833V66.344C480.958 52.5628 489.029 43.7035 501.669 43.7035C514.308 43.7035 522.183 52.366 522.183 65.4777V69.0608H492.337C492.455 76.1876 496.274 80.3219 502.377 80.3219C507.417 80.3219 510.213 77.6445 511 75.9907L511.119 75.7545H521.828L521.75 76.1482C520.411 81.5819 514.82 88.9056 502.141 88.9056ZM501.865 52.3266C496.865 52.3266 493.164 55.7128 492.455 61.8552H511.158C510.449 55.5553 506.866 52.3266 501.865 52.3266Z" fill="white"/>
<defs>
<linearGradient id="paint0_linear_214_1200" x1="71.2184" y1="28.1237" x2="68.4641" y2="28.1237" gradientUnits="userSpaceOnUse">
<stop stop-color="#09677C"/>
<stop offset="1" stop-color="white"/>
</linearGradient>
</defs>
</svg>
