<svg width="431" height="439" viewBox="0 0 431 439" fill="none" xmlns="http://www.w3.org/2000/svg">
<path d="M320.08 298.662C324.79 288.798 338.832 288.798 343.543 298.662L359.233 331.523C360.515 334.208 362.679 336.371 365.363 337.653L398.224 353.344C408.089 358.054 408.089 372.096 398.224 376.806L365.363 392.497C362.679 393.779 360.515 395.942 359.233 398.627L343.543 431.488C338.833 441.353 324.79 441.353 320.08 431.488L304.389 398.627C303.108 395.942 300.944 393.779 298.26 392.497L265.398 376.806C255.534 372.096 255.534 358.054 265.398 353.344L298.26 337.653C300.944 336.371 303.108 334.208 304.389 331.523L320.08 298.662ZM129.189 86.6619C133.9 76.7977 147.942 76.7976 152.652 86.6619L190.03 164.945C191.312 167.629 193.476 169.792 196.16 171.074L274.443 208.453C284.153 213.09 284.304 226.768 274.897 231.687L274.443 231.916L196.16 269.294C193.476 270.575 191.312 272.739 190.03 275.424L152.652 353.707L152.424 354.161C147.505 363.568 133.826 363.417 129.189 353.707L91.8103 275.424C90.6086 272.907 88.6317 270.848 86.1775 269.545L85.6814 269.294L7.39819 231.916C-2.46608 227.205 -2.46608 213.163 7.39819 208.453L85.6814 171.074C88.1977 169.872 90.2558 167.895 91.5593 165.441L91.8103 164.945L129.189 86.6619ZM118.883 177.871C114.643 186.75 107.486 193.907 98.6072 198.146L52.4529 220.184L98.6072 242.221C107.486 246.461 114.643 253.618 118.883 262.497L140.92 308.65L162.958 262.497L163.364 261.67C167.509 253.448 174.184 246.772 182.406 242.628L183.233 242.221L229.386 220.184L183.233 198.146C174.354 193.907 167.197 186.75 162.958 177.871L140.92 131.718L118.883 177.871ZM345.453 7.39819C350.163 -2.46607 364.204 -2.46607 368.915 7.39819L384.606 40.2595C385.888 42.9437 388.051 45.1076 390.735 46.3894L423.596 62.0798C433.461 66.7901 433.461 80.8325 423.596 85.5427L390.735 101.233C388.051 102.515 385.888 104.679 384.606 107.363L368.915 140.224C364.204 150.089 350.163 150.089 345.453 140.224L329.761 107.363C328.48 104.679 326.317 102.515 323.633 101.233L290.771 85.5427C280.907 80.8325 280.907 66.7901 290.771 62.0798L323.633 46.3894C326.317 45.1076 328.48 42.9437 329.761 40.2595L345.453 7.39819Z" fill="black"/>
</svg>
